<svg width="20.000000" height="20.000000" viewBox="0 0 20 20" fill="none" xmlns="http://www.w3.org/2000/svg" xmlns:xlink="http://www.w3.org/1999/xlink">
	<desc>
			Created with Pixso.
	</desc>
	<defs/>
	<path id="Vector" d="M4.02 8.66C5.62 11.8 8.19 14.37 11.35 15.97L13.79 13.52C14.1 13.22 14.53 13.13 14.92 13.25C16.16 13.66 17.5 13.88 18.88 13.88C19.5 13.88 20 14.38 20 15L20 18.88C20 19.5 19.5 20 18.88 20C8.45 20 0 11.54 0 1.11C0 0.49 0.5 0 1.11 0L5 0C5.61 0 6.11 0.49 6.11 1.11C6.11 2.49 6.33 3.83 6.74 5.07C6.86 5.46 6.77 5.89 6.47 6.2L4.02 8.66Z" fill="#FFFFFF" fill-opacity="1.000000" fill-rule="nonzero"/>
</svg>
