<svg width="33.000000" height="15.000000" viewBox="0 0 33 15" fill="none" xmlns="http://www.w3.org/2000/svg" xmlns:xlink="http://www.w3.org/1999/xlink">
	<desc>
			Created with Pixso.
	</desc>
	<defs/>
	<rect id="Rectangle 19" y="7.000000" rx="0.500000" width="32.000000" height="1.000000" fill="#1E2739" fill-opacity="1.000000"/>
	<path id="Vector" d="M24.62 0C24.71 0 24.79 0.01 24.86 0.04C24.94 0.07 25.01 0.11 25.07 0.16L32.81 7.1C32.93 7.2 33 7.35 33 7.5C33 7.64 32.93 7.79 32.81 7.89L25.07 14.83C25.01 14.88 24.94 14.92 24.86 14.95C24.79 14.98 24.71 15 24.62 15C24.54 15 24.46 14.98 24.38 14.95C24.31 14.92 24.24 14.88 24.18 14.83C24.12 14.78 24.08 14.72 24.04 14.65C24.01 14.58 24 14.51 24 14.43C24 14.36 24.01 14.29 24.04 14.22C24.07 14.15 24.12 14.09 24.18 14.03L31.48 7.5L24.18 0.96C24.09 0.88 24.03 0.78 24.01 0.67C23.98 0.56 24 0.45 24.04 0.34C24.09 0.24 24.17 0.15 24.27 0.09C24.38 0.03 24.5 0 24.62 0Z" fill="#1E2739" fill-opacity="1.000000" fill-rule="nonzero"/>
</svg>
