<svg width="19.875977" height="26.443848" viewBox="0 0 19.876 26.4438" fill="none" xmlns="http://www.w3.org/2000/svg" xmlns:xlink="http://www.w3.org/1999/xlink">
	<desc>
			Created with Pixso.
	</desc>
	<defs/>
	<path id="Vector" d="M14.24 6.26C13.42 4.52 12.71 3.01 12.65 1.88C12.64 1.52 12.06 1.4 11.9 1.72C11.4 2.74 10.16 3.85 8.72 5.13C5.65 7.86 1.45 11.59 1.43 17.56C1.43 21.25 3.82 24.13 7.53 24.89C11.25 25.65 14.58 23.95 16.03 20.56C18.37 15.07 15.98 9.98 14.24 6.26ZM15.3 20.25C14.01 23.28 11.02 24.79 7.69 24.11C4.37 23.43 2.22 20.86 2.23 17.56C2.24 11.95 6.12 8.5 9.25 5.72C10.36 4.73 11.36 3.84 12.04 2.97C12.32 4.04 12.89 5.25 13.52 6.6C15.3 10.38 17.51 15.09 15.3 20.25L15.3 20.25Z" fill="#6D91E4" fill-opacity="1.000000" fill-rule="nonzero"/>
	<path id="Vector" d="M13.15 1.85L13.15 1.85Q13.15 1.7 13.09 1.56Q13.02 1.42 12.9 1.3Q12.83 1.23 12.75 1.18Q12.61 1.09 12.43 1.05Q12.26 1.02 12.09 1.04Q12 1.06 11.91 1.09Q11.75 1.15 11.63 1.26Q11.52 1.36 11.45 1.51Q11.15 2.12 10.31 2.98Q9.95 3.35 9.42 3.83Q9.09 4.13 8.39 4.75L8.38 4.76Q7.59 5.46 7.18 5.84Q6.49 6.48 5.93 7.04Q4.49 8.47 3.52 9.85Q2.31 11.55 1.67 13.32Q1.38 14.14 1.2 14.99Q0.94 16.25 0.93 17.56Q0.93 18.91 1.33 20.13Q1.36 20.23 1.39 20.32Q1.66 21.07 2.06 21.74Q2.35 22.21 2.7 22.64Q2.94 22.93 3.2 23.18Q3.89 23.87 4.76 24.37Q5.98 25.08 7.43 25.38Q8.89 25.68 10.29 25.51Q11.28 25.39 12.19 25.03Q12.53 24.9 12.86 24.73Q13.36 24.47 13.81 24.15Q14.44 23.7 14.98 23.11Q15.05 23.04 15.12 22.96Q15.96 22 16.49 20.76Q17 19.55 17.26 18.29Q17.43 17.44 17.48 16.56Q17.6 14.68 17.16 12.64Q16.8 11 16.05 9.11Q15.76 8.38 15.37 7.51Q15.14 7 14.69 6.05L14.69 6.04Q14.29 5.19 14.11 4.79Q13.81 4.14 13.63 3.66Q13.19 2.53 13.15 1.85ZM14.24 6.26C13.42 4.52 12.71 3.01 12.65 1.88C12.64 1.52 12.06 1.4 11.9 1.72C11.4 2.74 10.16 3.85 8.72 5.13L8.71 5.13C5.64 7.86 1.45 11.6 1.43 17.56C1.43 21.25 3.82 24.13 7.53 24.89C11.25 25.65 14.58 23.95 16.03 20.56C18.37 15.07 15.98 9.98 14.24 6.26ZM11.65 3.44C11 4.16 10.16 4.91 9.25 5.72L9.24 5.73C6.12 8.5 2.24 11.95 2.23 17.56C2.22 20.86 4.37 23.43 7.69 24.11C11.02 24.79 14.01 23.28 15.3 20.25L15.3 20.25C17.51 15.09 15.3 10.38 13.52 6.6C13 5.49 12.52 4.47 12.21 3.55C12.15 3.35 12.09 3.16 12.04 2.97C11.92 3.13 11.79 3.28 11.65 3.44ZM11.83 3.98Q11.53 4.3 11.15 4.66Q10.67 5.12 9.58 6.09L9.57 6.1Q8.78 6.8 8.38 7.17Q7.71 7.79 7.18 8.31Q5.85 9.64 4.97 10.87Q3.91 12.36 3.36 13.91Q3.16 14.46 3.03 15.02Q2.73 16.26 2.73 17.57Q2.73 18.68 3.07 19.67Q3.08 19.69 3.08 19.71Q3.29 20.29 3.6 20.81Q3.82 21.17 4.1 21.49Q4.25 21.67 4.41 21.84Q4.97 22.41 5.69 22.83Q6.64 23.38 7.79 23.62Q8.95 23.86 10.04 23.72Q10.87 23.62 11.61 23.32Q11.83 23.23 12.03 23.13Q12.41 22.93 12.76 22.69Q13.25 22.34 13.67 21.89Q13.68 21.88 13.69 21.86Q14.4 21.08 14.84 20.05L14.91 19.88Q15.37 18.76 15.57 17.6Q15.67 17.02 15.7 16.44Q15.8 14.8 15.41 13.01Q15.09 11.53 14.39 9.79Q14.12 9.1 13.74 8.27Q13.52 7.77 13.07 6.81Q12.45 5.49 12.19 4.87Q11.98 4.4 11.83 3.98Z" fill="#6D91E4" fill-opacity="1.000000" fill-rule="evenodd"/>
	<path id="Vector" d="M7.93 21.25C7.79 21.2 4.36 19.96 5.19 15.92C5.2 15.87 5.21 15.82 5.2 15.76C5.19 15.71 5.17 15.66 5.14 15.62C5.11 15.57 5.08 15.53 5.03 15.5C4.99 15.47 4.94 15.45 4.89 15.44C4.83 15.43 4.78 15.43 4.73 15.44C4.68 15.45 4.63 15.47 4.58 15.5C4.54 15.53 4.5 15.57 4.47 15.62C4.44 15.66 4.42 15.71 4.42 15.76C3.45 20.48 7.63 21.99 7.67 22C7.69 22.01 7.71 22.01 7.72 22.02C7.82 22.04 7.92 22.02 8.01 21.96C8.1 21.91 8.16 21.83 8.18 21.73C8.21 21.64 8.2 21.53 8.15 21.44C8.11 21.35 8.03 21.29 7.93 21.25L7.93 21.25Z" fill="#6D91E4" fill-opacity="1.000000" fill-rule="nonzero"/>
	<path id="Vector" d="M5.19 15.92C5.2 15.87 5.21 15.82 5.2 15.76C5.19 15.71 5.17 15.66 5.14 15.62C5.11 15.57 5.08 15.53 5.03 15.5C4.99 15.47 4.94 15.45 4.89 15.44C4.83 15.43 4.78 15.43 4.73 15.44C4.68 15.45 4.63 15.47 4.58 15.5C4.54 15.53 4.5 15.57 4.47 15.62C4.44 15.66 4.42 15.71 4.42 15.76C3.45 20.48 7.63 21.99 7.67 22C7.69 22.01 7.71 22.01 7.72 22.02C7.82 22.04 7.92 22.02 8.01 21.96C8.1 21.91 8.16 21.83 8.18 21.73C8.21 21.64 8.2 21.53 8.15 21.44C8.11 21.35 8.03 21.29 7.93 21.25L7.93 21.25C7.79 21.2 4.36 19.96 5.19 15.92ZM8.07 20.77L8.07 20.77L8.1 20.78Q8.27 20.84 8.39 20.95Q8.52 21.06 8.6 21.21Q8.68 21.37 8.7 21.53Q8.71 21.7 8.67 21.87Q8.62 22.04 8.52 22.17Q8.42 22.3 8.27 22.39Q8.12 22.48 7.96 22.51Q7.8 22.54 7.62 22.51Q7.57 22.49 7.51 22.47Q7.42 22.44 7.28 22.38Q7.02 22.27 6.76 22.12Q5.98 21.68 5.37 21.06Q5.34 21.03 5.3 20.99Q4.7 20.36 4.33 19.62Q4.16 19.26 4.03 18.88Q3.57 17.41 3.92 15.67Q3.94 15.59 3.97 15.51Q4 15.42 4.05 15.35Q4.1 15.27 4.16 15.2Q4.22 15.14 4.3 15.09Q4.37 15.04 4.46 15Q4.54 14.97 4.63 14.95Q4.72 14.93 4.81 14.93Q4.9 14.93 4.99 14.95Q5.08 14.97 5.16 15Q5.24 15.04 5.32 15.09Q5.39 15.14 5.45 15.21Q5.52 15.27 5.56 15.35Q5.61 15.43 5.65 15.51Q5.68 15.59 5.69 15.68Q5.71 15.77 5.7 15.86Q5.7 15.95 5.68 16.03Q5.42 17.29 5.73 18.31Q5.82 18.61 5.96 18.89Q6.19 19.35 6.56 19.74Q6.99 20.2 7.57 20.53Q7.86 20.69 8.07 20.77Z" fill="#6D91E4" fill-opacity="1.000000" fill-rule="evenodd"/>
</svg>
