<svg width="40.000000" height="33.006592" viewBox="0 0 40 33.0066" fill="none" xmlns="http://www.w3.org/2000/svg" xmlns:xlink="http://www.w3.org/1999/xlink">
	<desc>
			Created with Pixso.
	</desc>
	<defs/>
	<path id="Vector" d="M19.99 26.6C18.57 26.59 17.2 26.33 15.89 25.8C15.65 25.71 15.47 25.72 15.25 25.85C14.45 26.31 13.65 26.74 12.86 27.18C12.51 27.38 12.14 27.56 11.75 27.29C11.34 27 11.33 26.57 11.42 26.13C11.6 25.28 11.78 24.43 11.99 23.6C12.06 23.31 11.99 23.14 11.81 22.94C6.93 17.42 8.77 7.87 16.65 5.36C22.85 3.38 29.29 7.05 30.62 13.42C31.99 19.97 27.59 25.75 21.4 26.5C20.92 26.54 20.45 26.57 19.99 26.6ZM25.49 17.76C26.63 17.77 27.55 16.86 27.57 15.74C27.58 14.62 26.67 13.69 25.55 13.68C24.4 13.66 23.47 14.57 23.45 15.72C23.45 16.84 24.36 17.75 25.49 17.76ZM14.43 17.76C15.56 17.77 16.48 16.87 16.51 15.74C16.53 14.62 15.61 13.68 14.49 13.66C13.33 13.65 12.4 14.56 12.39 15.71C12.39 16.83 13.31 17.75 14.43 17.76ZM22.03 15.71C22.03 14.57 21.12 13.68 19.99 13.68C18.84 13.68 17.95 14.57 17.95 15.72C17.95 16.87 18.85 17.78 20.01 17.77C21.14 17.75 22.03 16.84 22.03 15.71Z" fill="#A5BDF4" fill-opacity="1.000000" fill-rule="nonzero"/>
	<path id="Vector" d="M4.77 11.28C5.31 10.11 5.74 8.95 6.36 7.9C9.09 3.29 13.13 0.63 18.48 0.08C25.84 -0.68 32.64 3.8 34.94 10.86C35.02 11.12 35.09 11.32 35.45 11.33C37.29 11.41 38.5 12.45 39.18 14.07C40.5 17.24 40.25 20.3 38.23 23.14C37.57 24.07 36.65 24.78 35.45 24.8C34.79 24.81 34.13 24.6 33.47 24.46C33.22 24.41 33.07 24.41 32.91 24.63C30.68 27.79 27.7 29.88 23.97 30.91C23.9 30.93 23.83 30.96 23.71 31C23.71 31.16 23.72 31.33 23.71 31.5C23.68 32.3 23.04 32.97 22.25 32.98C20.75 33.01 19.25 33.01 17.74 32.98C16.97 32.97 16.33 32.31 16.29 31.53C16.27 31.19 16.28 30.86 16.29 30.52C16.33 29.67 16.97 29.03 17.83 29.01C18.64 29 19.44 29 20.26 29.01C23.44 29.02 26.2 27.91 28.63 25.9C30.28 24.53 31.54 22.85 32.31 20.85C32.63 20 32.72 19.05 32.89 18.15C33.03 17.36 33.14 16.55 33.25 15.75C33.53 13.97 33.05 12.3 32.39 10.69C30.16 5.23 24.82 1.94 18.94 2.37C12.72 2.81 7.52 7.81 6.75 14C6.6 15.25 6.93 16.42 7.07 17.63C7.28 19.28 7.57 20.91 7.8 22.56C7.96 23.64 7.64 24.16 6.59 24.48C6.15 24.61 5.7 24.73 5.25 24.79C3.79 24.98 2.64 24.35 1.82 23.22C-0.27 20.35 -0.54 17.23 0.87 14.01C1.48 12.6 2.65 11.68 4.18 11.34C4.39 11.29 4.63 11.29 4.77 11.28Z" fill="#A5BDF4" fill-opacity="1.000000" fill-rule="nonzero"/>
</svg>
