<svg width="27.274902" height="46.599243" viewBox="0 0 27.2749 46.5992" fill="none" xmlns="http://www.w3.org/2000/svg" xmlns:xlink="http://www.w3.org/1999/xlink">
	<desc>
			Created with Pixso.
	</desc>
	<defs/>
	<path id="Vector" d="M15.6 0.01C16.56 0.37 16.91 1.09 16.85 2.07C16.82 2.63 16.88 3.2 16.83 3.75C16.8 4.1 16.65 4.44 16.55 4.78C16.5 4.77 16.46 4.76 16.41 4.74C16.43 4.77 16.44 4.8 16.46 4.8C17.48 4.87 17.63 5.02 17.63 6.04C17.63 9.78 17.63 13.53 17.63 17.27C17.63 18.25 17.42 18.46 16.43 18.46C14.51 18.46 12.58 18.46 10.66 18.46C9.87 18.46 9.6 18.19 9.6 17.39C9.6 13.65 9.6 9.91 9.6 6.17C9.6 5.02 9.72 4.88 10.9 4.79C10.43 4.5 10.39 4.09 10.4 3.63C10.41 2.98 10.4 2.33 10.4 1.61C10.12 1.61 9.87 1.61 9.61 1.61C8.53 1.61 7.46 1.6 6.38 1.61C5.47 1.62 4.88 2.22 4.79 3.17C4.95 3.2 5.11 3.24 5.27 3.29C5.96 3.51 6.38 4.14 6.38 4.97C6.38 7.82 6.38 10.67 6.38 13.51C6.38 14.53 6.38 15.54 6.38 16.56C6.38 17.7 5.95 18.25 4.79 18.48C4.68 19.21 4.82 19.85 5.33 20.45C6.41 21.7 7.44 22.98 8.56 24.31C7.91 24.4 7.34 24.48 6.77 24.54C6.69 24.55 6.56 24.43 6.49 24.35C5.62 23.3 4.74 22.26 3.88 21.2C3.42 20.64 3.19 20 3.18 19.28C3.18 19.03 3.18 18.77 3.08 18.6C2.68 18.34 2.22 18.12 1.9 17.78C1.69 17.56 1.58 17.14 1.58 16.82C1.56 12.82 1.57 8.81 1.57 4.82C1.57 4.02 2.05 3.44 2.82 3.25C3.02 3.2 3.16 3.17 3.2 2.9C3.39 1.39 4.23 0.46 5.69 0.07C5.75 0.06 5.8 0.02 5.85 0C9.12 0.01 12.36 0.01 15.6 0.01ZM12.07 1.65C12.07 2.19 12.07 2.68 12.07 3.19C13.14 3.19 14.17 3.19 15.2 3.19C15.2 2.65 15.2 2.16 15.2 1.65C14.14 1.65 13.12 1.65 12.07 1.65Z" fill="#A5BDF4" fill-opacity="1.000000" fill-rule="nonzero"/>
	<path id="Vector" d="M1.6 30.49C9.64 32.69 17.63 32.69 25.68 30.49C25.68 30.6 25.68 30.75 25.68 30.89C25.68 34.64 25.67 38.38 25.69 42.12C25.69 42.91 25.41 43.48 24.77 43.93C23.27 45.01 21.56 45.63 19.77 45.98C15.35 46.84 10.93 46.83 6.53 45.74C5.1 45.38 3.75 44.8 2.53 43.95C1.89 43.49 1.58 42.93 1.58 42.12C1.61 38.39 1.6 34.66 1.6 30.94C1.6 30.76 1.6 30.6 1.6 30.49ZM7.22 34.53C7.22 34.23 7.23 34.03 7.22 33.81C7.2 33.25 6.88 32.91 6.41 32.91C5.93 32.91 5.62 33.26 5.62 33.82C5.62 36.95 5.62 40.09 5.62 43.22C5.62 43.78 5.93 44.12 6.42 44.12C6.89 44.12 7.21 43.78 7.23 43.22C7.25 43 7.23 42.78 7.23 42.53C7.75 42.53 8.2 42.53 8.65 42.53C9.27 42.52 9.64 42.21 9.63 41.7C9.61 41.22 9.26 40.93 8.65 40.93C8.19 40.93 7.73 40.93 7.26 40.93C7.26 40.37 7.26 39.87 7.26 39.32C7.75 39.32 8.24 39.34 8.73 39.32C9.3 39.31 9.63 39.01 9.63 38.52C9.63 38.04 9.29 37.74 8.71 37.73C8.24 37.73 7.75 37.73 7.27 37.73C7.27 37.17 7.27 36.66 7.27 36.12C7.78 36.12 8.27 36.13 8.75 36.12C9.29 36.1 9.61 35.81 9.63 35.34C9.64 34.85 9.3 34.54 8.74 34.53C8.24 34.51 7.75 34.53 7.22 34.53ZM12.82 35.32C12.82 34.87 12.46 34.51 12.01 34.53C11.57 34.54 11.24 34.87 11.23 35.3C11.22 35.75 11.56 36.1 12.02 36.12C12.48 36.12 12.82 35.76 12.82 35.32ZM12.82 38.52C12.83 38.07 12.48 37.72 12.03 37.72C11.59 37.72 11.25 38.05 11.24 38.49C11.22 38.95 11.56 39.3 12.01 39.31C12.46 39.32 12.81 38.98 12.82 38.52ZM12.82 41.72C12.82 41.27 12.46 40.91 12.01 40.91C11.58 40.93 11.24 41.28 11.23 41.7C11.22 42.15 11.58 42.52 12.02 42.53C12.47 42.54 12.82 42.18 12.82 41.72Z" fill="#A5BDF4" fill-opacity="1.000000" fill-rule="nonzero"/>
	<path id="Vector" d="M1.57 25.91C1.95 26.86 2.68 27.25 3.45 27.57C4.85 28.12 6.33 28.37 7.83 28.55C11.12 28.95 14.41 29 17.71 28.73C19.62 28.57 21.5 28.36 23.34 27.75C23.67 27.64 23.99 27.51 24.3 27.35C24.89 27.06 25.41 26.67 25.68 25.88C26.18 26.24 26.65 26.56 27.08 26.91C27.33 27.13 27.33 27.44 27.08 27.68C26.73 27.98 26.35 28.28 25.95 28.49C24.24 29.36 22.38 29.73 20.51 30.01C16.62 30.6 12.72 30.65 8.82 30.27C6.44 30.04 4.07 29.68 1.85 28.74C1.35 28.54 0.88 28.26 0.44 27.94C-0.15 27.51 -0.15 27.13 0.43 26.68C0.77 26.39 1.16 26.18 1.57 25.91Z" fill="#A5BDF4" fill-opacity="1.000000" fill-rule="nonzero"/>
	<path id="Vector" d="M3.31 25.61C3.69 25.45 4.05 25.28 4.43 25.15C4.83 25.02 5.25 24.95 5.64 24.81C6.36 24.55 6.92 24.6 7.35 25.33C7.58 25.72 8.06 25.77 8.4 25.56C8.78 25.34 8.86 25 8.67 24.32C9.5 24.25 10.32 24.19 11.17 24.12C11.22 24.27 11.25 24.42 11.3 24.55C11.53 25.2 11.97 25.6 12.66 25.65C13.29 25.68 13.94 25.68 14.57 25.65C15.26 25.61 15.78 25.15 15.98 24.48C16.01 24.37 16.04 24.25 16.09 24.1C18.77 24.32 21.47 24.43 23.96 25.59C23.97 25.65 23.98 25.72 23.98 25.78C23.31 26 22.67 26.27 21.99 26.44C18.8 27.2 15.55 27.32 12.3 27.25C9.81 27.19 7.34 27 4.92 26.34C4.38 26.19 3.86 25.96 3.32 25.78C3.31 25.74 3.31 25.68 3.31 25.61Z" fill="#A5BDF4" fill-opacity="1.000000" fill-rule="nonzero"/>
	<path id="Vector" d="M23.24 16.17C21.9 16.37 20.62 16.55 19.28 16.74C19.28 15.76 19.28 14.8 19.28 13.79C20.62 13.99 21.93 14.17 23.24 14.35C23.24 14.97 23.24 15.54 23.24 16.17Z" fill="#A5BDF4" fill-opacity="1.000000" fill-rule="nonzero"/>
	<path id="Vector" d="M12.87 20.1C13.38 20.1 13.88 20.1 14.4 20.1C14.4 21.42 14.4 22.72 14.4 24.06C13.9 24.06 13.4 24.06 12.87 24.06C12.87 22.76 12.87 21.46 12.87 20.1Z" fill="#A5BDF4" fill-opacity="1.000000" fill-rule="nonzero"/>
</svg>
