<svg width="242.000000" height="144.000000" viewBox="0 0 242 144" fill="none" xmlns="http://www.w3.org/2000/svg" xmlns:xlink="http://www.w3.org/1999/xlink">
	<desc>
			Created with Pixso.
	</desc>
	<defs/>
	<path d="M159.46 4.66C160.63 4.27 171.3 6.41 173.63 6.21C173.82 5.63 174.21 4.85 174.6 4.66L145.88 0.58C145.3 2.52 144.71 4.46 144.13 6.41C143.55 8.35 142.77 10.29 141.8 12.23L120.07 63.9L119.88 63.9L96.59 12.23C95.62 10.1 94.65 8.15 93.88 6.21C93.1 4.46 92.52 2.52 91.94 0.58L63.99 5.24C64.38 5.63 64.77 6.41 64.77 7.18C68.84 6.79 77.38 4.46 78.55 4.66C80.1 5.05 81.07 5.05 81.65 6.41C82.23 7.77 82.43 9.51 82.23 12.23L79.52 66.43C79.52 69.34 78.74 71.48 77.58 73.03C76.41 74.59 74.28 75.37 71.17 75.56L71.17 78.28L96.01 78.28L96.01 75.56C91.35 75.37 88.25 74.59 86.89 73.03C85.53 71.48 84.76 69.34 84.95 66.43L87.28 16.51L87.47 16.51L109.79 66.04C111.34 69.34 112.5 71.87 113.28 73.62C114.06 75.37 114.83 77.31 115.41 79.06L120.27 79.06C120.65 77.31 121.24 75.56 122.01 73.62C122.79 71.67 123.76 69.34 125.12 66.04L146.46 15.73L146.65 15.73L148.79 66.62C148.98 69.34 148.79 71.29 148.4 72.45C148.01 73.62 147.24 74.39 146.07 74.78C144.91 75.17 143.55 75.37 141.61 75.56L141.61 78.28L168.58 78.28L168.58 75.56C166.06 75.37 163.92 75.17 162.57 74.78C161.21 74.39 160.24 73.62 159.65 72.45C159.07 71.29 158.68 69.34 158.68 66.62L156.16 12.43C156.16 9.71 156.36 7.77 156.74 6.6C157.13 5.43 158.3 5.05 159.46 4.66Z" fill="#0D1E3A" fill-opacity="1.000000" fill-rule="nonzero"/>
	<path d="M119.68 4.66C114.83 1.55 108.23 0 100.28 0C98.73 0 96.59 1.52e-5 94.26 0.19L94.26 1.16C94.65 2.33 95.04 3.3 95.23 4.46C95.82 4.46 96.59 4.27 97.17 4.27C100.47 4.27 103.38 4.66 106.29 5.43C109.21 6.21 111.34 7.77 113.09 9.71C114.83 11.84 115.8 14.95 115.8 18.84C115.8 21.95 115.03 25.05 113.67 27.77C112.5 29.91 110.56 31.85 108.23 33.21L110.37 37.87C113.86 36.9 116.77 35.54 119.1 33.8C121.82 31.66 123.95 29.33 125.12 26.41C126.47 23.69 127.06 20.97 127.06 18.06C127.06 12.23 124.73 7.77 119.68 4.66Z" fill="#0D1E3A" fill-opacity="1.000000" fill-rule="nonzero"/>
	<path d="M96.2 39.43C93.68 39.43 90.77 39.43 87.86 39.04L87.86 35.54C90.38 35.74 92.52 35.74 94.65 35.74L96.2 39.43Z" fill="#0D1E3A" fill-opacity="1.000000" fill-rule="nonzero"/>
	<path d="M71.95 53.03L71.76 53.8C70.59 57.3 68.84 60.21 66.71 61.96C65.16 63.13 63.8 63.71 61.67 63.9C57.59 64.1 54.29 62.16 51.96 57.88C51.38 56.72 50.61 54.97 50.22 53.8L50.02 53.03L50.22 52.83C50.41 52.64 50.61 52.06 51.96 44.87C52.93 40.59 55.07 30.1 56.81 21.56C57.78 17.28 58.56 13.2 59.14 10.29C59.34 10.48 59.34 10.48 59.53 10.48C57.01 22.53 50.8 52.25 50.8 52.44C50.8 52.64 60.7 52.83 60.7 52.44C60.7 52.25 60.7 46.81 60.7 29.13C60.7 20 60.7 14.37 60.7 11.07C60.7 11.07 60.7 11.07 60.89 11.07L61.08 11.07C61.08 15.34 61.08 21.95 61.08 29.33C61.08 47.2 61.08 52.44 61.08 52.64C61.08 52.83 70.98 52.83 70.98 52.64C70.98 52.44 69.81 46.81 68.46 40.21C67.1 33.41 64.96 22.92 63.61 17.09C63.22 14.76 62.64 12.62 62.25 10.68C62.44 10.68 62.44 10.48 62.64 10.48C63.61 14.76 64.96 21.75 66.52 29.52C71.17 50.89 71.56 52.83 71.95 53.03Z" fill="#0D1E3A" fill-opacity="1.000000" fill-rule="nonzero"/>
	<path d="M61.08 4.66C59.53 4.66 58.37 5.82 58.37 7.38C58.37 8.93 59.53 10.1 61.08 10.1C62.64 10.1 63.8 8.93 63.8 7.38C63.8 5.82 62.64 4.66 61.08 4.66ZM61.08 8.35C60.5 8.35 59.92 7.96 59.92 7.38C59.92 6.79 60.31 6.21 61.08 6.21C61.67 6.21 62.25 6.6 62.25 7.38C62.05 7.96 61.67 8.35 61.08 8.35Z" fill="#0D1E3A" fill-opacity="1.000000" fill-rule="nonzero"/>
	<path d="M188.37 53.03L188.18 53.8C187.01 57.3 185.27 60.21 183.13 61.96C181.58 63.13 180.22 63.71 178.09 63.9C174.01 64.1 170.72 62.16 168.39 57.88C167.8 56.72 167.03 54.97 166.64 53.8L166.45 53.03L166.64 52.83C166.83 52.64 167.03 52.06 168.39 44.87C169.36 40.59 171.49 30.1 173.24 21.56C174.21 17.28 174.98 13.2 175.57 10.29C175.76 10.48 175.76 10.48 175.95 10.48C173.43 22.53 167.22 52.25 167.22 52.44C167.22 52.64 177.12 52.83 177.12 52.44C177.12 52.25 177.12 46.81 177.12 29.13C177.12 20 177.12 14.37 177.12 11.07C177.12 11.07 177.12 11.07 177.31 11.07L177.51 11.07C177.51 15.34 177.51 21.95 177.51 29.33C177.51 47.2 177.51 52.44 177.51 52.64C177.51 52.83 187.4 52.83 187.4 52.64C187.4 52.44 186.24 46.81 184.88 40.21C183.52 33.41 181.39 22.92 180.03 17.09C179.64 14.76 179.06 12.62 178.67 10.68C178.86 10.68 178.86 10.48 179.06 10.48C180.03 14.76 181.39 21.75 182.94 29.52C187.6 50.89 187.98 52.83 188.37 53.03Z" fill="#0D1E3A" fill-opacity="1.000000" fill-rule="nonzero"/>
	<path d="M177.51 4.66C175.95 4.66 174.79 5.82 174.79 7.38C174.79 8.93 175.95 10.1 177.51 10.1C179.06 10.1 180.22 8.93 180.22 7.38C180.22 5.82 179.06 4.66 177.51 4.66ZM177.51 8.35C176.92 8.35 176.34 7.96 176.34 7.38C176.34 6.79 176.73 6.21 177.51 6.21C178.09 6.21 178.67 6.6 178.67 7.38C178.48 7.96 178.09 8.35 177.51 8.35Z" fill="#0D1E3A" fill-opacity="1.000000" fill-rule="nonzero"/>
	<path d="M10.05 118.68C9.86 118.3 9.66 117.91 9.47 117.33C9.28 116.94 9.08 116.35 8.69 115.58L3.45 103.92L2.87 115.58C2.87 116.16 3.07 116.74 3.26 117.13C3.65 117.52 4.23 117.71 5.39 117.71L5.39 118.3L-0.43 118.3L-0.43 117.71C0.35 117.71 0.74 117.52 1.13 117.13C1.32 116.74 1.51 116.35 1.51 115.58L2.1 102.95C2.1 102.37 2.1 101.78 1.9 101.59C1.71 101.4 1.51 101.2 1.13 101.01C0.74 101.01 0.35 100.81 -0.43 100.81L-0.43 100.23L4.23 100.23C4.42 100.62 4.62 101.2 4.62 101.59C4.62 101.98 5.01 102.56 5.2 102.95L10.63 114.99L15.68 102.95C15.87 102.56 16.07 101.98 16.26 101.59C16.45 101.2 16.65 100.62 16.65 100.23L20.92 100.23L20.92 100.81C20.34 100.81 19.95 100.81 19.75 101.01C19.56 101.01 19.37 101.2 19.17 101.59C18.98 101.98 18.98 102.37 18.98 102.95L19.56 115.58C19.56 116.16 19.75 116.74 19.75 116.94C19.75 117.13 20.14 117.33 20.53 117.52C20.92 117.52 21.31 117.71 21.89 117.71L21.89 118.3L15.68 118.3L15.68 117.71C16.07 117.71 16.45 117.71 16.65 117.52C16.84 117.52 17.04 117.33 17.23 116.94C17.42 116.55 17.42 116.16 17.23 115.58L16.65 103.73L11.6 115.38C11.22 116.16 11.02 116.74 10.83 117.13C10.63 117.52 10.44 117.91 10.44 118.49L10.05 118.49L10.05 118.68Z" fill="#0D1E3A" fill-opacity="1.000000" fill-rule="nonzero"/>
	<path d="M40.9 115.58C41.1 116.16 41.29 116.74 41.49 116.94C41.68 117.13 41.87 117.33 42.26 117.52C42.65 117.71 42.84 117.71 43.43 117.71L43.43 118.3L37.02 118.3L37.02 117.71C37.6 117.71 38.19 117.52 38.38 117.52C38.77 117.52 38.77 117.33 38.96 116.94C38.96 116.74 38.96 116.16 38.77 115.58L37.22 110.91C37.22 110.91 37.02 111.11 36.83 111.11C36.63 111.11 36.44 111.11 36.25 111.11L32.75 111.11C32.37 111.11 31.98 111.11 31.78 111.3C31.59 111.5 31.4 111.69 31.2 112.08L29.84 115.58C29.65 116.35 29.65 116.74 29.84 117.13C30.04 117.52 30.81 117.71 31.98 117.71L31.98 118.3L26.35 118.3L26.35 117.71C26.93 117.71 27.32 117.52 27.71 117.13C28.1 116.74 28.29 116.35 28.68 115.58L33.53 102.37C33.72 101.98 33.92 101.4 34.11 101.01C34.31 100.62 34.5 100.04 34.5 99.65L35.86 99.65C36.05 100.04 36.05 100.62 36.25 101.01C36.44 101.4 36.63 101.98 36.83 102.37L40.9 115.58ZM36.05 110.14C36.25 110.14 36.44 110.14 36.63 110.14C36.63 110.14 36.63 109.94 36.63 109.75L34.5 103.14L31.98 110.33C31.98 110.33 32.17 110.33 32.37 110.33C32.56 110.33 32.56 110.33 32.75 110.33L36.05 110.33L36.05 110.14Z" fill="#0D1E3A" fill-opacity="1.000000" fill-rule="nonzero"/>
	<path d="M47.89 118.3L47.89 117.71C48.47 117.71 48.86 117.71 49.05 117.52C49.25 117.52 49.44 117.33 49.64 116.94C49.83 116.74 49.83 116.16 49.83 115.58L49.83 102.95C49.83 102.37 49.83 101.78 49.64 101.59C49.44 101.4 49.25 101.2 48.86 101.01C48.47 101.01 47.89 100.81 47.31 100.81L47.31 100.23L49.83 100.23C50.99 100.23 52.16 100.23 52.74 100.23C53.52 100.23 54.1 100.23 54.68 100.23C56.62 100.23 58.17 100.62 59.14 101.4C60.31 102.17 60.89 103.14 60.89 104.5C60.89 105.09 60.7 105.86 60.5 106.45C60.11 107.03 59.73 107.61 59.14 108.2C58.56 108.78 57.59 108.97 56.62 109.36C55.65 109.55 54.29 109.75 52.74 109.55L52.74 108.78C54.1 108.97 55.26 108.78 56.23 108.39C57.01 108 57.59 107.61 57.98 106.84C58.37 106.25 58.56 105.48 58.56 104.7C58.56 103.73 58.37 103.14 57.98 102.56C57.59 101.98 57.01 101.78 56.43 101.59C55.84 101.4 55.07 101.4 54.29 101.4C53.71 101.4 53.13 101.59 52.93 101.78C52.74 101.98 52.55 102.56 52.55 103.34L52.55 115.97C52.55 116.55 52.55 117.13 52.74 117.33C52.93 117.52 53.13 117.71 53.52 117.91C53.9 117.91 54.49 118.1 55.26 118.1L55.26 118.68L47.89 118.68L47.89 118.3Z" fill="#0D1E3A" fill-opacity="1.000000" fill-rule="nonzero"/>
	<path d="M81.65 118.49C80.68 118.49 79.71 118.3 79.32 117.91C78.74 117.52 78.16 116.94 77.77 116.35L72.14 109.36C71.95 109.17 71.76 108.78 71.56 108.78C71.37 108.58 71.37 108.58 71.17 108.58C70.98 108.58 70.98 108.58 70.79 108.78C70.59 108.97 70.59 109.17 70.59 109.36L70.59 115.58C70.59 116.16 70.59 116.74 70.79 116.94C70.98 117.13 71.17 117.33 71.56 117.52C71.95 117.52 72.53 117.71 73.11 117.71L73.11 118.3L66.32 118.3L66.32 117.71C66.9 117.71 67.29 117.71 67.49 117.52C67.68 117.52 67.87 117.33 68.07 116.94C68.26 116.74 68.26 116.16 68.26 115.58L68.26 102.95C68.26 102.37 68.26 101.78 68.07 101.59C67.87 101.4 67.68 101.2 67.29 101.01C66.9 101.01 66.32 100.81 65.74 100.81L65.74 100.23L72.53 100.23L72.53 100.81C71.95 100.81 71.76 100.81 71.37 101.01C71.17 101.01 70.98 101.2 70.79 101.59C70.59 101.78 70.59 102.37 70.59 102.95L70.59 107.42L76.41 102.76C76.8 102.37 77.19 102.17 77.19 101.98C77.38 101.78 77.38 101.59 77.38 101.4C77.38 101.2 77.19 101.01 76.99 101.01C76.8 100.81 76.41 100.81 75.83 100.81L75.83 100.23L81.46 100.23L81.46 100.81C80.88 100.81 80.49 101.01 79.9 101.2C79.52 101.4 78.93 101.78 78.35 102.17L73.11 106.45C72.92 106.64 72.92 107.03 73.11 107.42L79.52 115.58C80.1 116.16 80.49 116.74 80.68 116.94C81.07 117.33 81.26 117.52 81.65 117.52C82.04 117.71 82.23 117.71 82.62 117.71L82.62 118.3C82.82 118.49 82.23 118.49 81.65 118.49Z" fill="#0D1E3A" fill-opacity="1.000000" fill-rule="nonzero"/>
	<path d="M88.05 118.3L88.05 117.71C88.64 117.71 89.02 117.71 89.22 117.52C89.41 117.52 89.61 117.33 89.8 116.94C89.99 116.74 89.99 116.16 89.99 115.58L89.99 102.95C89.99 102.37 89.99 101.78 89.8 101.59C89.61 101.4 89.41 101.2 89.02 101.01C88.64 101.01 88.05 100.81 87.47 100.81L87.47 100.23L94.26 100.23L94.26 100.81C93.68 100.81 93.49 100.81 93.1 101.01C92.91 101.01 92.71 101.2 92.52 101.59C92.32 101.78 92.32 102.37 92.32 102.95L92.32 115.58C92.32 116.16 92.32 116.74 92.52 116.94C92.71 117.13 92.91 117.33 93.29 117.52C93.68 117.52 94.26 117.71 94.85 117.71L94.85 118.3L88.05 118.3Z" fill="#0D1E3A" fill-opacity="1.000000" fill-rule="nonzero"/>
	<path d="M100.09 100.23L114.64 100.23L114.64 104.5L114.06 104.5C114.06 103.92 113.86 103.34 113.67 102.76C113.47 102.17 113.28 101.78 112.7 101.59C112.12 101.4 111.53 101.2 110.56 101.2L108.23 101.2L108.23 115.58C108.23 116.16 108.23 116.74 108.43 116.94C108.62 117.13 108.82 117.33 109.21 117.52C109.59 117.52 110.18 117.71 110.76 117.71L110.76 118.3L104.35 118.3L104.35 117.71C104.94 117.71 105.32 117.71 105.52 117.52C105.71 117.52 105.91 117.33 106.1 116.94C106.29 116.55 106.29 116.16 106.29 115.58L106.29 101.2L103.97 101.2C103 101.2 102.41 101.4 101.83 101.59C101.25 101.78 101.06 102.17 100.86 102.76C100.67 103.34 100.67 103.73 100.47 104.5L99.89 104.5L99.89 100.23L100.09 100.23Z" fill="#0D1E3A" fill-opacity="1.000000" fill-rule="nonzero"/>
	<path d="M133.27 115.58C133.46 116.16 133.65 116.74 133.85 116.94C134.04 117.13 134.24 117.33 134.62 117.52C135.01 117.71 135.21 117.71 135.79 117.71L135.79 118.3L129.38 118.3L129.38 117.71C129.97 117.71 130.55 117.52 130.74 117.52C131.13 117.52 131.13 117.33 131.33 116.94C131.33 116.74 131.33 116.16 131.13 115.58L129.58 110.91C129.58 110.91 129.38 111.11 129.19 111.11C129 111.11 128.8 111.11 128.61 111.11L125.12 111.11C124.73 111.11 124.34 111.11 124.15 111.3C123.95 111.5 123.76 111.69 123.56 112.08L122.21 115.58C122.01 116.35 122.01 116.74 122.21 117.13C122.4 117.52 123.18 117.71 124.34 117.71L124.34 118.3L118.71 118.3L118.71 117.71C119.3 117.71 119.68 117.52 120.07 117.13C120.46 116.74 120.65 116.35 121.04 115.58L125.89 102.37C126.09 101.98 126.28 101.4 126.47 101.01C126.67 100.62 126.86 100.04 126.86 99.65L128.22 99.65C128.41 100.04 128.41 100.62 128.61 101.01C128.8 101.4 129 101.98 129.19 102.37L133.27 115.58ZM128.41 110.14C128.61 110.14 128.8 110.14 129 110.14C129 110.14 129 109.94 129 109.75L126.86 103.14L124.34 110.33C124.34 110.33 124.53 110.33 124.73 110.33C124.92 110.33 124.92 110.33 125.12 110.33L128.41 110.33L128.41 110.14Z" fill="#0D1E3A" fill-opacity="1.000000" fill-rule="nonzero"/>
	<path d="M140.25 118.3L140.25 117.71C140.83 117.71 141.22 117.71 141.42 117.52C141.61 117.52 141.8 117.33 142 116.94C142.19 116.74 142.19 116.16 142.19 115.58L142.19 102.95C142.19 102.37 142.19 101.78 142 101.59C141.8 101.4 141.61 101.2 141.22 101.01C140.83 101.01 140.25 100.81 139.67 100.81L139.67 100.23L146.46 100.23L146.46 100.81C145.88 100.81 145.68 100.81 145.3 101.01C145.1 101.01 144.91 101.2 144.71 101.59C144.52 101.78 144.52 102.37 144.52 102.95L144.52 107.81C144.71 107.61 144.91 107.61 145.1 107.61C145.3 107.61 145.49 107.61 145.88 107.61L153.06 107.61C153.64 107.61 153.83 107.61 154.03 107.42C154.22 107.22 154.42 106.84 154.42 106.45L154.42 102.95C154.42 102.37 154.42 101.78 154.22 101.59C154.03 101.4 153.83 101.2 153.45 101.01C153.06 101.01 152.48 100.81 151.89 100.81L151.89 100.23L158.68 100.23L158.68 100.81C158.1 100.81 157.91 100.81 157.52 101.01C157.33 101.01 157.13 101.2 156.94 101.59C156.74 101.78 156.74 102.37 156.74 102.95L156.74 115.58C156.74 116.16 156.74 116.74 156.94 116.94C157.13 117.13 157.33 117.33 157.71 117.52C158.1 117.52 158.68 117.71 159.27 117.71L159.27 118.3L152.48 118.3L152.48 117.71C153.06 117.71 153.45 117.71 153.64 117.52C153.83 117.52 154.03 117.33 154.22 116.94C154.42 116.74 154.42 116.16 154.42 115.58L154.42 108.2C154.22 108.39 154.03 108.39 153.83 108.39C153.64 108.39 153.45 108.39 153.06 108.39L145.88 108.39C145.3 108.39 145.1 108.39 144.91 108.58C144.71 108.78 144.52 108.97 144.52 109.55L144.52 115.58C144.52 116.16 144.52 116.74 144.71 116.94C144.91 117.13 145.1 117.33 145.49 117.52C145.88 117.52 146.46 117.71 147.04 117.71L147.04 118.3L140.25 118.3Z" fill="#0D1E3A" fill-opacity="1.000000" fill-rule="nonzero"/>
	<path d="M175.57 118.3L175.57 117.71C176.15 117.71 176.54 117.71 176.73 117.52C176.92 117.52 177.12 117.33 177.31 116.94C177.51 116.55 177.51 116.16 177.51 115.58L177.51 102.95C177.51 102.37 177.51 101.78 177.31 101.59C177.12 101.4 176.92 101.2 176.54 101.01C176.15 101.01 175.57 100.81 174.98 100.81L174.98 100.23L177.51 100.23C178.67 100.23 179.64 100.23 180.42 100.23C181.19 100.23 181.78 100.23 182.36 100.23C184.3 100.23 185.85 100.62 186.82 101.4C187.98 102.17 188.57 103.14 188.57 104.5C188.57 105.09 188.37 105.86 188.18 106.45C187.79 107.03 187.4 107.61 186.82 108.2C186.24 108.78 185.27 108.97 184.3 109.36C183.33 109.75 181.97 109.75 180.42 109.55L180.42 108.78C181.78 108.97 182.94 108.78 183.91 108.39C184.69 108 185.27 107.61 185.66 106.84C186.04 106.06 186.24 105.48 186.24 104.7C186.24 103.73 186.04 103.14 185.66 102.56C185.27 101.98 184.69 101.78 184.1 101.59C183.52 101.4 182.75 101.4 181.97 101.4C181.39 101.4 180.8 101.59 180.61 101.78C180.22 101.98 180.22 102.56 180.22 103.34L180.22 115.97C180.22 116.55 180.22 117.13 180.42 117.33C180.61 117.52 180.8 117.71 181.19 117.91C181.58 117.91 182.16 118.1 182.94 118.1L182.94 118.68L175.57 118.68L175.57 118.3Z" fill="#0D1E3A" fill-opacity="1.000000" fill-rule="nonzero"/>
	<path d="M194.19 118.3L194.19 117.71C194.78 117.71 195.16 117.71 195.36 117.52C195.55 117.52 195.75 117.33 195.94 116.94C196.13 116.74 196.13 116.16 196.13 115.58L196.13 102.95C196.13 102.37 196.13 101.78 195.94 101.59C195.75 101.4 195.55 101.2 195.16 101.01C194.78 101.01 194.19 100.81 193.61 100.81L193.61 100.23L200.4 100.23L200.4 100.81C199.82 100.81 199.63 100.81 199.24 101.01C199.04 101.01 198.85 101.2 198.66 101.59C198.46 101.78 198.46 102.37 198.46 102.95L198.46 115.58C198.46 116.16 198.46 116.74 198.66 116.94C198.85 117.13 199.04 117.33 199.43 117.52C199.82 117.52 200.4 117.71 200.98 117.71L200.98 118.3L194.19 118.3Z" fill="#0D1E3A" fill-opacity="1.000000" fill-rule="nonzero"/>
	<path d="M206.22 100.23L220.78 100.23L220.78 104.5L220.19 104.5C220.19 103.92 220 103.34 219.81 102.76C219.61 102.17 219.42 101.78 218.84 101.59C218.25 101.4 217.67 101.2 216.7 101.2L214.37 101.2L214.37 115.58C214.37 116.16 214.37 116.74 214.57 116.94C214.76 117.13 214.96 117.33 215.34 117.52C215.73 117.52 216.31 117.71 216.9 117.71L216.9 118.3L210.1 118.3L210.1 117.71C210.69 117.71 211.07 117.71 211.27 117.52C211.46 117.52 211.66 117.33 211.85 116.94C212.04 116.55 212.04 116.16 212.04 115.58L212.04 101.2L209.72 101.2C208.75 101.2 208.16 101.4 207.78 101.59C207.39 101.78 207 102.17 206.81 102.76C206.61 103.34 206.61 103.73 206.42 104.5L205.84 104.5L205.84 100.23L206.22 100.23Z" fill="#0D1E3A" fill-opacity="1.000000" fill-rule="nonzero"/>
	<path d="M239.4 115.58C239.6 116.16 239.79 116.74 239.99 116.94C240.18 117.13 240.37 117.33 240.76 117.52C241.15 117.71 241.34 117.71 241.93 117.71L241.93 118.3L235.52 118.3L235.52 117.71C236.11 117.71 236.69 117.52 236.88 117.52C237.27 117.52 237.27 117.33 237.46 116.94C237.66 116.55 237.46 116.16 237.27 115.58L235.72 110.91C235.72 110.91 235.52 111.11 235.33 111.11C235.14 111.11 234.94 111.11 234.75 111.11L231.25 111.11C230.87 111.11 230.48 111.11 230.28 111.3C230.09 111.5 229.9 111.69 229.7 112.08L228.34 115.58C228.15 116.35 228.15 116.74 228.34 117.13C228.54 117.52 229.31 117.71 230.48 117.71L230.48 118.3L224.66 118.3L224.66 117.71C225.24 117.71 225.63 117.52 226.02 117.13C226.4 116.74 226.6 116.35 226.99 115.58L231.84 102.37C232.03 101.98 232.22 101.4 232.42 101.01C232.61 100.62 232.81 100.04 232.81 99.65L234.17 99.65C234.36 100.04 234.36 100.62 234.55 101.01C234.75 101.4 234.94 101.98 235.14 102.37L239.4 115.58ZM234.55 110.14C234.75 110.14 234.94 110.14 235.14 110.14C235.14 110.14 235.14 109.94 235.14 109.75L233 103.14L230.48 110.33C230.48 110.33 230.67 110.33 230.87 110.33C231.06 110.33 231.06 110.33 231.25 110.33L234.55 110.33L234.55 110.14Z" fill="#0D1E3A" fill-opacity="1.000000" fill-rule="nonzero"/>
	<path d="M106.04 129.8L105.79 129.68Q105.54 130.28 105.21 130.6Q105.05 130.75 104.85 130.83Q104.65 130.91 104.43 130.91Q104.13 130.91 103.92 130.77Q103.84 130.72 103.77 130.64Q103.53 130.38 103.5 129.75Q103.22 129.76 102.98 129.8Q102.75 129.84 102.52 129.94Q102.62 130.89 103.07 131.26Q103.33 131.47 103.62 131.56Q103.84 131.62 104.08 131.62Q104.24 131.62 104.4 131.6Q104.87 131.51 105.3 131.17Q105.33 131.15 105.36 131.13Q105.88 130.68 106.04 129.8ZM141.18 129.8L140.93 129.68Q140.68 130.28 140.35 130.6Q140.19 130.75 139.99 130.83Q139.79 130.91 139.57 130.91Q139.27 130.91 139.06 130.77Q138.98 130.72 138.91 130.64Q138.67 130.38 138.64 129.75Q138.36 129.76 138.12 129.8Q137.89 129.84 137.66 129.94Q137.76 130.89 138.21 131.26Q138.46 131.47 138.76 131.56Q138.98 131.62 139.21 131.62Q139.38 131.62 139.53 131.6Q140.01 131.51 140.44 131.17Q140.47 131.15 140.49 131.13Q141.02 130.68 141.18 129.8ZM40.48 140.35Q40.34 140.15 40.18 139.69L38.06 133.38Q37.93 133.04 37.82 132.71Q37.71 132.39 37.62 132.05L36.98 132.05Q36.89 132.39 36.77 132.71Q36.66 133.04 36.53 133.38L34.23 139.69Q34.05 140.19 33.8 140.43Q33.77 140.46 33.74 140.49Q33.51 140.67 33.15 140.7L33.15 141L35.84 141L35.84 140.7Q35.01 140.67 34.83 140.43Q34.65 140.19 34.83 139.69L35.44 137.98Q35.54 137.69 35.68 137.63Q35.83 137.56 36.11 137.56L37.82 137.56Q37.96 137.56 38.09 137.55Q38.22 137.52 38.28 137.46L39.02 139.69Q39.18 140.13 39.15 140.34Q39.14 140.42 39.09 140.49Q39.03 140.57 38.91 140.61Q38.7 140.67 38.26 140.7L38.26 141L41.36 141L41.36 140.7Q41.02 140.67 40.82 140.61Q40.79 140.61 40.77 140.6Q40.6 140.53 40.48 140.35ZM81.53 140.35Q81.39 140.15 81.23 139.69L79.11 133.38Q78.99 133.04 78.88 132.71Q78.76 132.39 78.67 132.05L78.04 132.05Q77.95 132.39 77.83 132.71Q77.71 133.04 77.58 133.38L75.28 139.69Q75.1 140.19 74.86 140.43Q74.83 140.46 74.79 140.49Q74.56 140.67 74.2 140.7L74.2 141L76.89 141L76.89 140.7Q76.06 140.67 75.88 140.43Q75.71 140.19 75.88 139.69L76.49 137.98Q76.59 137.69 76.74 137.63Q76.88 137.56 77.17 137.56L78.87 137.56Q79.01 137.56 79.14 137.55Q79.27 137.52 79.34 137.46L80.08 139.69Q80.23 140.13 80.21 140.34Q80.19 140.42 80.15 140.49Q80.09 140.57 79.96 140.61Q79.75 140.67 79.31 140.7L79.31 141L82.42 141L82.42 140.7Q82.08 140.67 81.88 140.61Q81.85 140.61 81.82 140.6Q81.66 140.53 81.53 140.35ZM90.45 139.69L88.53 133.38Q88.42 133.04 88.31 132.71Q88.19 132.39 88.1 132.05L87.46 132.05Q87.44 132.14 87.41 132.22Q87.34 132.47 87.25 132.71Q87.12 133.04 87.01 133.38L85.12 139.05Q84.93 139.62 84.61 140.09Q84.43 140.36 84.17 140.52Q83.98 140.64 83.76 140.7L83.76 143.53L84.05 143.53Q84.06 143.33 84.09 143.14Q84.15 142.73 84.3 142.33Q84.52 141.75 84.89 141.37Q85.2 141.05 85.55 141Q85.61 141 85.67 141L89.74 141Q90.04 141 90.34 141.24Q90.65 141.48 90.82 142.04Q91 142.6 90.91 143.53L91.2 143.53L91.67 140.7Q91.22 140.61 90.98 140.47Q90.75 140.34 90.65 140.16Q90.54 139.97 90.45 139.69ZM158.25 140.35Q158.1 140.15 157.95 139.69L155.83 133.38Q155.7 133.04 155.59 132.71Q155.48 132.39 155.39 132.05L154.75 132.05Q154.66 132.39 154.54 132.71Q154.42 133.04 154.29 133.38L151.99 139.69Q151.81 140.19 151.57 140.43Q151.54 140.46 151.51 140.49Q151.28 140.67 150.91 140.7L150.91 141L153.61 141L153.61 140.7Q152.77 140.67 152.6 140.43Q152.42 140.19 152.59 139.69L153.2 137.98Q153.31 137.69 153.45 137.63Q153.59 137.56 153.88 137.56L155.58 137.56Q155.73 137.56 155.86 137.55Q155.99 137.52 156.05 137.46L156.79 139.69Q156.95 140.13 156.92 140.34Q156.91 140.42 156.86 140.49Q156.8 140.57 156.68 140.61Q156.47 140.67 156.02 140.7L156.02 141L159.13 141L159.13 140.7Q158.79 140.67 158.59 140.61Q158.56 140.61 158.54 140.6Q158.37 140.53 158.25 140.35ZM167.17 139.69L165.24 133.38Q165.14 133.04 165.02 132.71Q164.9 132.39 164.81 132.05L164.18 132.05Q164.15 132.14 164.13 132.22Q164.05 132.47 163.96 132.71Q163.84 133.04 163.72 133.38L161.83 139.05Q161.64 139.62 161.32 140.09Q161.14 140.36 160.89 140.52Q160.7 140.64 160.47 140.7L160.47 143.53L160.77 143.53Q160.78 143.33 160.81 143.14Q160.87 142.73 161.02 142.33Q161.24 141.75 161.6 141.37Q161.91 141.05 162.26 141Q162.32 141 162.38 141L166.45 141Q166.75 141 167.06 141.24Q167.36 141.48 167.53 142.04Q167.71 142.6 167.62 143.53L167.92 143.53L168.39 140.7Q167.93 140.61 167.7 140.47Q167.46 140.34 167.36 140.16Q167.26 139.97 167.17 139.69ZM208.52 140.35Q208.37 140.15 208.22 139.69L206.1 133.38Q205.97 133.04 205.86 132.71Q205.75 132.39 205.66 132.05L205.02 132.05Q204.93 132.39 204.81 132.71Q204.7 133.04 204.57 133.38L202.26 139.69Q202.08 140.19 201.84 140.43Q201.81 140.46 201.78 140.49Q201.55 140.67 201.19 140.7L201.19 141L203.88 141L203.88 140.7Q203.05 140.67 202.87 140.43Q202.69 140.19 202.86 139.69L203.47 137.98Q203.58 137.69 203.72 137.63Q203.86 137.56 204.15 137.56L205.85 137.56Q206 137.56 206.13 137.55Q206.26 137.52 206.32 137.46L207.06 139.69Q207.22 140.13 207.19 140.34Q207.18 140.42 207.13 140.49Q207.07 140.57 206.95 140.61Q206.74 140.67 206.3 140.7L206.3 141L209.4 141L209.4 140.7Q209.06 140.67 208.86 140.61Q208.83 140.61 208.81 140.6Q208.64 140.53 208.52 140.35ZM185.89 132.37Q185.22 132.16 184.48 132.16Q183.82 132.16 183.21 132.34Q183.01 132.4 182.81 132.48Q182.43 132.64 182.1 132.86Q181.73 133.09 181.42 133.4Q181.35 133.47 181.29 133.53Q180.78 134.09 180.47 134.84Q180.13 135.67 180.13 136.69Q180.13 137.72 180.47 138.55Q180.78 139.29 181.29 139.84Q181.35 139.91 181.42 139.98Q181.73 140.28 182.1 140.52Q182.43 140.73 182.81 140.88Q183.03 140.97 183.26 141.03Q183.84 141.19 184.47 141.19Q185.08 141.19 185.65 141.03Q185.9 140.96 186.14 140.87Q186.59 140.68 186.98 140.41Q187.28 140.2 187.54 139.94Q187.64 139.84 187.74 139.74Q188.2 139.21 188.49 138.51Q188.84 137.68 188.84 136.65Q188.84 135.63 188.49 134.79Q188.21 134.11 187.74 133.59Q187.64 133.47 187.53 133.37Q187.18 133.03 186.77 132.78Q186.47 132.6 186.14 132.47Q186.02 132.42 185.89 132.37ZM24.06 140.7L24.06 141L27.71 141Q28.93 141 29.7 140.59Q30.46 140.19 30.81 139.56Q31.09 139.07 31.15 138.56Q31.17 138.41 31.17 138.25Q31.17 137.69 30.93 137.27Q30.87 137.17 30.81 137.09Q30.77 137.03 30.73 136.99Q30.38 136.58 29.82 136.34Q29.21 136.07 28.41 136.03L28.41 136Q29.17 135.73 29.69 135.26Q29.85 135.11 29.97 134.93Q30.21 134.54 30.21 134Q30.21 133.65 30.08 133.37Q29.92 133.02 29.57 132.76Q28.93 132.29 27.56 132.29Q27.1 132.29 26.76 132.3Q26.41 132.31 26.01 132.33Q25.61 132.35 24.97 132.35L23.74 132.35L23.74 132.65Q24.26 132.66 24.52 132.73Q24.71 132.77 24.81 132.89Q24.85 132.94 24.87 132.99Q24.97 133.19 24.97 133.65L24.97 139.69Q24.97 140.14 24.89 140.35Q24.85 140.46 24.77 140.53Q24.71 140.59 24.61 140.62Q24.41 140.68 24.06 140.7ZM170.28 140.7L170.28 141L173.94 141Q175.16 141 175.92 140.59Q176.68 140.19 177.04 139.56Q177.31 139.07 177.38 138.56Q177.4 138.41 177.4 138.25Q177.4 137.69 177.15 137.27Q177.1 137.17 177.03 137.09Q176.99 137.03 176.95 136.99Q176.6 136.58 176.05 136.34Q175.43 136.07 174.64 136.03L174.64 136Q175.39 135.73 175.91 135.26Q176.08 135.11 176.19 134.93Q176.43 134.54 176.43 134Q176.43 133.65 176.3 133.37Q176.15 133.02 175.8 132.76Q175.16 132.29 173.78 132.29Q173.33 132.29 172.98 132.3Q172.64 132.31 172.24 132.33Q171.83 132.35 171.19 132.35L169.96 132.35L169.96 132.65Q170.48 132.66 170.74 132.73Q170.93 132.77 171.03 132.89Q171.07 132.94 171.1 132.99Q171.19 133.19 171.19 133.65L171.19 139.69Q171.19 140.14 171.12 140.35Q171.07 140.46 171 140.53Q170.93 140.59 170.84 140.62Q170.64 140.68 170.28 140.7ZM54.34 140.35Q54.25 140.14 54.25 139.69L54.25 133.65Q54.25 133.19 54.33 132.99Q54.38 132.87 54.48 132.8Q54.54 132.75 54.61 132.73Q54.81 132.66 55.16 132.65L55.16 132.35L52.18 132.35L52.18 132.65Q52.56 132.66 52.76 132.73Q52.87 132.76 52.94 132.83Q53.01 132.89 53.05 132.99Q53.14 133.19 53.14 133.65L53.14 139.69Q53.14 140.24 52.99 140.39Q52.83 140.53 52.49 140.53L51.13 140.53Q50.62 140.53 50.35 140.47Q50.11 140.42 50.01 140.26Q50 140.25 49.99 140.24Q49.89 140.06 49.89 139.69L49.89 133.65Q49.89 133.19 49.98 132.99Q50.03 132.87 50.12 132.8Q50.18 132.75 50.26 132.73Q50.45 132.66 50.8 132.65L50.8 132.35L47.82 132.35L47.82 132.65Q48.2 132.66 48.41 132.73Q48.51 132.76 48.59 132.83Q48.66 132.89 48.7 132.99Q48.79 133.19 48.79 133.65L48.79 139.69Q48.79 140.24 48.63 140.39Q48.48 140.53 48.14 140.53L46.51 140.53Q45.94 140.53 45.74 140.39Q45.54 140.24 45.54 139.69L45.54 133.65Q45.54 133.19 45.62 132.99Q45.67 132.87 45.76 132.8Q45.82 132.75 45.9 132.73Q46.09 132.66 46.45 132.65L46.45 132.35L43.21 132.35L43.21 132.65Q43.72 132.66 43.98 132.73Q44.19 132.78 44.29 132.9Q44.32 132.94 44.34 132.99Q44.43 133.19 44.43 133.65L44.43 139.69Q44.43 140.14 44.35 140.35Q44.31 140.46 44.23 140.53Q44.17 140.59 44.07 140.62Q43.87 140.68 43.52 140.7L43.52 141L55.48 141L55.48 140.7Q54.98 140.68 54.71 140.62Q54.51 140.57 54.41 140.44Q54.37 140.4 54.34 140.35ZM63.32 140.7L63.32 141L66.56 141L66.56 140.7Q66.05 140.68 65.79 140.62Q65.61 140.57 65.51 140.46Q65.46 140.41 65.43 140.35Q65.33 140.14 65.33 139.69L65.33 136.83Q65.33 136.5 65.48 136.38Q65.62 136.26 65.97 136.26L69.4 136.26Q69.6 136.26 69.76 136.24Q69.89 136.22 69.99 136.14Q70 136.13 70.02 136.12L70.02 139.69Q70.02 140.14 69.94 140.35Q69.9 140.46 69.82 140.53Q69.75 140.59 69.66 140.62Q69.46 140.68 69.11 140.7L69.11 141L72.34 141L72.34 140.7Q71.83 140.68 71.57 140.62Q71.37 140.57 71.27 140.44Q71.23 140.4 71.21 140.35Q71.12 140.14 71.12 139.69L71.12 133.65Q71.12 133.19 71.2 132.99Q71.26 132.87 71.35 132.8Q71.41 132.75 71.48 132.73Q71.68 132.66 72.03 132.65L72.03 132.35L68.78 132.35L68.78 132.65Q69.3 132.66 69.56 132.73Q69.75 132.77 69.85 132.89Q69.89 132.94 69.92 132.99Q70.02 133.19 70.02 133.65L70.02 135.21Q70.02 135.56 69.87 135.68Q69.73 135.8 69.38 135.8L65.95 135.8Q65.74 135.8 65.59 135.82Q65.44 135.85 65.33 135.93L65.33 133.65Q65.33 133.19 65.42 132.99Q65.47 132.87 65.56 132.8Q65.62 132.75 65.7 132.73Q65.89 132.66 66.25 132.65L66.25 132.35L63 132.35L63 132.65Q63.52 132.66 63.78 132.73Q63.97 132.77 64.07 132.89Q64.11 132.94 64.13 132.99Q64.23 133.19 64.23 133.65L64.23 139.69Q64.23 140.14 64.15 140.35Q64.11 140.46 64.03 140.53Q63.97 140.59 63.87 140.62Q63.67 140.68 63.32 140.7ZM93.69 140.7L93.69 141L96.94 141L96.94 140.7Q96.43 140.68 96.16 140.62Q95.97 140.57 95.87 140.45Q95.83 140.4 95.8 140.35Q95.7 140.14 95.7 139.69L95.7 133.65Q95.7 133.19 95.79 132.99Q95.84 132.87 95.93 132.8Q95.99 132.75 96.07 132.73Q96.26 132.66 96.61 132.65L96.61 132.35L93.36 132.35L93.36 132.65Q93.88 132.66 94.14 132.73Q94.33 132.77 94.43 132.89Q94.47 132.94 94.5 132.99Q94.6 133.19 94.6 133.65L94.6 139.69Q94.6 140.14 94.52 140.35Q94.48 140.46 94.4 140.53Q94.33 140.59 94.24 140.62Q94.04 140.68 93.69 140.7ZM99.75 140.7L99.75 141L101.5 141L106.44 133.74L106.44 139.69Q106.44 140.14 106.36 140.35Q106.32 140.46 106.24 140.53Q106.18 140.59 106.08 140.62Q105.88 140.68 105.53 140.7L105.53 141L108.77 141L108.77 140.7Q108.26 140.68 107.99 140.62Q107.8 140.57 107.69 140.44Q107.66 140.4 107.64 140.35Q107.55 140.14 107.55 139.69L107.55 133.65Q107.55 133.19 107.63 132.99Q107.68 132.87 107.78 132.8Q107.83 132.75 107.91 132.73Q108.11 132.66 108.46 132.65L108.46 132.35L106.7 132.35L101.76 139.62L101.76 133.65Q101.76 133.19 101.84 132.99Q101.9 132.87 101.99 132.8Q102.05 132.75 102.12 132.73Q102.32 132.66 102.67 132.65L102.67 132.35L99.42 132.35L99.42 132.65Q99.94 132.66 100.2 132.73Q100.39 132.77 100.49 132.89Q100.53 132.94 100.56 132.99Q100.66 133.19 100.66 133.65L100.66 139.69Q100.66 140.14 100.58 140.35Q100.54 140.46 100.46 140.53Q100.39 140.59 100.3 140.62Q100.1 140.68 99.75 140.7ZM111.46 140.7L111.46 141L114.7 141L114.7 140.7Q114.19 140.68 113.93 140.62Q113.75 140.57 113.64 140.46Q113.6 140.41 113.57 140.35Q113.47 140.14 113.47 139.69L113.47 136.83Q113.47 136.5 113.62 136.38Q113.76 136.26 114.11 136.26L117.54 136.26Q117.74 136.26 117.9 136.24Q118.03 136.22 118.13 136.14Q118.14 136.13 118.16 136.12L118.16 139.69Q118.16 140.14 118.08 140.35Q118.04 140.46 117.96 140.53Q117.89 140.59 117.8 140.62Q117.6 140.68 117.24 140.7L117.24 141L120.48 141L120.48 140.7Q119.97 140.68 119.71 140.62Q119.51 140.57 119.41 140.44Q119.37 140.4 119.35 140.35Q119.26 140.14 119.26 139.69L119.26 133.65Q119.26 133.19 119.34 132.99Q119.4 132.87 119.49 132.8Q119.55 132.75 119.62 132.73Q119.82 132.66 120.17 132.65L120.17 132.35L116.92 132.35L116.92 132.65Q117.44 132.66 117.7 132.73Q117.89 132.77 117.99 132.89Q118.03 132.94 118.06 132.99Q118.16 133.19 118.16 133.65L118.16 135.21Q118.16 135.56 118.01 135.68Q117.87 135.8 117.52 135.8L114.09 135.8Q113.88 135.8 113.73 135.82Q113.58 135.85 113.47 135.93L113.47 133.65Q113.47 133.19 113.56 132.99Q113.61 132.87 113.7 132.8Q113.76 132.75 113.84 132.73Q114.03 132.66 114.39 132.65L114.39 132.35L111.14 132.35L111.14 132.65Q111.66 132.66 111.92 132.73Q112.11 132.77 112.21 132.89Q112.25 132.94 112.27 132.99Q112.37 133.19 112.37 133.65L112.37 139.69Q112.37 140.14 112.29 140.35Q112.25 140.46 112.17 140.53Q112.11 140.59 112.01 140.62Q111.81 140.68 111.46 140.7ZM123.17 140.7L123.17 141L124.93 141L129.87 133.74L129.87 139.69Q129.87 140.14 129.79 140.35Q129.75 140.46 129.67 140.53Q129.6 140.59 129.51 140.62Q129.31 140.68 128.96 140.7L128.96 141L132.2 141L132.2 140.7Q131.69 140.68 131.42 140.62Q131.22 140.57 131.12 140.44Q131.09 140.4 131.06 140.35Q130.97 140.14 130.97 139.69L130.97 133.65Q130.97 133.19 131.06 132.99Q131.11 132.87 131.2 132.8Q131.26 132.75 131.34 132.73Q131.53 132.66 131.88 132.65L131.88 132.35L130.13 132.35L125.19 139.62L125.19 133.65Q125.19 133.19 125.27 132.99Q125.32 132.87 125.42 132.8Q125.47 132.75 125.55 132.73Q125.75 132.66 126.1 132.65L126.1 132.35L122.85 132.35L122.85 132.65Q123.37 132.66 123.63 132.73Q123.82 132.77 123.92 132.89Q123.96 132.94 123.98 132.99Q124.08 133.19 124.08 133.65L124.08 139.69Q124.08 140.14 124 140.35Q123.96 140.46 123.88 140.53Q123.82 140.59 123.72 140.62Q123.52 140.68 123.17 140.7ZM134.88 140.7L134.88 141L136.64 141L141.58 133.74L141.58 139.69Q141.58 140.14 141.5 140.35Q141.46 140.46 141.38 140.53Q141.32 140.59 141.22 140.62Q141.02 140.68 140.67 140.7L140.67 141L143.91 141L143.91 140.7Q143.4 140.68 143.13 140.62Q142.94 140.57 142.83 140.44Q142.8 140.4 142.78 140.35Q142.69 140.14 142.69 139.69L142.69 133.65Q142.69 133.19 142.77 132.99Q142.82 132.87 142.91 132.8Q142.97 132.75 143.05 132.73Q143.24 132.66 143.6 132.65L143.6 132.35L141.84 132.35L136.9 139.62L136.9 133.65Q136.9 133.19 136.98 132.99Q137.03 132.87 137.13 132.8Q137.19 132.75 137.26 132.73Q137.46 132.66 137.81 132.65L137.81 132.35L134.56 132.35L134.56 132.65Q135.08 132.66 135.34 132.73Q135.53 132.77 135.63 132.89Q135.67 132.94 135.7 132.99Q135.8 133.19 135.8 133.65L135.8 139.69Q135.8 140.14 135.72 140.35Q135.67 140.46 135.6 140.53Q135.53 140.59 135.44 140.62Q135.24 140.68 134.88 140.7ZM197.95 140.78Q198.35 141.07 199.1 141.07Q199.46 141.07 199.81 141L199.81 140.7Q199.52 140.7 199.31 140.62Q199.09 140.54 198.86 140.32Q198.64 140.1 198.29 139.66L195.25 135.78Q195.11 135.61 195.15 135.48Q195.17 135.41 195.25 135.35L197.71 133.34Q198.12 133.01 198.43 132.85Q198.74 132.68 199.13 132.65L199.13 132.35L196.4 132.35L196.4 132.65Q196.8 132.66 196.95 132.73Q197.05 132.79 197.08 132.87Q197.09 132.9 197.09 132.93Q197.09 133.04 197 133.17Q196.91 133.3 196.6 133.56L193.81 135.82L193.79 135.82L193.79 133.65Q193.79 133.19 193.87 132.99Q193.92 132.87 194.02 132.8Q194.08 132.75 194.15 132.73Q194.35 132.66 194.7 132.65L194.7 132.35L191.45 132.35L191.45 132.65Q191.97 132.66 192.23 132.73Q192.42 132.77 192.52 132.89Q192.56 132.94 192.59 132.99Q192.68 133.19 192.68 133.65L192.68 139.69Q192.68 140.14 192.6 140.35Q192.56 140.46 192.49 140.53Q192.42 140.59 192.33 140.62Q192.13 140.68 191.77 140.7L191.77 141L195.01 141L195.01 140.7Q194.5 140.68 194.24 140.62Q194.06 140.57 193.96 140.46Q193.92 140.41 193.89 140.35Q193.79 140.14 193.79 139.69L193.79 136.68Q193.79 136.44 193.86 136.37Q193.91 136.33 193.96 136.32Q194 136.3 194.05 136.3Q194.08 136.3 194.1 136.31Q194.18 136.32 194.24 136.38Q194.33 136.46 194.5 136.67L197.19 140.05Q197.55 140.49 197.95 140.78ZM218.26 132.35L211.25 132.35L211.25 134.38L211.55 134.38Q211.57 133.92 211.69 133.58Q211.74 133.42 211.84 133.29Q211.95 133.13 212.13 133.02Q212.46 132.82 213.11 132.82L214.2 132.82L214.2 139.69Q214.2 140.14 214.12 140.35Q214.08 140.46 214 140.53Q213.94 140.59 213.84 140.62Q213.64 140.68 213.29 140.7L213.29 141L216.54 141L216.54 140.7Q216.03 140.68 215.76 140.62Q215.57 140.57 215.46 140.44Q215.42 140.4 215.4 140.35Q215.3 140.14 215.3 139.69L215.3 132.82L216.38 132.82Q217.05 132.82 217.37 133.02Q217.56 133.14 217.67 133.3Q217.76 133.42 217.81 133.58Q217.93 133.92 217.95 134.38L218.26 134.38L218.26 132.35ZM185.39 140.57Q185.04 140.67 184.66 140.67Q184.45 140.67 184.25 140.64Q183.64 140.55 183.08 140.18Q182.32 139.68 181.85 138.74Q181.39 137.8 181.39 136.44Q181.39 135.21 181.79 134.37Q182.19 133.53 182.86 133.11Q183.21 132.88 183.6 132.77Q183.94 132.68 184.3 132.68Q184.59 132.68 184.87 132.74Q185.4 132.85 185.88 133.17Q186.63 133.66 187.09 134.61Q187.56 135.55 187.56 136.9Q187.56 138.14 187.16 138.97Q186.76 139.81 186.1 140.24Q185.76 140.46 185.39 140.57ZM26.39 136.04Q26.24 136.07 26.07 136.18L26.07 133.65Q26.07 133.04 26.32 132.89Q26.57 132.75 27.13 132.75Q27.58 132.75 28 132.86Q28.01 132.86 28.01 132.86Q28.32 132.93 28.56 133.11Q28.65 133.18 28.73 133.26Q29.01 133.56 29.01 134.17Q29.01 134.7 28.8 135.05Q28.67 135.27 28.49 135.43Q28.39 135.52 28.26 135.59Q27.93 135.78 27.54 135.87Q27.14 135.95 26.75 135.99Q26.54 136 26.39 136.04ZM172.62 136.04Q172.47 136.07 172.3 136.18L172.3 133.65Q172.3 133.04 172.55 132.89Q172.79 132.75 173.35 132.75Q173.8 132.75 174.23 132.86L174.24 132.86Q174.55 132.93 174.79 133.11Q174.87 133.18 174.95 133.26Q175.24 133.56 175.24 134.17Q175.24 134.7 175.03 135.05Q174.9 135.27 174.71 135.43Q174.61 135.52 174.49 135.59Q174.16 135.78 173.76 135.87Q173.37 135.95 172.98 135.99Q172.77 136 172.62 136.04ZM38.07 137.05Q38.01 137.09 37.84 137.09L36.1 137.09Q35.98 137.09 35.89 137.1Q35.8 137.11 35.73 137.13L36.98 133.69L37.01 133.69L38.08 136.85Q38.13 136.99 38.09 137.04Q38.08 137.05 38.07 137.05ZM79.13 137.05Q79.06 137.09 78.89 137.09L77.15 137.09Q77.04 137.09 76.94 137.1Q76.85 137.11 76.79 137.13L78.04 133.69L78.06 133.69L79.13 136.85Q79.19 136.99 79.14 137.04Q79.13 137.05 79.13 137.05ZM89.14 140.46Q88.94 140.51 88.5 140.53L85.21 140.53L87.46 133.69L87.49 133.69L89.27 139.69Q89.39 140.06 89.36 140.24Q89.36 140.3 89.33 140.35Q89.27 140.43 89.14 140.46ZM155.84 137.05Q155.78 137.09 155.61 137.09L153.87 137.09Q153.75 137.09 153.66 137.1Q153.57 137.11 153.5 137.13L154.75 133.69L154.78 133.69L155.84 136.85Q155.9 136.99 155.85 137.04Q155.85 137.05 155.84 137.05ZM165.86 140.46Q165.66 140.51 165.21 140.53L161.93 140.53L164.18 133.69L164.2 133.69L165.98 139.69Q166.1 140.06 166.08 140.24Q166.07 140.3 166.04 140.35Q165.98 140.43 165.86 140.46ZM206.11 137.05Q206.05 137.09 205.88 137.09L204.14 137.09Q204.02 137.09 203.93 137.1Q203.84 137.11 203.77 137.13L205.02 133.69L205.05 133.69L206.11 136.85Q206.17 136.99 206.13 137.04Q206.12 137.05 206.11 137.05ZM29.05 140.19Q28.53 140.53 27.61 140.53Q27 140.53 26.67 140.48Q26.34 140.42 26.2 140.25Q26.07 140.07 26.07 139.69L26.07 137.19Q26.07 136.85 26.24 136.68Q26.3 136.62 26.37 136.58Q26.66 136.42 27.3 136.42Q28.05 136.42 28.66 136.61Q29.21 136.78 29.55 137.15Q29.59 137.18 29.62 137.22Q29.62 137.23 29.63 137.23Q29.98 137.65 29.98 138.36Q29.98 138.85 29.77 139.35Q29.74 139.42 29.7 139.49Q29.48 139.9 29.05 140.19ZM175.27 140.19Q174.76 140.53 173.84 140.53Q173.22 140.53 172.89 140.48Q172.56 140.42 172.43 140.25Q172.3 140.07 172.3 139.69L172.3 137.19Q172.3 136.85 172.47 136.68Q172.52 136.62 172.59 136.58Q172.89 136.42 173.52 136.42Q174.28 136.42 174.88 136.61Q175.43 136.78 175.78 137.15Q175.81 137.18 175.84 137.22Q175.85 137.23 175.85 137.23Q176.2 137.65 176.2 138.36Q176.2 138.85 175.99 139.35Q175.96 139.42 175.92 139.49Q175.71 139.9 175.27 140.19Z" fill="#0D1E3A" fill-opacity="1.000000" fill-rule="evenodd"/>
</svg>
