<svg width="234.000000" height="40.000000" viewBox="0 0 234 40" fill="none" xmlns="http://www.w3.org/2000/svg" xmlns:xlink="http://www.w3.org/1999/xlink">
	<desc>
			Created with Pixso.
	</desc>
	<defs/>
	<path id="Vector" d="M54.71 2.33C55.3 2.13 60.63 3.2 61.8 3.1C61.89 2.81 62.09 2.42 62.28 2.33L47.92 0.29C47.63 1.26 47.34 2.23 47.05 3.2C46.76 4.17 46.37 5.14 45.88 6.11L35.02 31.95L34.92 31.95L23.28 6.11C22.79 5.05 22.31 4.07 21.92 3.1C21.53 2.23 21.24 1.26 20.95 0.29L6.98 2.62C7.17 2.81 7.37 3.2 7.37 3.59C9.41 3.39 13.67 2.23 14.26 2.33C15.03 2.52 15.52 2.52 15.81 3.2C16.1 3.88 16.2 4.75 16.1 6.11L14.74 33.21C14.74 34.67 14.35 35.74 13.77 36.51C13.19 37.29 12.12 37.68 10.57 37.78L10.57 39.14L22.99 39.14L22.99 37.78C20.66 37.68 19.11 37.29 18.43 36.51C17.75 35.74 17.36 34.67 17.46 33.21L18.62 8.25L18.72 8.25L29.88 33.02C30.65 34.67 31.24 35.93 31.62 36.81C32.01 37.68 32.4 38.65 32.69 39.53L35.12 39.53C35.31 38.65 35.6 37.78 35.99 36.81C36.38 35.83 36.86 34.67 37.54 33.02L48.21 7.86L48.31 7.86L49.38 33.31C49.47 34.67 49.38 35.64 49.18 36.22C48.99 36.81 48.6 37.19 48.02 37.39C47.44 37.58 46.76 37.68 45.79 37.78L45.79 39.14L59.27 39.14L59.27 37.78C58.01 37.68 56.95 37.58 56.27 37.39C55.59 37.19 55.1 36.81 54.81 36.22C54.52 35.64 54.33 34.67 54.33 33.31L53.06 6.21C53.06 4.85 53.16 3.88 53.36 3.3C53.55 2.71 54.13 2.52 54.71 2.33Z" fill="#FFFFFF" fill-opacity="1.000000" fill-rule="nonzero"/>
	<path id="Vector" d="M34.82 2.33C32.4 0.77 29.1 0 25.12 0C24.35 0 23.28 0 22.12 0.09L22.12 0.58C22.31 1.16 22.5 1.65 22.6 2.23C22.89 2.23 23.28 2.13 23.57 2.13C25.22 2.13 26.68 2.33 28.13 2.71C29.59 3.1 30.65 3.88 31.53 4.85C32.4 5.92 32.88 7.47 32.88 9.42C32.88 10.97 32.5 12.52 31.82 13.88C31.24 14.95 30.26 15.92 29.1 16.6L30.17 18.93C31.91 18.45 33.37 17.77 34.53 16.9C35.89 15.83 36.96 14.66 37.54 13.2C38.22 11.84 38.51 10.48 38.51 9.03C38.51 6.11 37.35 3.88 34.82 2.33Z" fill="#FFFFFF" fill-opacity="1.000000" fill-rule="nonzero"/>
	<path id="Vector" d="M23.09 19.71C21.82 19.71 20.37 19.71 18.91 19.52L18.91 17.77C20.17 17.87 21.24 17.87 22.31 17.87L23.09 19.71Z" fill="#FFFFFF" fill-opacity="1.000000" fill-rule="nonzero"/>
	<path id="Vector" d="M10.96 26.51L10.86 26.9C10.28 28.65 9.41 30.1 8.34 30.98C7.56 31.56 6.88 31.85 5.82 31.95C3.78 32.05 2.13 31.08 0.97 28.94C0.67 28.36 0.29 27.48 0.09 26.9L0 26.51L0.09 26.41C0.19 26.32 0.29 26.03 0.97 22.43C1.45 20.29 2.52 15.05 3.39 10.78C3.88 8.64 4.26 6.6 4.55 5.14C4.65 5.24 4.65 5.24 4.75 5.24C3.49 11.26 0.38 26.12 0.38 26.22C0.38 26.32 5.33 26.41 5.33 26.22C5.33 26.12 5.33 23.4 5.33 14.56C5.33 10 5.33 7.18 5.33 5.53C5.33 5.53 5.33 5.53 5.43 5.53L5.53 5.53C5.53 7.67 5.53 10.97 5.53 14.66C5.53 23.6 5.53 26.22 5.53 26.32C5.53 26.41 10.47 26.41 10.47 26.32C10.47 26.22 9.89 23.4 9.21 20.1C8.53 16.7 7.47 11.46 6.79 8.54C6.59 7.38 6.3 6.31 6.11 5.34C6.2 5.34 6.2 5.24 6.3 5.24C6.79 7.38 7.47 10.87 8.24 14.76C10.57 25.44 10.76 26.41 10.96 26.51Z" fill="#FFFFFF" fill-opacity="1.000000" fill-rule="nonzero"/>
	<path id="Vector" d="M5.53 2.33C4.75 2.33 4.17 2.91 4.17 3.69C4.17 4.46 4.75 5.05 5.53 5.05C6.3 5.05 6.88 4.46 6.88 3.69C6.88 2.91 6.3 2.33 5.53 2.33ZM5.53 4.17C5.23 4.17 4.94 3.98 4.94 3.69C4.94 3.39 5.14 3.1 5.53 3.1C5.82 3.1 6.11 3.3 6.11 3.69C6.01 3.98 5.82 4.17 5.53 4.17Z" fill="#FFFFFF" fill-opacity="1.000000" fill-rule="nonzero"/>
	<path id="Vector" d="M69.17 26.51L69.07 26.9C68.49 28.65 67.62 30.1 66.55 30.98C65.77 31.56 65.09 31.85 64.03 31.95C61.99 32.05 60.34 31.08 59.18 28.94C58.89 28.36 58.5 27.48 58.3 26.9L58.21 26.51L58.3 26.41C58.4 26.32 58.5 26.03 59.18 22.43C59.66 20.29 60.73 15.05 61.6 10.78C62.09 8.64 62.48 6.6 62.77 5.14C62.86 5.24 62.86 5.24 62.96 5.24C61.7 11.26 58.59 26.12 58.59 26.22C58.59 26.32 63.54 26.41 63.54 26.22C63.54 26.12 63.54 23.4 63.54 14.56C63.54 10 63.54 7.18 63.54 5.53C63.54 5.53 63.54 5.53 63.64 5.53L63.74 5.53C63.74 7.67 63.74 10.97 63.74 14.66C63.74 23.6 63.74 26.22 63.74 26.32C63.74 26.41 68.68 26.41 68.68 26.32C68.68 26.22 68.1 23.4 67.42 20.1C66.74 16.7 65.68 11.46 65 8.54C64.8 7.38 64.51 6.31 64.32 5.34C64.42 5.34 64.42 5.24 64.51 5.24C65 7.38 65.68 10.87 66.45 14.76C68.78 25.44 68.98 26.41 69.17 26.51Z" fill="#FFFFFF" fill-opacity="1.000000" fill-rule="nonzero"/>
	<path id="Vector" d="M63.74 2.33C62.96 2.33 62.38 2.91 62.38 3.69C62.38 4.46 62.96 5.05 63.74 5.05C64.51 5.05 65.09 4.46 65.09 3.69C65.09 2.91 64.51 2.33 63.74 2.33ZM63.74 4.17C63.45 4.17 63.15 3.98 63.15 3.69C63.15 3.39 63.35 3.1 63.74 3.1C64.03 3.1 64.32 3.3 64.32 3.69C64.22 3.98 64.03 4.17 63.74 4.17Z" fill="#FFFFFF" fill-opacity="1.000000" fill-rule="nonzero"/>
	<path id="Vector" d="M97.18 21.23C97.06 21 96.95 20.77 96.83 20.43C96.72 20.2 96.61 19.85 96.38 19.39L93.28 12.52L92.94 19.39C92.94 19.74 93.06 20.08 93.17 20.31C93.4 20.54 93.74 20.65 94.43 20.65L94.43 21L91 21L91 20.65C91.45 20.65 91.68 20.54 91.91 20.31C92.03 20.08 92.14 19.85 92.14 19.39L92.48 11.94C92.48 11.6 92.48 11.26 92.37 11.14C92.25 11.03 92.14 10.91 91.91 10.8C91.68 10.8 91.45 10.68 91 10.68L91 10.34L93.74 10.34C93.86 10.57 93.97 10.91 93.97 11.14C93.97 11.37 94.2 11.71 94.32 11.94L97.52 19.05L100.5 11.94C100.61 11.71 100.73 11.37 100.84 11.14C100.96 10.91 101.07 10.57 101.07 10.34L103.59 10.34L103.59 10.68C103.25 10.68 103.02 10.68 102.9 10.8C102.79 10.8 102.67 10.91 102.56 11.14C102.44 11.37 102.44 11.6 102.44 11.94L102.79 19.39C102.79 19.74 102.9 20.08 102.9 20.2C102.9 20.31 103.13 20.43 103.36 20.54C103.59 20.54 103.82 20.65 104.16 20.65L104.16 21L100.5 21L100.5 20.65C100.73 20.65 100.96 20.65 101.07 20.54C101.19 20.54 101.3 20.43 101.41 20.2C101.53 19.97 101.53 19.74 101.41 19.39L101.07 12.4L98.09 19.28C97.86 19.74 97.75 20.08 97.64 20.31C97.52 20.54 97.41 20.77 97.41 21.11L97.18 21.11L97.18 21.23Z" fill="#FFFFFF" fill-opacity="1.000000" fill-rule="nonzero"/>
	<path id="Vector" d="M115.38 19.39C115.5 19.74 115.61 20.08 115.73 20.2C115.84 20.31 115.95 20.43 116.18 20.54C116.41 20.65 116.53 20.65 116.87 20.65L116.87 21L113.09 21L113.09 20.65C113.44 20.65 113.78 20.54 113.89 20.54C114.12 20.54 114.12 20.43 114.24 20.2C114.24 20.08 114.24 19.74 114.12 19.39L113.21 16.64C113.21 16.64 113.09 16.76 112.98 16.76C112.86 16.76 112.75 16.76 112.63 16.76L110.57 16.76C110.34 16.76 110.12 16.76 110 16.87C109.89 16.99 109.77 17.1 109.66 17.33L108.86 19.39C108.74 19.85 108.74 20.08 108.86 20.31C108.97 20.54 109.43 20.65 110.12 20.65L110.12 21L106.8 21L106.8 20.65C107.14 20.65 107.37 20.54 107.6 20.31C107.83 20.08 107.94 19.85 108.17 19.39L111.03 11.6C111.15 11.37 111.26 11.03 111.38 10.8C111.49 10.57 111.6 10.22 111.6 10L112.41 10C112.52 10.22 112.52 10.57 112.63 10.8C112.75 11.03 112.86 11.37 112.98 11.6L115.38 19.39ZM112.52 16.18C112.63 16.18 112.75 16.18 112.86 16.18C112.86 16.18 112.86 16.07 112.86 15.96L111.6 12.06L110.12 16.3C110.12 16.3 110.23 16.3 110.34 16.3C110.46 16.3 110.46 16.3 110.57 16.3L112.52 16.3L112.52 16.18Z" fill="#FFFFFF" fill-opacity="1.000000" fill-rule="nonzero"/>
	<path id="Vector" d="M119.5 21L119.5 20.65C119.85 20.65 120.08 20.65 120.19 20.54C120.31 20.54 120.42 20.43 120.53 20.2C120.65 20.08 120.65 19.74 120.65 19.39L120.65 11.94C120.65 11.6 120.65 11.26 120.53 11.14C120.42 11.03 120.31 10.91 120.08 10.8C119.85 10.8 119.5 10.68 119.16 10.68L119.16 10.34L120.65 10.34C121.34 10.34 122.02 10.34 122.37 10.34C122.82 10.34 123.17 10.34 123.51 10.34C124.66 10.34 125.57 10.57 126.14 11.03C126.83 11.49 127.17 12.06 127.17 12.86C127.17 13.2 127.06 13.66 126.95 14.01C126.72 14.35 126.49 14.69 126.14 15.04C125.8 15.38 125.23 15.5 124.66 15.73C124.08 15.84 123.28 15.96 122.37 15.84L122.37 15.38C123.17 15.5 123.85 15.38 124.43 15.15C124.89 14.92 125.23 14.69 125.46 14.24C125.69 13.89 125.8 13.43 125.8 12.98C125.8 12.4 125.69 12.06 125.46 11.71C125.23 11.37 124.89 11.26 124.54 11.14C124.2 11.03 123.74 11.03 123.28 11.03C122.94 11.03 122.6 11.14 122.48 11.26C122.37 11.37 122.25 11.71 122.25 12.17L122.25 19.62C122.25 19.97 122.25 20.31 122.37 20.43C122.48 20.54 122.6 20.65 122.82 20.77C123.05 20.77 123.4 20.88 123.85 20.88L123.85 21.23L119.5 21.23L119.5 21Z" fill="#FFFFFF" fill-opacity="1.000000" fill-rule="nonzero"/>
	<path id="Vector" d="M139.42 21.11C138.85 21.11 138.28 21 138.05 20.77C137.71 20.54 137.36 20.2 137.14 19.85L133.82 15.73C133.7 15.61 133.59 15.38 133.47 15.38C133.36 15.27 133.36 15.27 133.24 15.27C133.13 15.27 133.13 15.27 133.01 15.38C132.9 15.5 132.9 15.61 132.9 15.73L132.9 19.39C132.9 19.74 132.9 20.08 133.01 20.2C133.13 20.31 133.24 20.43 133.47 20.54C133.7 20.54 134.04 20.65 134.39 20.65L134.39 21L130.38 21L130.38 20.65C130.72 20.65 130.95 20.65 131.07 20.54C131.18 20.54 131.3 20.43 131.41 20.2C131.53 20.08 131.53 19.74 131.53 19.39L131.53 11.94C131.53 11.6 131.53 11.26 131.41 11.14C131.3 11.03 131.18 10.91 130.95 10.8C130.72 10.8 130.38 10.68 130.04 10.68L130.04 10.34L134.04 10.34L134.04 10.68C133.7 10.68 133.59 10.68 133.36 10.8C133.24 10.8 133.13 10.91 133.01 11.14C132.9 11.26 132.9 11.6 132.9 11.94L132.9 14.58L136.33 11.83C136.56 11.6 136.79 11.49 136.79 11.37C136.91 11.26 136.91 11.14 136.91 11.03C136.91 10.91 136.79 10.8 136.68 10.8C136.56 10.68 136.33 10.68 135.99 10.68L135.99 10.34L139.31 10.34L139.31 10.68C138.97 10.68 138.74 10.8 138.39 10.91C138.17 11.03 137.82 11.26 137.48 11.49L134.39 14.01C134.27 14.12 134.27 14.35 134.39 14.58L138.17 19.39C138.51 19.74 138.74 20.08 138.85 20.2C139.08 20.43 139.2 20.54 139.42 20.54C139.65 20.65 139.77 20.65 140 20.65L140 21C140.11 21.11 139.77 21.11 139.42 21.11Z" fill="#FFFFFF" fill-opacity="1.000000" fill-rule="nonzero"/>
	<path id="Vector" d="M143.2 21L143.2 20.65C143.55 20.65 143.78 20.65 143.89 20.54C144 20.54 144.12 20.43 144.23 20.2C144.35 20.08 144.35 19.74 144.35 19.39L144.35 11.94C144.35 11.6 144.35 11.26 144.23 11.14C144.12 11.03 144 10.91 143.78 10.8C143.55 10.8 143.2 10.68 142.86 10.68L142.86 10.34L146.87 10.34L146.87 10.68C146.52 10.68 146.41 10.68 146.18 10.8C146.07 10.8 145.95 10.91 145.84 11.14C145.72 11.26 145.72 11.6 145.72 11.94L145.72 19.39C145.72 19.74 145.72 20.08 145.84 20.2C145.95 20.31 146.07 20.43 146.29 20.54C146.52 20.54 146.87 20.65 147.21 20.65L147.21 21L143.2 21Z" fill="#FFFFFF" fill-opacity="1.000000" fill-rule="nonzero"/>
	<path id="Vector" d="M150.3 10.34L158.89 10.34L158.89 12.86L158.55 12.86C158.55 12.52 158.43 12.17 158.32 11.83C158.2 11.49 158.09 11.26 157.74 11.14C157.4 11.03 157.06 10.91 156.48 10.91L155.11 10.91L155.11 19.39C155.11 19.74 155.11 20.08 155.23 20.2C155.34 20.31 155.45 20.43 155.68 20.54C155.91 20.54 156.25 20.65 156.6 20.65L156.6 21L152.82 21L152.82 20.65C153.16 20.65 153.39 20.65 153.51 20.54C153.62 20.54 153.74 20.43 153.85 20.2C153.97 19.97 153.97 19.74 153.97 19.39L153.97 10.91L152.59 10.91C152.02 10.91 151.68 11.03 151.33 11.14C150.99 11.26 150.87 11.49 150.76 11.83C150.64 12.17 150.64 12.4 150.53 12.86L150.19 12.86L150.19 10.34L150.3 10.34Z" fill="#FFFFFF" fill-opacity="1.000000" fill-rule="nonzero"/>
	<path id="Vector" d="M169.88 19.39C169.99 19.74 170.11 20.08 170.22 20.2C170.34 20.31 170.45 20.43 170.68 20.54C170.91 20.65 171.03 20.65 171.37 20.65L171.37 21L167.59 21L167.59 20.65C167.93 20.65 168.28 20.54 168.39 20.54C168.62 20.54 168.62 20.43 168.74 20.2C168.74 20.08 168.74 19.74 168.62 19.39L167.7 16.64C167.7 16.64 167.59 16.76 167.48 16.76C167.36 16.76 167.25 16.76 167.13 16.76L165.07 16.76C164.84 16.76 164.61 16.76 164.5 16.87C164.38 16.99 164.27 17.1 164.16 17.33L163.35 19.39C163.24 19.85 163.24 20.08 163.35 20.31C163.47 20.54 163.93 20.65 164.61 20.65L164.61 21L161.29 21L161.29 20.65C161.64 20.65 161.87 20.54 162.09 20.31C162.32 20.08 162.44 19.85 162.67 19.39L165.53 11.6C165.64 11.37 165.76 11.03 165.87 10.8C165.99 10.57 166.1 10.22 166.1 10L166.9 10C167.02 10.22 167.02 10.57 167.13 10.8C167.25 11.03 167.36 11.37 167.48 11.6L169.88 19.39ZM167.02 16.18C167.13 16.18 167.25 16.18 167.36 16.18C167.36 16.18 167.36 16.07 167.36 15.96L166.1 12.06L164.61 16.3C164.61 16.3 164.73 16.3 164.84 16.3C164.96 16.3 164.96 16.3 165.07 16.3L167.02 16.3L167.02 16.18Z" fill="#FFFFFF" fill-opacity="1.000000" fill-rule="nonzero"/>
	<path id="Vector" d="M174 21L174 20.65C174.35 20.65 174.57 20.65 174.69 20.54C174.8 20.54 174.92 20.43 175.03 20.2C175.15 20.08 175.15 19.74 175.15 19.39L175.15 11.94C175.15 11.6 175.15 11.26 175.03 11.14C174.92 11.03 174.8 10.91 174.57 10.8C174.35 10.8 174 10.68 173.66 10.68L173.66 10.34L177.67 10.34L177.67 10.68C177.32 10.68 177.21 10.68 176.98 10.8C176.86 10.8 176.75 10.91 176.64 11.14C176.52 11.26 176.52 11.6 176.52 11.94L176.52 14.81C176.64 14.69 176.75 14.69 176.86 14.69C176.98 14.69 177.09 14.69 177.32 14.69L181.56 14.69C181.9 14.69 182.02 14.69 182.13 14.58C182.25 14.47 182.36 14.24 182.36 14.01L182.36 11.94C182.36 11.6 182.36 11.26 182.25 11.14C182.13 11.03 182.02 10.91 181.79 10.8C181.56 10.8 181.21 10.68 180.87 10.68L180.87 10.34L184.88 10.34L184.88 10.68C184.54 10.68 184.42 10.68 184.19 10.8C184.08 10.8 183.96 10.91 183.85 11.14C183.73 11.26 183.73 11.6 183.73 11.94L183.73 19.39C183.73 19.74 183.73 20.08 183.85 20.2C183.96 20.31 184.08 20.43 184.31 20.54C184.54 20.54 184.88 20.65 185.22 20.65L185.22 21L181.21 21L181.21 20.65C181.56 20.65 181.79 20.65 181.9 20.54C182.02 20.54 182.13 20.43 182.25 20.2C182.36 20.08 182.36 19.74 182.36 19.39L182.36 15.04C182.25 15.15 182.13 15.15 182.02 15.15C181.9 15.15 181.79 15.15 181.56 15.15L177.32 15.15C176.98 15.15 176.86 15.15 176.75 15.27C176.64 15.38 176.52 15.5 176.52 15.84L176.52 19.39C176.52 19.74 176.52 20.08 176.64 20.2C176.75 20.31 176.86 20.43 177.09 20.54C177.32 20.54 177.67 20.65 178.01 20.65L178.01 21L174 21Z" fill="#FFFFFF" fill-opacity="1.000000" fill-rule="nonzero"/>
	<path id="Vector" d="M194.84 21L194.84 20.65C195.18 20.65 195.41 20.65 195.53 20.54C195.64 20.54 195.76 20.43 195.87 20.2C195.98 19.97 195.98 19.74 195.98 19.39L195.98 11.94C195.98 11.6 195.98 11.26 195.87 11.14C195.76 11.03 195.64 10.91 195.41 10.8C195.18 10.8 194.84 10.68 194.5 10.68L194.5 10.34L195.98 10.34C196.67 10.34 197.24 10.34 197.7 10.34C198.16 10.34 198.5 10.34 198.85 10.34C199.99 10.34 200.91 10.57 201.48 11.03C202.17 11.49 202.51 12.06 202.51 12.86C202.51 13.2 202.4 13.66 202.28 14.01C202.05 14.35 201.82 14.69 201.48 15.04C201.14 15.38 200.56 15.5 199.99 15.73C199.42 15.96 198.62 15.96 197.7 15.84L197.7 15.38C198.5 15.5 199.19 15.38 199.76 15.15C200.22 14.92 200.56 14.69 200.79 14.24C201.02 13.78 201.14 13.43 201.14 12.98C201.14 12.4 201.02 12.06 200.79 11.71C200.56 11.37 200.22 11.26 199.88 11.14C199.53 11.03 199.08 11.03 198.62 11.03C198.27 11.03 197.93 11.14 197.82 11.26C197.59 11.37 197.59 11.71 197.59 12.17L197.59 19.62C197.59 19.97 197.59 20.31 197.7 20.43C197.82 20.54 197.93 20.65 198.16 20.77C198.39 20.77 198.73 20.88 199.19 20.88L199.19 21.23L194.84 21.23L194.84 21Z" fill="#FFFFFF" fill-opacity="1.000000" fill-rule="nonzero"/>
	<path id="Vector" d="M205.83 21L205.83 20.65C206.17 20.65 206.4 20.65 206.52 20.54C206.63 20.54 206.75 20.43 206.86 20.2C206.98 20.08 206.98 19.74 206.98 19.39L206.98 11.94C206.98 11.6 206.98 11.26 206.86 11.14C206.75 11.03 206.63 10.91 206.4 10.8C206.17 10.8 205.83 10.68 205.49 10.68L205.49 10.34L209.49 10.34L209.49 10.68C209.15 10.68 209.04 10.68 208.81 10.8C208.69 10.8 208.58 10.91 208.46 11.14C208.35 11.26 208.35 11.6 208.35 11.94L208.35 19.39C208.35 19.74 208.35 20.08 208.46 20.2C208.58 20.31 208.69 20.43 208.92 20.54C209.15 20.54 209.49 20.65 209.84 20.65L209.84 21L205.83 21Z" fill="#FFFFFF" fill-opacity="1.000000" fill-rule="nonzero"/>
	<path id="Vector" d="M212.93 10.34L221.52 10.34L221.52 12.86L221.17 12.86C221.17 12.52 221.06 12.17 220.94 11.83C220.83 11.49 220.71 11.26 220.37 11.14C220.03 11.03 219.68 10.91 219.11 10.91L217.74 10.91L217.74 19.39C217.74 19.74 217.74 20.08 217.85 20.2C217.97 20.31 218.08 20.43 218.31 20.54C218.54 20.54 218.88 20.65 219.23 20.65L219.23 21L215.22 21L215.22 20.65C215.56 20.65 215.79 20.65 215.91 20.54C216.02 20.54 216.13 20.43 216.25 20.2C216.36 19.97 216.36 19.74 216.36 19.39L216.36 10.91L214.99 10.91C214.42 10.91 214.07 11.03 213.84 11.14C213.62 11.26 213.39 11.49 213.27 11.83C213.16 12.17 213.16 12.4 213.04 12.86L212.7 12.86L212.7 10.34L212.93 10.34Z" fill="#FFFFFF" fill-opacity="1.000000" fill-rule="nonzero"/>
	<path id="Vector" d="M232.51 19.39C232.62 19.74 232.74 20.08 232.85 20.2C232.96 20.31 233.08 20.43 233.31 20.54C233.54 20.65 233.65 20.65 234 20.65L234 21L230.22 21L230.22 20.65C230.56 20.65 230.9 20.54 231.02 20.54C231.25 20.54 231.25 20.43 231.36 20.2C231.48 19.97 231.36 19.74 231.25 19.39L230.33 16.64C230.33 16.64 230.22 16.76 230.1 16.76C229.99 16.76 229.87 16.76 229.76 16.76L227.7 16.76C227.47 16.76 227.24 16.76 227.13 16.87C227.01 16.99 226.9 17.1 226.78 17.33L225.98 19.39C225.87 19.85 225.87 20.08 225.98 20.31C226.1 20.54 226.55 20.65 227.24 20.65L227.24 21L223.81 21L223.81 20.65C224.15 20.65 224.38 20.54 224.61 20.31C224.84 20.08 224.95 19.85 225.18 19.39L228.04 11.6C228.16 11.37 228.27 11.03 228.39 10.8C228.5 10.57 228.61 10.22 228.61 10L229.42 10C229.53 10.22 229.53 10.57 229.64 10.8C229.76 11.03 229.87 11.37 229.99 11.6L232.51 19.39ZM229.64 16.18C229.76 16.18 229.87 16.18 229.99 16.18C229.99 16.18 229.99 16.07 229.99 15.96L228.73 12.06L227.24 16.3C227.24 16.3 227.35 16.3 227.47 16.3C227.58 16.3 227.58 16.3 227.7 16.3L229.64 16.3L229.64 16.18Z" fill="#FFFFFF" fill-opacity="1.000000" fill-rule="nonzero"/>
	<path id="ваш надійний адвокат" d="M152.64 26.25L152.47 26.16Q152.3 26.58 152.07 26.8Q151.95 26.9 151.82 26.96Q151.68 27.01 151.53 27.01Q151.32 27.01 151.17 26.92Q151.12 26.88 151.07 26.83Q150.9 26.64 150.89 26.21Q150.69 26.22 150.53 26.25Q150.37 26.27 150.2 26.34Q150.27 27 150.58 27.25Q150.76 27.4 150.97 27.46Q151.12 27.51 151.28 27.51Q151.39 27.51 151.5 27.49Q151.83 27.43 152.13 27.2Q152.15 27.18 152.17 27.16Q152.53 26.85 152.64 26.25ZM176.97 26.25L176.8 26.16Q176.63 26.58 176.39 26.8Q176.28 26.9 176.15 26.96Q176.01 27.01 175.85 27.01Q175.65 27.01 175.5 26.92Q175.45 26.88 175.4 26.83Q175.23 26.64 175.21 26.21Q175.02 26.22 174.85 26.25Q174.69 26.27 174.53 26.34Q174.6 27 174.91 27.25Q175.09 27.4 175.29 27.46Q175.44 27.51 175.61 27.51Q175.72 27.51 175.83 27.49Q176.16 27.43 176.45 27.2Q176.47 27.18 176.49 27.16Q176.86 26.85 176.97 26.25ZM107.25 33.55Q107.15 33.41 107.05 33.09L105.58 28.72Q105.49 28.49 105.41 28.26Q105.34 28.04 105.27 27.8L104.83 27.8Q104.77 28.04 104.69 28.26Q104.61 28.49 104.52 28.72L102.92 33.09Q102.8 33.44 102.63 33.6Q102.61 33.63 102.59 33.64Q102.43 33.77 102.18 33.79L102.18 34L104.04 34L104.04 33.79Q103.47 33.77 103.34 33.6Q103.22 33.44 103.34 33.09L103.76 31.91Q103.83 31.71 103.93 31.67Q104.03 31.62 104.23 31.62L105.41 31.62Q105.51 31.62 105.6 31.61Q105.69 31.59 105.73 31.55L106.25 33.09Q106.35 33.39 106.33 33.54Q106.33 33.6 106.3 33.64Q106.25 33.7 106.17 33.73Q106.02 33.77 105.72 33.79L105.72 34L107.87 34L107.87 33.79Q107.63 33.77 107.49 33.73Q107.47 33.73 107.45 33.72Q107.34 33.67 107.25 33.55ZM135.67 33.55Q135.58 33.41 135.47 33.09L134 28.72Q133.91 28.49 133.84 28.26Q133.76 28.04 133.7 27.8L133.26 27.8Q133.19 28.04 133.11 28.26Q133.03 28.49 132.94 28.72L131.35 33.09Q131.22 33.44 131.05 33.6Q131.03 33.63 131.01 33.64Q130.85 33.77 130.6 33.79L130.6 34L132.46 34L132.46 33.79Q131.89 33.77 131.76 33.6Q131.64 33.44 131.76 33.09L132.18 31.91Q132.26 31.71 132.36 31.67Q132.45 31.62 132.65 31.62L133.83 31.62Q133.93 31.62 134.02 31.61Q134.11 31.59 134.15 31.55L134.67 33.09Q134.78 33.39 134.76 33.54Q134.75 33.6 134.72 33.64Q134.67 33.7 134.59 33.73Q134.44 33.77 134.14 33.79L134.14 34L136.29 34L136.29 33.79Q136.05 33.77 135.91 33.73Q135.89 33.73 135.88 33.72Q135.76 33.67 135.67 33.55ZM141.85 33.09L140.52 28.72Q140.45 28.49 140.37 28.26Q140.28 28.04 140.22 27.8L139.78 27.8Q139.76 27.86 139.75 27.92Q139.7 28.09 139.63 28.26Q139.55 28.49 139.46 28.72L138.16 32.65Q138.03 33.04 137.8 33.37Q137.68 33.56 137.5 33.67Q137.37 33.75 137.21 33.79L137.21 35.75L137.42 35.75Q137.43 35.61 137.45 35.48Q137.49 35.2 137.59 34.92Q137.75 34.52 138 34.26Q138.21 34.03 138.45 34Q138.5 34 138.54 34L141.35 34Q141.56 34 141.77 34.16Q141.98 34.33 142.11 34.72Q142.23 35.1 142.17 35.75L142.37 35.75L142.7 33.79Q142.38 33.72 142.22 33.63Q142.06 33.54 141.98 33.41Q141.91 33.28 141.85 33.09ZM188.78 33.55Q188.69 33.41 188.58 33.09L187.11 28.72Q187.02 28.49 186.95 28.26Q186.87 28.04 186.8 27.8L186.37 27.8Q186.3 28.04 186.22 28.26Q186.14 28.49 186.05 28.72L184.46 33.09Q184.33 33.44 184.16 33.6Q184.14 33.63 184.12 33.64Q183.96 33.77 183.71 33.79L183.71 34L185.57 34L185.57 33.79Q185 33.77 184.87 33.6Q184.75 33.44 184.87 33.09L185.29 31.91Q185.37 31.71 185.46 31.67Q185.56 31.62 185.76 31.62L186.94 31.62Q187.04 31.62 187.13 31.61Q187.22 31.59 187.26 31.55L187.78 33.09Q187.89 33.39 187.87 33.54Q187.86 33.6 187.83 33.64Q187.78 33.7 187.7 33.73Q187.55 33.77 187.25 33.79L187.25 34L189.4 34L189.4 33.79Q189.16 33.77 189.02 33.73Q189 33.73 188.99 33.72Q188.87 33.67 188.78 33.55ZM194.96 33.09L193.63 28.72Q193.56 28.49 193.47 28.26Q193.39 28.04 193.33 27.8L192.89 27.8Q192.87 27.86 192.86 27.92Q192.8 28.09 192.74 28.26Q192.65 28.49 192.57 28.72L191.27 32.65Q191.13 33.04 190.91 33.37Q190.79 33.56 190.61 33.67Q190.48 33.75 190.32 33.79L190.32 35.75L190.53 35.75Q190.54 35.61 190.56 35.48Q190.6 35.2 190.7 34.92Q190.86 34.52 191.11 34.26Q191.32 34.03 191.56 34Q191.6 34 191.65 34L194.46 34Q194.67 34 194.88 34.16Q195.09 34.33 195.21 34.72Q195.34 35.1 195.27 35.75L195.48 35.75L195.81 33.79Q195.49 33.72 195.33 33.63Q195.17 33.54 195.09 33.41Q195.02 33.28 194.96 33.09ZM223.59 33.55Q223.49 33.41 223.38 33.09L221.91 28.72Q221.83 28.49 221.75 28.26Q221.67 28.04 221.61 27.8L221.17 27.8Q221.1 28.04 221.02 28.26Q220.94 28.49 220.85 28.72L219.26 33.09Q219.13 33.44 218.97 33.6Q218.94 33.63 218.92 33.64Q218.76 33.77 218.51 33.79L218.51 34L220.37 34L220.37 33.79Q219.8 33.77 219.68 33.6Q219.56 33.44 219.67 33.09L220.1 31.91Q220.17 31.71 220.27 31.67Q220.37 31.62 220.56 31.62L221.74 31.62Q221.84 31.62 221.93 31.61Q222.02 31.59 222.07 31.55L222.58 33.09Q222.69 33.39 222.67 33.54Q222.66 33.6 222.63 33.64Q222.59 33.7 222.5 33.73Q222.35 33.77 222.05 33.79L222.05 34L224.2 34L224.2 33.79Q223.97 33.77 223.82 33.73Q223.81 33.73 223.79 33.72Q223.67 33.67 223.59 33.55ZM207.92 28.03Q207.46 27.88 206.95 27.88Q206.49 27.88 206.07 28Q205.93 28.04 205.79 28.1Q205.53 28.21 205.3 28.36Q205.04 28.52 204.83 28.74Q204.78 28.78 204.74 28.83Q204.38 29.21 204.17 29.73Q203.93 30.31 203.93 31.02Q203.93 31.73 204.17 32.3Q204.38 32.81 204.74 33.2Q204.78 33.24 204.83 33.29Q205.05 33.5 205.3 33.66Q205.53 33.81 205.79 33.91Q205.94 33.97 206.1 34.02Q206.5 34.13 206.94 34.13Q207.36 34.13 207.76 34.02Q207.93 33.97 208.1 33.9Q208.41 33.78 208.68 33.59Q208.88 33.45 209.07 33.27Q209.14 33.2 209.2 33.12Q209.52 32.76 209.72 32.28Q209.96 31.7 209.96 30.99Q209.96 30.28 209.72 29.7Q209.53 29.23 209.2 28.86Q209.13 28.79 209.06 28.72Q208.82 28.48 208.53 28.31Q208.33 28.18 208.1 28.09Q208.01 28.06 207.92 28.03ZM95.89 33.79L95.89 34L98.41 34Q99.26 34 99.79 33.72Q100.32 33.44 100.56 33Q100.75 32.67 100.8 32.31Q100.81 32.2 100.81 32.1Q100.81 31.71 100.64 31.42Q100.6 31.35 100.56 31.29Q100.53 31.25 100.5 31.22Q100.26 30.94 99.88 30.77Q99.45 30.58 98.9 30.56L98.9 30.54Q99.42 30.35 99.78 30.03Q99.9 29.92 99.98 29.8Q100.14 29.53 100.14 29.15Q100.14 28.91 100.05 28.71Q99.94 28.47 99.7 28.3Q99.26 27.97 98.31 27.97Q97.99 27.97 97.75 27.97Q97.52 27.98 97.24 28Q96.96 28.01 96.52 28.01L95.66 28.01L95.66 28.22Q96.02 28.23 96.2 28.27Q96.33 28.3 96.4 28.39Q96.43 28.42 96.45 28.46Q96.52 28.59 96.52 28.91L96.52 33.09Q96.52 33.4 96.46 33.55Q96.43 33.62 96.38 33.67Q96.33 33.71 96.27 33.74Q96.13 33.78 95.89 33.79ZM197.12 33.79L197.12 34L199.65 34Q200.49 34 201.02 33.72Q201.55 33.44 201.79 33Q201.99 32.67 202.03 32.31Q202.04 32.2 202.04 32.1Q202.04 31.71 201.87 31.42Q201.84 31.35 201.79 31.29Q201.76 31.25 201.74 31.22Q201.49 30.94 201.11 30.77Q200.68 30.58 200.13 30.56L200.13 30.54Q200.66 30.35 201.02 30.03Q201.13 29.92 201.21 29.8Q201.38 29.53 201.38 29.15Q201.38 28.91 201.29 28.71Q201.18 28.47 200.93 28.3Q200.49 27.97 199.54 27.97Q199.23 27.97 198.99 27.97Q198.75 27.98 198.47 28Q198.19 28.01 197.75 28.01L196.89 28.01L196.89 28.22Q197.25 28.23 197.43 28.27Q197.57 28.3 197.64 28.39Q197.66 28.42 197.68 28.46Q197.75 28.59 197.75 28.91L197.75 33.09Q197.75 33.4 197.69 33.55Q197.67 33.62 197.61 33.67Q197.57 33.71 197.5 33.74Q197.36 33.78 197.12 33.79ZM116.85 33.55Q116.78 33.4 116.78 33.09L116.78 28.91Q116.78 28.59 116.84 28.46Q116.88 28.37 116.94 28.32Q116.98 28.29 117.04 28.27Q117.17 28.23 117.41 28.22L117.41 28.01L115.35 28.01L115.35 28.22Q115.62 28.23 115.76 28.27Q115.83 28.29 115.88 28.34Q115.93 28.39 115.96 28.46Q116.02 28.59 116.02 28.91L116.02 33.09Q116.02 33.47 115.91 33.57Q115.8 33.67 115.57 33.67L114.62 33.67Q114.27 33.67 114.09 33.63Q113.92 33.59 113.85 33.49Q113.84 33.48 113.84 33.47Q113.77 33.35 113.77 33.09L113.77 28.91Q113.77 28.59 113.83 28.46Q113.87 28.37 113.93 28.32Q113.97 28.29 114.02 28.27Q114.16 28.23 114.4 28.22L114.4 28.01L112.34 28.01L112.34 28.22Q112.6 28.23 112.74 28.27Q112.82 28.29 112.87 28.34Q112.92 28.39 112.95 28.46Q113 28.59 113 28.91L113 33.09Q113 33.47 112.9 33.57Q112.79 33.67 112.55 33.67L111.43 33.67Q111.03 33.67 110.89 33.57Q110.75 33.47 110.75 33.09L110.75 28.91Q110.75 28.59 110.81 28.46Q110.85 28.37 110.91 28.32Q110.95 28.29 111.01 28.27Q111.14 28.23 111.39 28.22L111.39 28.01L109.14 28.01L109.14 28.22Q109.5 28.23 109.68 28.27Q109.82 28.3 109.89 28.39Q109.91 28.42 109.93 28.46Q109.99 28.59 109.99 28.91L109.99 33.09Q109.99 33.4 109.94 33.55Q109.91 33.62 109.85 33.67Q109.81 33.71 109.74 33.74Q109.6 33.78 109.36 33.79L109.36 34L117.64 34L117.64 33.79Q117.29 33.78 117.1 33.74Q116.97 33.7 116.89 33.61Q116.87 33.58 116.85 33.55ZM123.07 33.79L123.07 34L125.31 34L125.31 33.79Q124.96 33.78 124.78 33.74Q124.65 33.7 124.58 33.62Q124.55 33.59 124.53 33.55Q124.46 33.4 124.46 33.09L124.46 31.11Q124.46 30.88 124.56 30.8Q124.66 30.72 124.9 30.72L127.28 30.72Q127.41 30.72 127.52 30.7Q127.62 30.69 127.69 30.63Q127.69 30.63 127.7 30.62L127.7 33.09Q127.7 33.4 127.65 33.55Q127.62 33.62 127.57 33.67Q127.52 33.71 127.45 33.74Q127.32 33.78 127.07 33.79L127.07 34L129.31 34L129.31 33.79Q128.96 33.78 128.78 33.74Q128.64 33.7 128.57 33.61Q128.54 33.58 128.53 33.55Q128.47 33.4 128.47 33.09L128.47 28.91Q128.47 28.59 128.52 28.46Q128.56 28.37 128.63 28.32Q128.67 28.29 128.72 28.27Q128.85 28.23 129.1 28.22L129.1 28.01L126.85 28.01L126.85 28.22Q127.21 28.23 127.39 28.27Q127.52 28.3 127.59 28.39Q127.62 28.42 127.63 28.46Q127.7 28.59 127.7 28.91L127.7 29.99Q127.7 30.23 127.6 30.31Q127.5 30.4 127.26 30.4L124.89 30.4Q124.74 30.4 124.64 30.41Q124.53 30.43 124.46 30.49L124.46 28.91Q124.46 28.59 124.52 28.46Q124.56 28.37 124.62 28.32Q124.66 28.29 124.71 28.27Q124.85 28.23 125.09 28.22L125.09 28.01L122.84 28.01L122.84 28.22Q123.2 28.23 123.38 28.27Q123.51 28.3 123.58 28.39Q123.61 28.42 123.63 28.46Q123.7 28.59 123.7 28.91L123.7 33.09Q123.7 33.4 123.64 33.55Q123.61 33.62 123.56 33.67Q123.51 33.71 123.45 33.74Q123.31 33.78 123.07 33.79ZM144.09 33.79L144.09 34L146.34 34L146.34 33.79Q145.99 33.78 145.8 33.74Q145.67 33.7 145.6 33.62Q145.57 33.59 145.55 33.55Q145.49 33.4 145.49 33.09L145.49 28.91Q145.49 28.59 145.54 28.46Q145.58 28.37 145.64 28.32Q145.68 28.29 145.74 28.27Q145.87 28.23 146.12 28.22L146.12 28.01L143.87 28.01L143.87 28.22Q144.23 28.23 144.4 28.27Q144.53 28.3 144.61 28.39Q144.63 28.42 144.65 28.46Q144.72 28.59 144.72 28.91L144.72 33.09Q144.72 33.4 144.67 33.55Q144.64 33.62 144.58 33.67Q144.54 33.71 144.47 33.74Q144.33 33.78 144.09 33.79ZM148.28 33.79L148.28 34L149.5 34L152.92 28.97L152.92 33.09Q152.92 33.4 152.87 33.55Q152.84 33.62 152.78 33.67Q152.74 33.71 152.67 33.74Q152.53 33.78 152.29 33.79L152.29 34L154.53 34L154.53 33.79Q154.18 33.78 153.99 33.74Q153.86 33.7 153.79 33.61Q153.76 33.58 153.75 33.55Q153.69 33.4 153.69 33.09L153.69 28.91Q153.69 28.59 153.74 28.46Q153.78 28.37 153.84 28.32Q153.88 28.29 153.94 28.27Q154.07 28.23 154.32 28.22L154.32 28.01L153.1 28.01L149.68 33.04L149.68 28.91Q149.68 28.59 149.74 28.46Q149.77 28.37 149.84 28.32Q149.88 28.29 149.93 28.27Q150.07 28.23 150.31 28.22L150.31 28.01L148.06 28.01L148.06 28.22Q148.42 28.23 148.6 28.27Q148.73 28.3 148.8 28.39Q148.83 28.42 148.85 28.46Q148.91 28.59 148.91 28.91L148.91 33.09Q148.91 33.4 148.86 33.55Q148.83 33.62 148.78 33.67Q148.73 33.71 148.67 33.74Q148.53 33.78 148.28 33.79ZM156.39 33.79L156.39 34L158.63 34L158.63 33.79Q158.28 33.78 158.1 33.74Q157.98 33.7 157.91 33.62Q157.88 33.59 157.86 33.55Q157.79 33.4 157.79 33.09L157.79 31.11Q157.79 30.88 157.89 30.8Q157.99 30.72 158.23 30.72L160.61 30.72Q160.74 30.72 160.85 30.7Q160.94 30.69 161.01 30.63Q161.02 30.63 161.03 30.62L161.03 33.09Q161.03 33.4 160.97 33.55Q160.95 33.62 160.89 33.67Q160.85 33.71 160.78 33.74Q160.64 33.78 160.4 33.79L160.4 34L162.64 34L162.64 33.79Q162.29 33.78 162.1 33.74Q161.97 33.7 161.9 33.61Q161.87 33.58 161.86 33.55Q161.79 33.4 161.79 33.09L161.79 28.91Q161.79 28.59 161.85 28.46Q161.89 28.37 161.95 28.32Q161.99 28.29 162.04 28.27Q162.18 28.23 162.42 28.22L162.42 28.01L160.17 28.01L160.17 28.22Q160.53 28.23 160.71 28.27Q160.84 28.3 160.92 28.39Q160.94 28.42 160.96 28.46Q161.03 28.59 161.03 28.91L161.03 29.99Q161.03 30.23 160.93 30.31Q160.83 30.4 160.59 30.4L158.21 30.4Q158.07 30.4 157.96 30.41Q157.86 30.43 157.79 30.49L157.79 28.91Q157.79 28.59 157.85 28.46Q157.88 28.37 157.95 28.32Q157.99 28.29 158.04 28.27Q158.17 28.23 158.42 28.22L158.42 28.01L156.17 28.01L156.17 28.22Q156.53 28.23 156.71 28.27Q156.84 28.3 156.91 28.39Q156.94 28.42 156.96 28.46Q157.02 28.59 157.02 28.91L157.02 33.09Q157.02 33.4 156.97 33.55Q156.94 33.62 156.89 33.67Q156.84 33.71 156.78 33.74Q156.64 33.78 156.39 33.79ZM164.5 33.79L164.5 34L165.72 34L169.14 28.97L169.14 33.09Q169.14 33.4 169.08 33.55Q169.06 33.62 169 33.67Q168.96 33.71 168.89 33.74Q168.75 33.78 168.51 33.79L168.51 34L170.75 34L170.75 33.79Q170.4 33.78 170.21 33.74Q170.08 33.7 170.01 33.61Q169.98 33.58 169.96 33.55Q169.9 33.4 169.9 33.09L169.9 28.91Q169.9 28.59 169.96 28.46Q170 28.37 170.06 28.32Q170.1 28.29 170.15 28.27Q170.29 28.23 170.53 28.22L170.53 28.01L169.32 28.01L165.9 33.04L165.9 28.91Q165.9 28.59 165.95 28.46Q165.99 28.37 166.06 28.32Q166.1 28.29 166.15 28.27Q166.28 28.23 166.53 28.22L166.53 28.01L164.28 28.01L164.28 28.22Q164.64 28.23 164.82 28.27Q164.95 28.3 165.02 28.39Q165.05 28.42 165.06 28.46Q165.13 28.59 165.13 28.91L165.13 33.09Q165.13 33.4 165.08 33.55Q165.05 33.62 165 33.67Q164.95 33.71 164.88 33.74Q164.75 33.78 164.5 33.79ZM172.61 33.79L172.61 34L173.83 34L177.25 28.97L177.25 33.09Q177.25 33.4 177.19 33.55Q177.16 33.62 177.11 33.67Q177.06 33.71 177 33.74Q176.86 33.78 176.62 33.79L176.62 34L178.86 34L178.86 33.79Q178.51 33.78 178.32 33.74Q178.18 33.7 178.11 33.61Q178.09 33.58 178.07 33.55Q178.01 33.4 178.01 33.09L178.01 28.91Q178.01 28.59 178.07 28.46Q178.11 28.37 178.17 28.32Q178.21 28.29 178.26 28.27Q178.4 28.23 178.64 28.22L178.64 28.01L177.43 28.01L174.01 33.04L174.01 28.91Q174.01 28.59 174.06 28.46Q174.1 28.37 174.16 28.32Q174.21 28.29 174.26 28.27Q174.39 28.23 174.64 28.22L174.64 28.01L172.39 28.01L172.39 28.22Q172.75 28.23 172.93 28.27Q173.06 28.3 173.13 28.39Q173.16 28.42 173.17 28.46Q173.24 28.59 173.24 28.91L173.24 33.09Q173.24 33.4 173.19 33.55Q173.16 33.62 173.1 33.67Q173.06 33.71 172.99 33.74Q172.86 33.78 172.61 33.79ZM216.27 33.85Q216.55 34.05 217.07 34.05Q217.31 34.05 217.56 34L217.56 33.79Q217.36 33.79 217.21 33.74Q217.06 33.68 216.9 33.53Q216.75 33.37 216.5 33.07L214.4 30.39Q214.31 30.27 214.33 30.18Q214.35 30.13 214.4 30.09L216.11 28.69Q216.39 28.47 216.6 28.35Q216.82 28.24 217.09 28.22L217.09 28.01L215.2 28.01L215.2 28.22Q215.48 28.23 215.58 28.28Q215.65 28.31 215.67 28.37Q215.68 28.39 215.68 28.41Q215.68 28.49 215.61 28.58Q215.55 28.67 215.34 28.85L213.41 30.41L213.39 30.41L213.39 28.91Q213.39 28.59 213.45 28.46Q213.48 28.37 213.55 28.32Q213.59 28.29 213.64 28.27Q213.78 28.23 214.02 28.22L214.02 28.01L211.77 28.01L211.77 28.22Q212.13 28.23 212.31 28.27Q212.44 28.3 212.51 28.39Q212.54 28.42 212.56 28.46Q212.63 28.59 212.63 28.91L212.63 33.09Q212.63 33.4 212.57 33.55Q212.54 33.62 212.49 33.67Q212.44 33.71 212.38 33.74Q212.24 33.78 212 33.79L212 34L214.24 34L214.24 33.79Q213.88 33.78 213.7 33.74Q213.58 33.7 213.51 33.62Q213.48 33.59 213.46 33.55Q213.39 33.4 213.39 33.09L213.39 31.01Q213.39 30.84 213.44 30.8Q213.47 30.77 213.51 30.76Q213.54 30.75 213.57 30.75Q213.59 30.75 213.61 30.75Q213.66 30.76 213.7 30.8Q213.77 30.85 213.88 31L215.75 33.34Q215.99 33.64 216.27 33.85ZM230.33 28.01L225.48 28.01L225.48 29.41L225.68 29.41Q225.7 29.1 225.78 28.86Q225.82 28.75 225.88 28.66Q225.97 28.55 226.09 28.48Q226.32 28.33 226.77 28.33L227.52 28.33L227.52 33.09Q227.52 33.4 227.47 33.55Q227.44 33.62 227.38 33.67Q227.34 33.71 227.27 33.74Q227.13 33.78 226.89 33.79L226.89 34L229.14 34L229.14 33.79Q228.79 33.78 228.6 33.74Q228.47 33.7 228.39 33.61Q228.37 33.58 228.35 33.55Q228.29 33.4 228.29 33.09L228.29 28.33L229.03 28.33Q229.49 28.33 229.72 28.48Q229.85 28.55 229.93 28.67Q229.99 28.75 230.02 28.86Q230.1 29.1 230.12 29.41L230.33 29.41L230.33 28.01ZM207.58 33.7Q207.34 33.77 207.07 33.77Q206.93 33.77 206.79 33.75Q206.36 33.68 205.97 33.43Q205.45 33.09 205.13 32.43Q204.8 31.78 204.8 30.84Q204.8 29.99 205.08 29.41Q205.36 28.83 205.82 28.53Q206.07 28.37 206.34 28.3Q206.57 28.24 206.82 28.24Q207.02 28.24 207.22 28.28Q207.58 28.35 207.92 28.58Q208.43 28.92 208.76 29.57Q209.08 30.22 209.08 31.16Q209.08 32.02 208.8 32.6Q208.52 33.18 208.07 33.47Q207.83 33.63 207.58 33.7ZM97.5 30.56Q97.4 30.58 97.28 30.66L97.28 28.91Q97.28 28.49 97.45 28.39Q97.62 28.29 98.01 28.29Q98.32 28.29 98.62 28.36Q98.62 28.36 98.62 28.36Q98.84 28.41 99 28.54Q99.06 28.58 99.12 28.64Q99.32 28.85 99.32 29.27Q99.32 29.64 99.17 29.88Q99.08 30.03 98.95 30.14Q98.88 30.2 98.8 30.25Q98.57 30.39 98.29 30.45Q98.02 30.5 97.75 30.53Q97.61 30.54 97.5 30.56ZM198.73 30.56Q198.63 30.58 198.51 30.66L198.51 28.91Q198.51 28.49 198.68 28.39Q198.86 28.29 199.24 28.29Q199.55 28.29 199.85 28.36L199.85 28.36Q200.07 28.41 200.23 28.54Q200.3 28.58 200.35 28.64Q200.55 28.85 200.55 29.27Q200.55 29.64 200.4 29.88Q200.31 30.03 200.19 30.14Q200.11 30.2 200.03 30.25Q199.8 30.39 199.53 30.45Q199.25 30.5 198.98 30.53Q198.84 30.54 198.73 30.56ZM105.59 31.26Q105.54 31.29 105.43 31.29L104.22 31.29Q104.14 31.29 104.08 31.3Q104.01 31.3 103.97 31.32L104.83 28.94L104.85 28.94L105.59 31.12Q105.63 31.22 105.6 31.26Q105.59 31.26 105.59 31.26ZM134.01 31.26Q133.97 31.29 133.85 31.29L132.64 31.29Q132.56 31.29 132.5 31.3Q132.44 31.3 132.39 31.32L133.26 28.94L133.27 28.94L134.01 31.12Q134.05 31.22 134.02 31.26Q134.02 31.26 134.01 31.26ZM140.94 33.63Q140.8 33.66 140.5 33.67L138.22 33.67L139.78 28.94L139.8 28.94L141.03 33.09Q141.11 33.35 141.1 33.47Q141.09 33.51 141.07 33.55Q141.03 33.6 140.94 33.63ZM187.12 31.26Q187.07 31.29 186.96 31.29L185.75 31.29Q185.67 31.29 185.61 31.3Q185.55 31.3 185.5 31.32L186.37 28.94L186.38 28.94L187.12 31.12Q187.16 31.22 187.13 31.26Q187.12 31.26 187.12 31.26ZM194.05 33.63Q193.91 33.66 193.61 33.67L191.33 33.67L192.89 28.94L192.91 28.94L194.14 33.09Q194.22 33.35 194.21 33.47Q194.2 33.51 194.18 33.55Q194.14 33.6 194.05 33.63ZM221.92 31.26Q221.88 31.29 221.76 31.29L220.56 31.29Q220.47 31.29 220.41 31.3Q220.35 31.3 220.3 31.32L221.17 28.94L221.19 28.94L221.92 31.12Q221.96 31.22 221.93 31.26Q221.93 31.26 221.92 31.26ZM99.34 33.44Q98.98 33.67 98.34 33.67Q97.92 33.67 97.69 33.64Q97.46 33.6 97.37 33.48Q97.28 33.36 97.28 33.09L97.28 31.36Q97.28 31.13 97.4 31.01Q97.43 30.97 97.48 30.94Q97.69 30.83 98.13 30.83Q98.65 30.83 99.07 30.96Q99.45 31.08 99.69 31.33Q99.71 31.36 99.73 31.38Q99.74 31.39 99.74 31.39Q99.98 31.68 99.98 32.17Q99.98 32.51 99.84 32.86Q99.82 32.91 99.79 32.96Q99.64 33.24 99.34 33.44ZM200.57 33.44Q200.21 33.67 199.58 33.67Q199.15 33.67 198.92 33.64Q198.69 33.6 198.6 33.48Q198.51 33.36 198.51 33.09L198.51 31.36Q198.51 31.13 198.63 31.01Q198.67 30.97 198.72 30.94Q198.92 30.83 199.36 30.83Q199.88 30.83 200.3 30.96Q200.68 31.08 200.92 31.33Q200.94 31.36 200.97 31.38Q200.97 31.39 200.97 31.39Q201.21 31.68 201.21 32.17Q201.21 32.51 201.07 32.86Q201.05 32.91 201.02 32.96Q200.87 33.24 200.57 33.44Z" fill="#FFFFFF" fill-opacity="1.000000" fill-rule="evenodd"/>
</svg>
