<svg width="234.000000" height="40.000000" viewBox="0 0 234 40" fill="none" xmlns="http://www.w3.org/2000/svg" xmlns:xlink="http://www.w3.org/1999/xlink">
	<desc>
			Created with Pixso.
	</desc>
	<defs/>
	<path id="Vector" d="M54.71 2.33C55.3 2.13 60.63 3.2 61.8 3.1C61.89 2.81 62.09 2.42 62.28 2.33L47.92 0.29C47.63 1.26 47.34 2.23 47.05 3.2C46.76 4.17 46.37 5.14 45.88 6.11L35.02 31.95L34.92 31.95L23.28 6.11C22.79 5.05 22.31 4.07 21.92 3.1C21.53 2.23 21.24 1.26 20.95 0.29L6.98 2.62C7.17 2.81 7.37 3.2 7.37 3.59C9.41 3.39 13.67 2.23 14.26 2.33C15.03 2.52 15.52 2.52 15.81 3.2C16.1 3.88 16.2 4.75 16.1 6.11L14.74 33.21C14.74 34.67 14.35 35.74 13.77 36.51C13.19 37.29 12.12 37.68 10.57 37.78L10.57 39.14L22.99 39.14L22.99 37.78C20.66 37.68 19.11 37.29 18.43 36.51C17.75 35.74 17.36 34.67 17.46 33.21L18.62 8.25L18.72 8.25L29.88 33.02C30.65 34.67 31.24 35.93 31.62 36.81C32.01 37.68 32.4 38.65 32.69 39.53L35.12 39.53C35.31 38.65 35.6 37.78 35.99 36.81C36.38 35.83 36.86 34.67 37.54 33.02L48.21 7.86L48.31 7.86L49.38 33.31C49.47 34.67 49.38 35.64 49.18 36.22C48.99 36.81 48.6 37.19 48.02 37.39C47.44 37.58 46.76 37.68 45.79 37.78L45.79 39.14L59.27 39.14L59.27 37.78C58.01 37.68 56.95 37.58 56.27 37.39C55.59 37.19 55.1 36.81 54.81 36.22C54.52 35.64 54.33 34.67 54.33 33.31L53.06 6.21C53.06 4.85 53.16 3.88 53.36 3.3C53.55 2.71 54.13 2.52 54.71 2.33Z" fill="#0D1E3A" fill-opacity="1.000000" fill-rule="nonzero"/>
	<path id="Vector" d="M34.82 2.33C32.4 0.77 29.1 0 25.12 0C24.35 0 23.28 0 22.12 0.09L22.12 0.58C22.31 1.16 22.5 1.65 22.6 2.23C22.89 2.23 23.28 2.13 23.57 2.13C25.22 2.13 26.68 2.33 28.13 2.71C29.59 3.1 30.65 3.88 31.53 4.85C32.4 5.92 32.88 7.47 32.88 9.42C32.88 10.97 32.5 12.52 31.82 13.88C31.24 14.95 30.27 15.92 29.1 16.6L30.17 18.93C31.91 18.45 33.37 17.77 34.53 16.9C35.89 15.83 36.96 14.66 37.54 13.2C38.22 11.84 38.51 10.48 38.51 9.03C38.51 6.11 37.35 3.88 34.82 2.33Z" fill="#0D1E3A" fill-opacity="1.000000" fill-rule="nonzero"/>
	<path id="Vector" d="M23.09 19.71C21.82 19.71 20.37 19.71 18.91 19.52L18.91 17.77C20.17 17.87 21.24 17.87 22.31 17.87L23.09 19.71Z" fill="#0D1E3A" fill-opacity="1.000000" fill-rule="nonzero"/>
	<path id="Vector" d="M10.96 26.51L10.86 26.9C10.28 28.65 9.41 30.1 8.34 30.98C7.56 31.56 6.88 31.85 5.82 31.95C3.78 32.05 2.13 31.08 0.97 28.94C0.67 28.36 0.29 27.48 0.09 26.9L0 26.51L0.09 26.41C0.19 26.32 0.29 26.03 0.97 22.43C1.45 20.29 2.52 15.05 3.39 10.78C3.88 8.64 4.26 6.6 4.55 5.14C4.65 5.24 4.65 5.24 4.75 5.24C3.49 11.26 0.38 26.12 0.38 26.22C0.38 26.32 5.33 26.41 5.33 26.22C5.33 26.12 5.33 23.4 5.33 14.56C5.33 10 5.33 7.18 5.33 5.53C5.33 5.53 5.33 5.53 5.43 5.53L5.53 5.53C5.53 7.67 5.53 10.97 5.53 14.66C5.53 23.6 5.53 26.22 5.53 26.32C5.53 26.41 10.47 26.41 10.47 26.32C10.47 26.22 9.89 23.4 9.21 20.1C8.53 16.7 7.47 11.46 6.79 8.54C6.59 7.38 6.3 6.31 6.11 5.34C6.2 5.34 6.2 5.24 6.3 5.24C6.79 7.38 7.47 10.87 8.24 14.76C10.57 25.44 10.76 26.41 10.96 26.51Z" fill="#0D1E3A" fill-opacity="1.000000" fill-rule="nonzero"/>
	<path id="Vector" d="M5.53 2.33C4.75 2.33 4.17 2.91 4.17 3.69C4.17 4.46 4.75 5.05 5.53 5.05C6.3 5.05 6.88 4.46 6.88 3.69C6.88 2.91 6.3 2.33 5.53 2.33ZM5.53 4.17C5.23 4.17 4.94 3.98 4.94 3.69C4.94 3.39 5.14 3.1 5.53 3.1C5.82 3.1 6.11 3.3 6.11 3.69C6.01 3.98 5.82 4.17 5.53 4.17Z" fill="#0D1E3A" fill-opacity="1.000000" fill-rule="nonzero"/>
	<path id="Vector" d="M69.17 26.51L69.07 26.9C68.49 28.65 67.62 30.1 66.55 30.98C65.77 31.56 65.09 31.85 64.03 31.95C61.99 32.05 60.34 31.08 59.18 28.94C58.89 28.36 58.5 27.48 58.3 26.9L58.21 26.51L58.3 26.41C58.4 26.32 58.5 26.03 59.18 22.43C59.66 20.29 60.73 15.05 61.6 10.78C62.09 8.64 62.48 6.6 62.77 5.14C62.86 5.24 62.86 5.24 62.96 5.24C61.7 11.26 58.59 26.12 58.59 26.22C58.59 26.32 63.54 26.41 63.54 26.22C63.54 26.12 63.54 23.4 63.54 14.56C63.54 10 63.54 7.18 63.54 5.53C63.54 5.53 63.54 5.53 63.64 5.53L63.74 5.53C63.74 7.67 63.74 10.97 63.74 14.66C63.74 23.6 63.74 26.22 63.74 26.32C63.74 26.41 68.68 26.41 68.68 26.32C68.68 26.22 68.1 23.4 67.42 20.1C66.74 16.7 65.68 11.46 65 8.54C64.8 7.38 64.51 6.31 64.32 5.34C64.42 5.34 64.42 5.24 64.51 5.24C65 7.38 65.68 10.87 66.45 14.76C68.78 25.44 68.98 26.41 69.17 26.51Z" fill="#0D1E3A" fill-opacity="1.000000" fill-rule="nonzero"/>
	<path id="Vector" d="M63.74 2.33C62.96 2.33 62.38 2.91 62.38 3.69C62.38 4.46 62.96 5.05 63.74 5.05C64.51 5.05 65.09 4.46 65.09 3.69C65.09 2.91 64.51 2.33 63.74 2.33ZM63.74 4.17C63.45 4.17 63.15 3.98 63.15 3.69C63.15 3.39 63.35 3.1 63.74 3.1C64.03 3.1 64.32 3.3 64.32 3.69C64.22 3.98 64.03 4.17 63.74 4.17Z" fill="#0D1E3A" fill-opacity="1.000000" fill-rule="nonzero"/>
	<path id="Vector" d="M97.18 19.23C97.06 19 96.95 18.77 96.83 18.43C96.72 18.2 96.61 17.85 96.38 17.39L93.28 10.52L92.94 17.39C92.94 17.74 93.06 18.08 93.17 18.31C93.4 18.54 93.74 18.65 94.43 18.65L94.43 19L91 19L91 18.65C91.45 18.65 91.68 18.54 91.91 18.31C92.03 18.08 92.14 17.85 92.14 17.39L92.48 9.94C92.48 9.6 92.48 9.26 92.37 9.14C92.25 9.03 92.14 8.91 91.91 8.8C91.68 8.8 91.45 8.68 91 8.68L91 8.34L93.74 8.34C93.86 8.57 93.97 8.91 93.97 9.14C93.97 9.37 94.2 9.71 94.32 9.94L97.52 17.05L100.5 9.94C100.61 9.71 100.73 9.37 100.84 9.14C100.96 8.91 101.07 8.57 101.07 8.34L103.59 8.34L103.59 8.68C103.25 8.68 103.02 8.68 102.9 8.8C102.79 8.8 102.67 8.91 102.56 9.14C102.44 9.37 102.44 9.6 102.44 9.94L102.79 17.39C102.79 17.74 102.9 18.08 102.9 18.2C102.9 18.31 103.13 18.43 103.36 18.54C103.59 18.54 103.82 18.65 104.16 18.65L104.16 19L100.5 19L100.5 18.65C100.73 18.65 100.96 18.65 101.07 18.54C101.19 18.54 101.3 18.43 101.41 18.2C101.53 17.97 101.53 17.74 101.41 17.39L101.07 10.4L98.09 17.28C97.86 17.74 97.75 18.08 97.64 18.31C97.52 18.54 97.41 18.77 97.41 19.11L97.18 19.11L97.18 19.23Z" fill="#0D1E3A" fill-opacity="1.000000" fill-rule="nonzero"/>
	<path id="Vector" d="M115.38 17.39C115.5 17.74 115.61 18.08 115.73 18.2C115.84 18.31 115.95 18.43 116.18 18.54C116.41 18.65 116.53 18.65 116.87 18.65L116.87 19L113.09 19L113.09 18.65C113.44 18.65 113.78 18.54 113.89 18.54C114.12 18.54 114.12 18.43 114.24 18.2C114.24 18.08 114.24 17.74 114.12 17.39L113.21 14.64C113.21 14.64 113.09 14.76 112.98 14.76C112.86 14.76 112.75 14.76 112.63 14.76L110.57 14.76C110.34 14.76 110.12 14.76 110 14.87C109.89 14.99 109.77 15.1 109.66 15.33L108.86 17.39C108.74 17.85 108.74 18.08 108.86 18.31C108.97 18.54 109.43 18.65 110.12 18.65L110.12 19L106.8 19L106.8 18.65C107.14 18.65 107.37 18.54 107.6 18.31C107.83 18.08 107.94 17.85 108.17 17.39L111.03 9.6C111.15 9.37 111.26 9.03 111.37 8.8C111.49 8.57 111.6 8.22 111.6 8L112.41 8C112.52 8.22 112.52 8.57 112.63 8.8C112.75 9.03 112.86 9.37 112.98 9.6L115.38 17.39ZM112.52 14.18C112.63 14.18 112.75 14.18 112.86 14.18C112.86 14.18 112.86 14.07 112.86 13.96L111.6 10.06L110.12 14.3C110.12 14.3 110.23 14.3 110.34 14.3C110.46 14.3 110.46 14.3 110.57 14.3L112.52 14.3L112.52 14.18Z" fill="#0D1E3A" fill-opacity="1.000000" fill-rule="nonzero"/>
	<path id="Vector" d="M119.5 19L119.5 18.65C119.85 18.65 120.08 18.65 120.19 18.54C120.31 18.54 120.42 18.43 120.53 18.2C120.65 18.08 120.65 17.74 120.65 17.39L120.65 9.94C120.65 9.6 120.65 9.26 120.53 9.14C120.42 9.03 120.31 8.91 120.08 8.8C119.85 8.8 119.5 8.68 119.16 8.68L119.16 8.34L120.65 8.34C121.34 8.34 122.02 8.34 122.37 8.34C122.82 8.34 123.17 8.34 123.51 8.34C124.66 8.34 125.57 8.57 126.14 9.03C126.83 9.49 127.17 10.06 127.17 10.86C127.17 11.2 127.06 11.66 126.95 12.01C126.72 12.35 126.49 12.69 126.14 13.04C125.8 13.38 125.23 13.5 124.66 13.73C124.08 13.84 123.28 13.96 122.37 13.84L122.37 13.38C123.17 13.5 123.85 13.38 124.43 13.15C124.88 12.92 125.23 12.69 125.46 12.24C125.69 11.89 125.8 11.43 125.8 10.98C125.8 10.4 125.69 10.06 125.46 9.71C125.23 9.37 124.88 9.26 124.54 9.14C124.2 9.03 123.74 9.03 123.28 9.03C122.94 9.03 122.6 9.14 122.48 9.26C122.37 9.37 122.25 9.71 122.25 10.17L122.25 17.62C122.25 17.97 122.25 18.31 122.37 18.43C122.48 18.54 122.6 18.65 122.82 18.77C123.05 18.77 123.4 18.88 123.85 18.88L123.85 19.23L119.5 19.23L119.5 19Z" fill="#0D1E3A" fill-opacity="1.000000" fill-rule="nonzero"/>
	<path id="Vector" d="M139.42 19.11C138.85 19.11 138.28 19 138.05 18.77C137.71 18.54 137.36 18.2 137.14 17.85L133.82 13.73C133.7 13.61 133.59 13.38 133.47 13.38C133.36 13.27 133.36 13.27 133.24 13.27C133.13 13.27 133.13 13.27 133.01 13.38C132.9 13.5 132.9 13.61 132.9 13.73L132.9 17.39C132.9 17.74 132.9 18.08 133.01 18.2C133.13 18.31 133.24 18.43 133.47 18.54C133.7 18.54 134.04 18.65 134.39 18.65L134.39 19L130.38 19L130.38 18.65C130.72 18.65 130.95 18.65 131.07 18.54C131.18 18.54 131.3 18.43 131.41 18.2C131.53 18.08 131.53 17.74 131.53 17.39L131.53 9.94C131.53 9.6 131.53 9.26 131.41 9.14C131.3 9.03 131.18 8.91 130.95 8.8C130.72 8.8 130.38 8.68 130.04 8.68L130.04 8.34L134.04 8.34L134.04 8.68C133.7 8.68 133.59 8.68 133.36 8.8C133.24 8.8 133.13 8.91 133.01 9.14C132.9 9.26 132.9 9.6 132.9 9.94L132.9 12.58L136.33 9.83C136.56 9.6 136.79 9.49 136.79 9.37C136.91 9.26 136.91 9.14 136.91 9.03C136.91 8.91 136.79 8.8 136.68 8.8C136.56 8.68 136.33 8.68 135.99 8.68L135.99 8.34L139.31 8.34L139.31 8.68C138.97 8.68 138.74 8.8 138.39 8.91C138.17 9.03 137.82 9.26 137.48 9.49L134.39 12.01C134.27 12.12 134.27 12.35 134.39 12.58L138.17 17.39C138.51 17.74 138.74 18.08 138.85 18.2C139.08 18.43 139.2 18.54 139.42 18.54C139.65 18.65 139.77 18.65 140 18.65L140 19C140.11 19.11 139.77 19.11 139.42 19.11Z" fill="#0D1E3A" fill-opacity="1.000000" fill-rule="nonzero"/>
	<path id="Vector" d="M143.2 19L143.2 18.65C143.55 18.65 143.78 18.65 143.89 18.54C144 18.54 144.12 18.43 144.23 18.2C144.35 18.08 144.35 17.74 144.35 17.39L144.35 9.94C144.35 9.6 144.35 9.26 144.23 9.14C144.12 9.03 144 8.91 143.78 8.8C143.55 8.8 143.2 8.68 142.86 8.68L142.86 8.34L146.87 8.34L146.87 8.68C146.52 8.68 146.41 8.68 146.18 8.8C146.07 8.8 145.95 8.91 145.84 9.14C145.72 9.26 145.72 9.6 145.72 9.94L145.72 17.39C145.72 17.74 145.72 18.08 145.84 18.2C145.95 18.31 146.07 18.43 146.3 18.54C146.52 18.54 146.87 18.65 147.21 18.65L147.21 19L143.2 19Z" fill="#0D1E3A" fill-opacity="1.000000" fill-rule="nonzero"/>
	<path id="Vector" d="M150.3 8.34L158.89 8.34L158.89 10.86L158.55 10.86C158.55 10.52 158.43 10.17 158.32 9.83C158.2 9.49 158.09 9.26 157.74 9.14C157.4 9.03 157.06 8.91 156.48 8.91L155.11 8.91L155.11 17.39C155.11 17.74 155.11 18.08 155.23 18.2C155.34 18.31 155.45 18.43 155.68 18.54C155.91 18.54 156.25 18.65 156.6 18.65L156.6 19L152.82 19L152.82 18.65C153.16 18.65 153.39 18.65 153.51 18.54C153.62 18.54 153.74 18.43 153.85 18.2C153.97 17.97 153.97 17.74 153.97 17.39L153.97 8.91L152.59 8.91C152.02 8.91 151.67 9.03 151.33 9.14C150.99 9.26 150.87 9.49 150.76 9.83C150.64 10.17 150.64 10.4 150.53 10.86L150.19 10.86L150.19 8.34L150.3 8.34Z" fill="#0D1E3A" fill-opacity="1.000000" fill-rule="nonzero"/>
	<path id="Vector" d="M169.88 17.39C169.99 17.74 170.11 18.08 170.22 18.2C170.34 18.31 170.45 18.43 170.68 18.54C170.91 18.65 171.03 18.65 171.37 18.65L171.37 19L167.59 19L167.59 18.65C167.93 18.65 168.28 18.54 168.39 18.54C168.62 18.54 168.62 18.43 168.74 18.2C168.74 18.08 168.74 17.74 168.62 17.39L167.7 14.64C167.7 14.64 167.59 14.76 167.48 14.76C167.36 14.76 167.25 14.76 167.13 14.76L165.07 14.76C164.84 14.76 164.61 14.76 164.5 14.87C164.38 14.99 164.27 15.1 164.16 15.33L163.35 17.39C163.24 17.85 163.24 18.08 163.35 18.31C163.47 18.54 163.93 18.65 164.61 18.65L164.61 19L161.29 19L161.29 18.65C161.64 18.65 161.87 18.54 162.09 18.31C162.32 18.08 162.44 17.85 162.67 17.39L165.53 9.6C165.64 9.37 165.76 9.03 165.87 8.8C165.99 8.57 166.1 8.22 166.1 8L166.9 8C167.02 8.22 167.02 8.57 167.13 8.8C167.25 9.03 167.36 9.37 167.48 9.6L169.88 17.39ZM167.02 14.18C167.13 14.18 167.25 14.18 167.36 14.18C167.36 14.18 167.36 14.07 167.36 13.96L166.1 10.06L164.61 14.3C164.61 14.3 164.73 14.3 164.84 14.3C164.96 14.3 164.96 14.3 165.07 14.3L167.02 14.3L167.02 14.18Z" fill="#0D1E3A" fill-opacity="1.000000" fill-rule="nonzero"/>
	<path id="Vector" d="M174 19L174 18.65C174.35 18.65 174.57 18.65 174.69 18.54C174.8 18.54 174.92 18.43 175.03 18.2C175.15 18.08 175.15 17.74 175.15 17.39L175.15 9.94C175.15 9.6 175.15 9.26 175.03 9.14C174.92 9.03 174.8 8.91 174.57 8.8C174.35 8.8 174 8.68 173.66 8.68L173.66 8.34L177.67 8.34L177.67 8.68C177.32 8.68 177.21 8.68 176.98 8.8C176.86 8.8 176.75 8.91 176.64 9.14C176.52 9.26 176.52 9.6 176.52 9.94L176.52 12.81C176.64 12.69 176.75 12.69 176.86 12.69C176.98 12.69 177.09 12.69 177.32 12.69L181.56 12.69C181.9 12.69 182.02 12.69 182.13 12.58C182.25 12.47 182.36 12.24 182.36 12.01L182.36 9.94C182.36 9.6 182.36 9.26 182.25 9.14C182.13 9.03 182.02 8.91 181.79 8.8C181.56 8.8 181.21 8.68 180.87 8.68L180.87 8.34L184.88 8.34L184.88 8.68C184.54 8.68 184.42 8.68 184.19 8.8C184.08 8.8 183.96 8.91 183.85 9.14C183.73 9.26 183.73 9.6 183.73 9.94L183.73 17.39C183.73 17.74 183.73 18.08 183.85 18.2C183.96 18.31 184.08 18.43 184.31 18.54C184.54 18.54 184.88 18.65 185.22 18.65L185.22 19L181.21 19L181.21 18.65C181.56 18.65 181.79 18.65 181.9 18.54C182.02 18.54 182.13 18.43 182.25 18.2C182.36 18.08 182.36 17.74 182.36 17.39L182.36 13.04C182.25 13.15 182.13 13.15 182.02 13.15C181.9 13.15 181.79 13.15 181.56 13.15L177.32 13.15C176.98 13.15 176.86 13.15 176.75 13.27C176.64 13.38 176.52 13.5 176.52 13.84L176.52 17.39C176.52 17.74 176.52 18.08 176.64 18.2C176.75 18.31 176.86 18.43 177.09 18.54C177.32 18.54 177.67 18.65 178.01 18.65L178.01 19L174 19Z" fill="#0D1E3A" fill-opacity="1.000000" fill-rule="nonzero"/>
	<path id="Vector" d="M194.84 19L194.84 18.65C195.18 18.65 195.41 18.65 195.53 18.54C195.64 18.54 195.76 18.43 195.87 18.2C195.98 17.97 195.98 17.74 195.98 17.39L195.98 9.94C195.98 9.6 195.98 9.26 195.87 9.14C195.76 9.03 195.64 8.91 195.41 8.8C195.18 8.8 194.84 8.68 194.5 8.68L194.5 8.34L195.98 8.34C196.67 8.34 197.24 8.34 197.7 8.34C198.16 8.34 198.5 8.34 198.85 8.34C199.99 8.34 200.91 8.57 201.48 9.03C202.17 9.49 202.51 10.06 202.51 10.86C202.51 11.2 202.4 11.66 202.28 12.01C202.05 12.35 201.82 12.69 201.48 13.04C201.14 13.38 200.56 13.5 199.99 13.73C199.42 13.96 198.62 13.96 197.7 13.84L197.7 13.38C198.5 13.5 199.19 13.38 199.76 13.15C200.22 12.92 200.56 12.69 200.79 12.24C201.02 11.78 201.14 11.43 201.14 10.98C201.14 10.4 201.02 10.06 200.79 9.71C200.56 9.37 200.22 9.26 199.88 9.14C199.53 9.03 199.08 9.03 198.62 9.03C198.27 9.03 197.93 9.14 197.82 9.26C197.59 9.37 197.59 9.71 197.59 10.17L197.59 17.62C197.59 17.97 197.59 18.31 197.7 18.43C197.82 18.54 197.93 18.65 198.16 18.77C198.39 18.77 198.73 18.88 199.19 18.88L199.19 19.23L194.84 19.23L194.84 19Z" fill="#0D1E3A" fill-opacity="1.000000" fill-rule="nonzero"/>
	<path id="Vector" d="M205.83 19L205.83 18.65C206.17 18.65 206.4 18.65 206.52 18.54C206.63 18.54 206.75 18.43 206.86 18.2C206.98 18.08 206.98 17.74 206.98 17.39L206.98 9.94C206.98 9.6 206.98 9.26 206.86 9.14C206.75 9.03 206.63 8.91 206.4 8.8C206.17 8.8 205.83 8.68 205.49 8.68L205.49 8.34L209.49 8.34L209.49 8.68C209.15 8.68 209.04 8.68 208.81 8.8C208.69 8.8 208.58 8.91 208.46 9.14C208.35 9.26 208.35 9.6 208.35 9.94L208.35 17.39C208.35 17.74 208.35 18.08 208.46 18.2C208.58 18.31 208.69 18.43 208.92 18.54C209.15 18.54 209.49 18.65 209.84 18.65L209.84 19L205.83 19Z" fill="#0D1E3A" fill-opacity="1.000000" fill-rule="nonzero"/>
	<path id="Vector" d="M212.93 8.34L221.52 8.34L221.52 10.86L221.17 10.86C221.17 10.52 221.06 10.17 220.94 9.83C220.83 9.49 220.71 9.26 220.37 9.14C220.03 9.03 219.68 8.91 219.11 8.91L217.74 8.91L217.74 17.39C217.74 17.74 217.74 18.08 217.85 18.2C217.97 18.31 218.08 18.43 218.31 18.54C218.54 18.54 218.88 18.65 219.23 18.65L219.23 19L215.22 19L215.22 18.65C215.56 18.65 215.79 18.65 215.91 18.54C216.02 18.54 216.13 18.43 216.25 18.2C216.36 17.97 216.36 17.74 216.36 17.39L216.36 8.91L214.99 8.91C214.42 8.91 214.07 9.03 213.85 9.14C213.62 9.26 213.39 9.49 213.27 9.83C213.16 10.17 213.16 10.4 213.04 10.86L212.7 10.86L212.7 8.34L212.93 8.34Z" fill="#0D1E3A" fill-opacity="1.000000" fill-rule="nonzero"/>
	<path id="Vector" d="M232.51 17.39C232.62 17.74 232.74 18.08 232.85 18.2C232.96 18.31 233.08 18.43 233.31 18.54C233.54 18.65 233.65 18.65 234 18.65L234 19L230.22 19L230.22 18.65C230.56 18.65 230.9 18.54 231.02 18.54C231.25 18.54 231.25 18.43 231.36 18.2C231.48 17.97 231.36 17.74 231.25 17.39L230.33 14.64C230.33 14.64 230.22 14.76 230.1 14.76C229.99 14.76 229.87 14.76 229.76 14.76L227.7 14.76C227.47 14.76 227.24 14.76 227.13 14.87C227.01 14.99 226.9 15.1 226.78 15.33L225.98 17.39C225.87 17.85 225.87 18.08 225.98 18.31C226.1 18.54 226.55 18.65 227.24 18.65L227.24 19L223.81 19L223.81 18.65C224.15 18.65 224.38 18.54 224.61 18.31C224.84 18.08 224.95 17.85 225.18 17.39L228.04 9.6C228.16 9.37 228.27 9.03 228.39 8.8C228.5 8.57 228.61 8.22 228.61 8L229.42 8C229.53 8.22 229.53 8.57 229.64 8.8C229.76 9.03 229.87 9.37 229.99 9.6L232.51 17.39ZM229.64 14.18C229.76 14.18 229.87 14.18 229.99 14.18C229.99 14.18 229.99 14.07 229.99 13.96L228.73 10.06L227.24 14.3C227.24 14.3 227.35 14.3 227.47 14.3C227.58 14.3 227.58 14.3 227.7 14.3L229.64 14.3L229.64 14.18Z" fill="#0D1E3A" fill-opacity="1.000000" fill-rule="nonzero"/>
	<path id="Vector" d="M101.65 33.22C101.19 33.22 100.73 33.07 100.28 32.92C99.82 32.76 99.51 32.46 99.21 32.15C98.9 31.85 98.6 31.54 98.45 31.09C98.29 30.63 98.14 30.17 98.14 29.71C98.14 29.1 98.29 28.65 98.45 28.19C98.6 27.73 98.9 27.42 99.21 27.12C99.51 26.81 99.97 26.51 100.43 26.36C100.89 26.2 101.34 26.05 101.95 26.05C102.26 26.05 102.41 26.05 102.71 26.05C103.02 26.05 103.17 26.2 103.48 26.2C103.63 26.2 103.93 26.36 104.09 26.36L104.09 28.03L103.78 28.03C103.78 27.58 103.63 27.27 103.48 27.12C103.32 26.97 103.02 26.66 102.71 26.66C102.41 26.51 102.1 26.51 101.8 26.51C101.34 26.51 100.89 26.66 100.43 26.81C99.97 26.97 99.67 27.42 99.51 27.73C99.21 28.19 99.21 28.8 99.21 29.41C99.21 30.02 99.36 30.63 99.51 31.09C99.82 31.54 100.12 32 100.43 32.15C100.89 32.46 101.19 32.61 101.65 32.61C102.1 32.61 102.41 32.46 102.71 32.31C103.02 32.15 103.32 31.85 103.48 31.54C103.63 31.24 103.78 30.93 103.93 30.63L104.24 30.63L104.24 31.85C103.93 32.15 103.63 32.46 103.17 32.61C102.87 33.07 102.41 33.22 101.65 33.22Z" fill="#0D1E3A" fill-opacity="1.000000" fill-rule="nonzero"/>
	<path id="Vector" d="M106.83 33.07L106.83 32.76C106.98 32.76 107.13 32.76 107.29 32.76C107.44 32.76 107.44 32.61 107.44 32.61C107.44 32.46 107.44 32.31 107.44 32.15L107.44 27.42C107.44 27.12 107.44 26.97 107.44 26.97C107.44 26.81 107.29 26.81 107.13 26.81C106.98 26.81 106.83 26.81 106.52 26.81L106.52 26.51L109.11 26.51L109.11 26.81C108.96 26.81 108.81 26.81 108.66 26.81C108.5 26.81 108.5 26.97 108.5 26.97C108.5 26.97 108.5 27.27 108.5 27.42L108.5 32.15C108.5 32.46 108.5 32.61 108.5 32.61C108.5 32.76 108.66 32.76 108.81 32.76C108.96 32.76 109.11 32.76 109.42 32.76L109.42 33.07L106.83 33.07Z" fill="#0D1E3A" fill-opacity="1.000000" fill-rule="nonzero"/>
	<path id="Vector" d="M115.51 33.07C115.51 32.92 115.36 32.76 115.36 32.61C115.36 32.46 115.21 32.31 115.06 32L113.08 27.73L112.92 32.15C112.92 32.46 112.92 32.61 113.08 32.76C113.23 32.92 113.53 32.92 113.84 32.92L113.84 33.22L111.71 33.22L111.71 32.92C112.01 32.92 112.16 32.76 112.31 32.76C112.47 32.61 112.47 32.46 112.47 32.15L112.77 27.42C112.77 27.12 112.77 26.97 112.77 26.97C112.77 26.97 112.62 26.81 112.47 26.81C112.31 26.81 112.16 26.81 111.86 26.81L111.86 26.51L113.53 26.51C113.53 26.66 113.69 26.81 113.69 26.97C113.69 27.12 113.84 27.27 113.84 27.42L115.82 32L117.65 27.42C117.65 27.27 117.8 27.12 117.8 26.97C117.8 26.81 117.95 26.66 117.95 26.51L119.63 26.51L119.63 26.81C119.48 26.81 119.32 26.81 119.17 26.81C119.02 26.81 119.02 26.97 119.02 26.97C119.02 27.12 119.02 27.27 119.02 27.42L119.17 32.15C119.17 32.46 119.17 32.61 119.32 32.61C119.32 32.76 119.48 32.76 119.63 32.76C119.78 32.76 119.93 32.76 120.09 32.76L120.09 33.07L117.8 33.07L117.8 32.76C117.95 32.76 118.11 32.76 118.26 32.76C118.41 32.76 118.41 32.61 118.41 32.61C118.41 32.46 118.41 32.31 118.41 32.15L118.26 27.73L116.43 32.15C116.28 32.46 116.28 32.61 116.12 32.76C116.12 32.92 115.97 33.07 115.97 33.22L115.51 33.22L115.51 33.07Z" fill="#0D1E3A" fill-opacity="1.000000" fill-rule="nonzero"/>
	<path id="Vector" d="M122.52 33.07L122.52 32.76C122.68 32.76 122.83 32.76 122.98 32.76C123.13 32.76 123.13 32.61 123.13 32.61C123.13 32.46 123.13 32.31 123.13 32.15L123.13 27.42C123.13 27.12 123.13 26.97 123.13 26.97C123.13 26.81 122.98 26.81 122.83 26.81C122.68 26.81 122.52 26.81 122.22 26.81L122.22 26.51L127.1 26.51L127.1 27.88L126.79 27.88C126.79 27.73 126.79 27.42 126.64 27.27C126.64 27.12 126.49 26.97 126.33 26.97C126.18 26.81 125.88 26.81 125.57 26.81L124.35 26.81C124.2 26.81 124.05 26.81 124.05 26.97C123.9 26.97 123.9 27.27 123.9 27.58L123.9 29.41C123.9 29.41 124.05 29.41 124.05 29.26C124.2 29.26 124.2 29.26 124.35 29.26L125.72 29.26C126.18 29.26 126.33 29.1 126.33 28.65L126.64 28.65L126.64 30.32L126.33 30.32C126.33 30.02 126.33 29.87 126.18 29.71C126.03 29.56 125.88 29.56 125.72 29.56L124.35 29.56C124.2 29.56 124.05 29.56 123.9 29.71C123.9 29.71 123.74 29.87 123.74 30.02L123.74 32.15C123.74 32.46 123.74 32.61 123.9 32.76C124.05 32.76 124.2 32.92 124.51 32.92L125.88 32.92C126.18 32.92 126.49 32.92 126.64 32.76C126.79 32.61 126.94 32.46 127.1 32.31C127.25 32.15 127.25 31.85 127.25 31.7L127.55 31.7L127.4 33.22L122.52 33.22L122.52 33.07Z" fill="#0D1E3A" fill-opacity="1.000000" fill-rule="nonzero"/>
	<path id="Vector" d="M130.3 33.07L130.3 32.76C130.45 32.76 130.6 32.76 130.75 32.76C130.91 32.76 130.91 32.61 130.91 32.61C130.91 32.46 130.91 32.31 130.91 32.15L130.91 27.42C130.91 27.12 130.91 26.97 130.91 26.97C130.91 26.81 130.75 26.81 130.6 26.81C130.45 26.81 130.3 26.81 129.99 26.81L129.99 26.51L132.58 26.51L132.58 26.81C132.43 26.81 132.28 26.81 132.13 26.81C131.97 26.81 131.97 26.97 131.97 26.97C131.97 26.97 131.97 27.27 131.97 27.42L131.97 32.15L135.78 26.51L137.15 26.51L137.15 26.81C137 26.81 136.85 26.81 136.7 26.81C136.54 26.81 136.54 26.97 136.54 26.97C136.54 26.97 136.54 27.27 136.54 27.42L136.54 32.15C136.54 32.46 136.54 32.61 136.54 32.61C136.54 32.76 136.7 32.76 136.85 32.76C137 32.76 137.15 32.76 137.46 32.76L137.46 33.07L134.87 33.07L134.87 32.76C135.02 32.76 135.17 32.76 135.33 32.76C135.48 32.76 135.48 32.61 135.48 32.61C135.48 32.46 135.48 32.31 135.48 32.15L135.48 27.58L131.67 33.22L130.3 33.22L130.3 33.07ZM135.02 24.22L135.17 24.37C135.02 24.83 134.87 25.14 134.56 25.44C134.26 25.75 133.95 25.75 133.65 25.75C133.34 25.75 133.04 25.59 132.89 25.44C132.58 25.29 132.58 24.98 132.43 24.37C132.58 24.37 132.73 24.22 132.73 24.22C132.89 24.22 133.04 24.22 133.19 24.22C133.19 24.53 133.34 24.83 133.34 24.98C133.5 25.14 133.65 25.14 133.8 25.14C134.11 25.14 134.26 24.98 134.41 24.83C134.72 24.83 134.87 24.53 135.02 24.22Z" fill="#0D1E3A" fill-opacity="1.000000" fill-rule="nonzero"/>
	<path id="Vector" d="M139.59 33.07L139.59 32.76C139.74 32.76 139.9 32.76 140.05 32.76C140.2 32.76 140.2 32.61 140.2 32.61C140.2 32.46 140.2 32.31 140.2 32.15L140.2 27.42C140.2 27.12 140.2 26.97 140.2 26.97C140.2 26.81 140.05 26.81 139.9 26.81C139.74 26.81 139.59 26.81 139.29 26.81L139.29 26.51L141.88 26.51L141.88 26.81C141.73 26.81 141.57 26.81 141.42 26.81C141.27 26.81 141.27 26.97 141.27 26.97C141.27 26.97 141.27 27.27 141.27 27.42L141.27 29.26C141.27 29.26 141.42 29.26 141.42 29.1C141.57 29.1 141.57 29.1 141.73 29.1L144.47 29.1C144.62 29.1 144.77 29.1 144.92 28.95C144.92 28.95 145.08 28.8 145.08 28.65L145.08 27.42C145.08 27.12 145.08 26.97 145.08 26.97C145.08 26.81 144.92 26.81 144.77 26.81C144.62 26.81 144.47 26.81 144.16 26.81L144.16 26.51L146.75 26.51L146.75 26.81C146.6 26.81 146.45 26.81 146.3 26.81C146.14 26.81 146.14 26.97 146.14 26.97C146.14 26.97 146.14 27.27 146.14 27.42L146.14 32.15C146.14 32.46 146.14 32.61 146.14 32.61C146.14 32.76 146.3 32.76 146.45 32.76C146.6 32.76 146.75 32.76 147.06 32.76L147.06 33.07L144.47 33.07L144.47 32.76C144.62 32.76 144.77 32.76 144.92 32.76C145.08 32.76 145.08 32.61 145.08 32.61C145.08 32.46 145.08 32.31 145.08 32.15L145.08 29.41L144.92 29.56C144.77 29.56 144.77 29.56 144.62 29.56L141.73 29.56C141.57 29.56 141.42 29.56 141.27 29.71C141.12 29.87 141.12 29.87 141.12 30.02L141.12 32.31C141.12 32.61 141.12 32.76 141.12 32.76C141.12 32.92 141.27 32.92 141.42 32.92C141.57 32.92 141.73 32.92 142.03 32.92L142.03 33.22L139.59 33.22L139.59 33.07Z" fill="#0D1E3A" fill-opacity="1.000000" fill-rule="nonzero"/>
	<path id="Vector" d="M149.04 33.07L149.04 32.76C149.19 32.76 149.34 32.76 149.5 32.76C149.65 32.76 149.65 32.61 149.65 32.61C149.65 32.46 149.65 32.31 149.65 32.15L149.65 27.42C149.65 27.12 149.65 26.97 149.65 26.97C149.65 26.81 149.5 26.81 149.34 26.81C149.19 26.81 149.04 26.81 148.74 26.81L148.74 26.51L151.33 26.51L151.33 26.81C151.17 26.81 151.02 26.81 150.87 26.81C150.72 26.81 150.72 26.97 150.72 26.97C150.72 26.97 150.72 27.27 150.72 27.42L150.72 32.15L154.53 26.51L155.9 26.51L155.9 26.81C155.75 26.81 155.59 26.81 155.44 26.81C155.29 26.81 155.29 26.97 155.29 26.97C155.29 26.97 155.29 27.27 155.29 27.42L155.29 32.15C155.29 32.46 155.29 32.61 155.29 32.61C155.29 32.76 155.44 32.76 155.59 32.76C155.75 32.76 155.9 32.76 156.2 32.76L156.2 33.07L153.61 33.07L153.61 32.76C153.76 32.76 153.92 32.76 154.07 32.76C154.22 32.76 154.22 32.61 154.22 32.61C154.22 32.46 154.22 32.31 154.22 32.15L154.22 27.58L150.41 33.22L149.04 33.22L149.04 33.07Z" fill="#0D1E3A" fill-opacity="1.000000" fill-rule="nonzero"/>
	<path id="Vector" d="M158.49 33.07L158.49 32.76C158.64 32.76 158.79 32.76 158.95 32.76C159.1 32.76 159.1 32.61 159.1 32.61C159.1 32.46 159.1 32.31 159.1 32.15L159.1 27.42C159.1 27.12 159.1 26.97 159.1 26.97C159.1 26.81 158.95 26.81 158.79 26.81C158.64 26.81 158.49 26.81 158.18 26.81L158.18 26.51L160.77 26.51L160.77 26.81C160.62 26.81 160.47 26.81 160.32 26.81C160.16 26.81 160.16 26.97 160.16 26.97C160.16 26.97 160.16 27.27 160.16 27.42L160.16 32.15L163.97 26.51L165.35 26.51L165.35 26.81C165.19 26.81 165.04 26.81 164.89 26.81C164.74 26.81 164.74 26.97 164.74 26.97C164.74 27.12 164.74 27.27 164.74 27.42L164.74 32.15C164.74 32.46 164.74 32.61 164.74 32.61C164.74 32.76 164.89 32.76 165.04 32.76C165.19 32.76 165.35 32.76 165.65 32.76L165.65 33.07L163.06 33.07L163.06 32.76C163.21 32.76 163.36 32.76 163.52 32.76C163.67 32.76 163.67 32.61 163.67 32.61C163.67 32.46 163.67 32.31 163.67 32.15L163.67 27.58L159.86 33.22L158.49 33.22L158.49 33.07ZM163.21 24.22L163.36 24.37C163.21 24.83 163.06 25.14 162.75 25.44C162.45 25.75 162.14 25.75 161.84 25.75C161.53 25.75 161.23 25.59 161.08 25.44C160.77 25.29 160.77 24.98 160.62 24.37C160.77 24.37 160.93 24.22 160.93 24.22C161.08 24.22 161.23 24.22 161.38 24.22C161.38 24.53 161.53 24.83 161.53 24.98C161.69 25.14 161.84 25.14 161.99 25.14C162.3 25.14 162.45 24.98 162.6 24.83C162.91 24.83 163.06 24.53 163.21 24.22Z" fill="#0D1E3A" fill-opacity="1.000000" fill-rule="nonzero"/>
	<path id="Vector" d="M177.08 32C177.23 32.31 177.23 32.46 177.38 32.46C177.38 32.61 177.54 32.61 177.69 32.61C177.84 32.61 177.99 32.61 178.15 32.61L178.15 32.92L175.71 32.92L175.71 32.61C176.01 32.61 176.16 32.61 176.16 32.61C176.32 32.61 176.32 32.46 176.32 32.46C176.32 32.31 176.32 32.15 176.16 32L175.56 30.32L175.4 30.32L175.25 30.32L173.88 30.32C173.73 30.32 173.57 30.32 173.57 30.32C173.57 30.32 173.42 30.48 173.42 30.63L172.96 32C172.81 32.31 172.81 32.46 172.96 32.61C173.12 32.76 173.27 32.76 173.73 32.76L173.73 33.07L171.59 33.07L171.59 32.76C171.75 32.76 172.05 32.61 172.05 32.61C172.05 32.61 172.36 32.31 172.36 32L174.18 27.12C174.18 26.97 174.34 26.81 174.34 26.66C174.34 26.51 174.49 26.36 174.49 26.2L174.95 26.2C174.95 26.36 175.1 26.51 175.1 26.66C175.1 26.81 175.25 26.97 175.25 27.12L177.08 32ZM175.25 30.02C175.4 30.02 175.4 30.02 175.4 30.02L175.4 29.87L174.64 27.42L173.73 30.17C173.73 30.17 173.73 30.17 173.88 30.17L174.03 30.17L175.25 30.17L175.25 30.02Z" fill="#0D1E3A" fill-opacity="1.000000" fill-rule="nonzero"/>
	<path id="Vector" d="M183.17 27.12L184.7 32C184.7 32.15 184.85 32.31 184.85 32.31C184.85 32.46 185 32.46 185.16 32.61C185.31 32.61 185.46 32.76 185.77 32.76L185.46 34.9L185.16 34.9C185.16 34.44 185.16 33.98 185.16 33.68C185 33.37 185 33.22 184.85 33.07C184.7 32.92 184.55 32.92 184.39 32.92L181.19 32.92C181.04 32.92 180.74 33.07 180.58 33.22C180.43 33.37 180.28 33.68 180.13 33.98C179.97 34.29 179.97 34.59 179.97 34.9L179.67 34.9L179.67 32.76C179.97 32.76 180.13 32.61 180.28 32.31C180.43 32 180.58 31.85 180.74 31.54L182.26 27.12C182.26 26.97 182.41 26.81 182.41 26.66C182.41 26.51 182.57 26.36 182.57 26.2L183.02 26.2C183.02 26.36 183.17 26.51 183.17 26.66C183.02 26.81 183.02 26.97 183.17 27.12ZM183.02 32.61C183.33 32.61 183.48 32.61 183.48 32.61C183.63 32.61 183.63 32.46 183.63 32.46C183.63 32.31 183.63 32.15 183.63 32L182.26 27.27L180.58 32.61L183.02 32.61Z" fill="#0D1E3A" fill-opacity="1.000000" fill-rule="nonzero"/>
	<path id="Vector" d="M187.29 33.07L187.29 32.76C187.44 32.76 187.59 32.76 187.75 32.76C187.9 32.76 187.9 32.61 187.9 32.61C187.9 32.46 187.9 32.31 187.9 32.15L187.9 27.42C187.9 27.12 187.9 26.97 187.9 26.97C187.9 26.81 187.75 26.81 187.59 26.81C187.44 26.81 187.29 26.81 186.98 26.81L186.98 26.51L187.9 26.51C188.2 26.51 188.51 26.51 188.66 26.51C188.81 26.51 189.12 26.51 189.27 26.51C189.42 26.51 189.73 26.51 189.88 26.51C190.64 26.51 191.1 26.66 191.4 26.81C191.71 27.12 191.86 27.42 191.86 27.73C191.86 28.19 191.71 28.49 191.4 28.65C191.1 28.95 190.79 29.1 190.34 29.26C190.79 29.26 191.1 29.41 191.4 29.56C191.71 29.71 192.01 29.87 192.17 30.17C192.32 30.48 192.47 30.78 192.47 31.09C192.47 31.39 192.32 31.85 192.17 32.15C192.01 32.46 191.71 32.76 191.25 32.92C190.79 33.07 190.34 33.22 189.73 33.22L187.29 33.22L187.29 33.07ZM188.97 29.26C189.12 29.26 189.12 29.1 189.27 29.1C189.42 29.1 189.42 29.1 189.58 29.1C189.73 29.1 190.03 29.1 190.18 28.95C190.34 28.95 190.64 28.8 190.79 28.8C190.95 28.65 191.1 28.49 191.25 28.34C191.4 28.19 191.4 27.88 191.4 27.73C191.4 27.42 191.4 27.12 191.25 26.97C191.1 26.81 190.95 26.66 190.64 26.66C190.49 26.66 190.18 26.51 189.88 26.51C189.58 26.51 189.42 26.51 189.27 26.66C189.12 26.66 189.12 26.97 189.12 27.27L189.12 29.26L188.97 29.26ZM190.03 32.61C190.49 32.61 190.95 32.46 191.1 32.31C191.4 32.15 191.56 31.85 191.71 31.7C191.86 31.39 191.86 31.24 191.86 30.93C191.86 30.63 191.71 30.32 191.56 30.02C191.4 29.87 191.1 29.71 190.79 29.56C190.49 29.41 190.18 29.41 189.73 29.41C189.42 29.41 189.12 29.41 188.97 29.56C188.81 29.71 188.81 29.87 188.81 30.02L188.81 32C188.81 32.15 188.81 32.31 188.97 32.46C188.97 32.61 189.12 32.61 189.27 32.61C189.58 32.61 189.73 32.61 190.03 32.61Z" fill="#0D1E3A" fill-opacity="1.000000" fill-rule="nonzero"/>
	<path id="Vector" d="M198.72 26.2C199.18 26.2 199.63 26.36 200.09 26.51C200.55 26.66 200.85 26.97 201.16 27.27C201.46 27.58 201.77 27.88 201.92 28.34C202.07 28.8 202.22 29.26 202.22 29.87C202.22 30.48 202.07 30.93 201.92 31.39C201.77 31.85 201.46 32.15 201.16 32.46C200.85 32.76 200.55 33.07 200.09 33.22C199.63 33.37 199.18 33.53 198.72 33.53C198.26 33.53 197.8 33.37 197.5 33.22C197.04 33.07 196.74 32.76 196.43 32.46C196.13 32.15 195.82 31.85 195.67 31.39C195.52 30.93 195.37 30.48 195.37 29.87C195.37 29.41 195.52 28.8 195.67 28.34C195.82 27.88 196.13 27.58 196.43 27.27C196.74 26.97 197.04 26.66 197.5 26.51C197.8 26.2 198.26 26.2 198.72 26.2ZM198.87 32.76C199.33 32.76 199.63 32.61 199.94 32.46C200.24 32.31 200.55 31.85 200.7 31.54C200.85 31.09 201 30.63 201 29.87C201 29.1 200.85 28.49 200.7 28.03C200.39 27.58 200.09 27.12 199.78 26.97C199.33 26.66 199.02 26.51 198.57 26.51C198.11 26.51 197.8 26.66 197.5 26.81C197.19 26.97 196.89 27.42 196.74 27.73C196.58 28.19 196.43 28.65 196.43 29.41C196.43 30.17 196.58 30.78 196.74 31.24C197.04 31.7 197.35 32.15 197.65 32.31C197.96 32.61 198.41 32.76 198.87 32.76Z" fill="#0D1E3A" fill-opacity="1.000000" fill-rule="nonzero"/>
	<path id="Vector" d="M210.45 33.07C209.99 33.07 209.69 33.07 209.54 32.92C209.39 32.76 209.08 32.61 208.93 32.31L206.79 29.71C206.64 29.56 206.64 29.56 206.64 29.56L206.49 29.56L206.34 29.56C206.34 29.56 206.34 29.71 206.34 29.87L206.34 32.15C206.34 32.46 206.34 32.61 206.49 32.61C206.49 32.76 206.64 32.76 206.79 32.76C206.95 32.76 207.1 32.76 207.4 32.76L207.4 33.07L204.81 33.07L204.81 32.76C204.97 32.76 205.12 32.76 205.27 32.76C205.42 32.76 205.42 32.61 205.42 32.61C205.42 32.46 205.42 32.31 205.42 32.15L205.42 27.42C205.42 27.12 205.42 26.97 205.42 26.97C205.42 26.81 205.27 26.81 205.12 26.81C204.97 26.81 204.81 26.81 204.51 26.81L204.51 26.51L207.1 26.51L207.1 26.81C206.95 26.81 206.79 26.81 206.64 26.81C206.49 26.81 206.49 26.97 206.49 26.97C206.49 27.12 206.49 27.27 206.49 27.42L206.49 29.1L208.62 27.27C208.78 27.12 208.93 26.97 208.93 26.97L208.93 26.81C208.93 26.81 208.93 26.66 208.78 26.66C208.78 26.66 208.62 26.66 208.32 26.66L208.32 26.36L210.45 26.36L210.45 26.66C210.3 26.66 209.99 26.66 209.84 26.81C209.69 26.97 209.54 26.97 209.23 27.27L207.25 28.8C207.1 28.95 207.1 28.95 207.25 29.1L209.69 32.15C209.84 32.46 209.99 32.61 210.15 32.61C210.3 32.76 210.45 32.76 210.45 32.92C210.6 32.92 210.76 32.92 210.91 32.92L210.91 33.22C210.76 33.07 210.6 33.07 210.45 33.07Z" fill="#0D1E3A" fill-opacity="1.000000" fill-rule="nonzero"/>
	<path id="Vector" d="M217.77 32C217.92 32.31 217.92 32.46 218.07 32.46C218.07 32.61 218.22 32.61 218.38 32.61C218.53 32.61 218.68 32.61 218.83 32.61L218.83 32.92L216.4 32.92L216.4 32.61C216.7 32.61 216.85 32.61 216.85 32.61C217 32.61 217 32.46 217 32.46C217 32.31 217 32.15 216.85 32L216.24 30.32L216.09 30.32L215.94 30.32L214.57 30.32C214.41 30.32 214.26 30.32 214.26 30.32C214.26 30.32 214.11 30.48 214.11 30.63L213.65 32C213.5 32.31 213.5 32.46 213.65 32.61C213.8 32.76 213.96 32.76 214.41 32.76L214.41 33.07L212.28 33.07L212.28 32.76C212.43 32.76 212.74 32.61 212.74 32.61C212.89 32.46 213.04 32.31 213.04 32L214.87 27.12C214.87 26.97 215.02 26.81 215.02 26.66C215.02 26.51 215.18 26.36 215.18 26.2L215.63 26.2C215.63 26.36 215.79 26.51 215.79 26.66C215.79 26.81 215.94 26.97 215.94 27.12L217.77 32ZM215.94 30.02C216.09 30.02 216.09 30.02 216.09 30.02L216.09 29.87L215.33 27.42L214.41 30.17C214.41 30.17 214.41 30.17 214.57 30.17L214.72 30.17L215.94 30.17L215.94 30.02Z" fill="#0D1E3A" fill-opacity="1.000000" fill-rule="nonzero"/>
	<path id="Vector" d="M220.51 26.36L226 26.36L226 27.88L225.69 27.88C225.69 27.58 225.69 27.42 225.54 27.27C225.54 27.12 225.39 26.97 225.23 26.81C225.08 26.66 224.78 26.66 224.47 26.66L223.56 26.66L223.56 32C223.56 32.31 223.56 32.46 223.56 32.46C223.56 32.61 223.71 32.61 223.86 32.61C224.01 32.61 224.17 32.61 224.47 32.61L224.47 32.92L221.88 32.92L221.88 32.61C222.03 32.61 222.19 32.61 222.34 32.61C222.49 32.61 222.49 32.46 222.49 32.46C222.49 32.31 222.49 32.15 222.49 32L222.49 26.66L221.58 26.66C221.27 26.66 220.97 26.66 220.81 26.81C220.66 26.97 220.51 27.12 220.51 27.27C220.51 27.42 220.36 27.73 220.36 27.88L220.05 27.88L220.05 26.36L220.51 26.36Z" fill="#0D1E3A" fill-opacity="1.000000" fill-rule="nonzero"/>
</svg>
