<svg width="21.407227" height="30.000000" viewBox="0 0 21.4072 30" fill="none" xmlns="http://www.w3.org/2000/svg" xmlns:xlink="http://www.w3.org/1999/xlink">
	<desc>
			Created with Pixso.
	</desc>
	<defs/>
	<path id="one-finger-click" d="M7.4 0L7.4 4L8.4 4L8.4 0L7.4 0ZM13.81 2.57L10.7 5.09L11.33 5.87L14.43 3.35L13.81 2.57ZM15.81 9.31L11.91 8.41L11.69 9.38L15.58 10.28L15.81 9.31ZM0.22 10.28L4.12 9.38L3.89 8.41L0 9.31L0.22 10.28ZM1.37 3.35L4.48 5.87L5.11 5.09L2 2.57L1.37 3.35ZM13.4 12.49C13.4 11.66 12.74 11 11.9 11C11.07 11 10.4 11.67 10.4 12.49L10.4 14.43L10.4 17L9.4 17L9.4 14.5L9.4 7.5C9.4 6.67 8.74 6 7.9 6C7.07 6 6.4 6.66 6.4 7.5L6.4 17.79C4.34 15.59 1.63 13.17 0.52 14.29C-0.56 15.38 2.24 18.4 6.15 24.98C7.91 27.94 10.14 29.99 13.9 30C18.04 30 21.4 26.64 21.4 22.5L21.4 19.24L21.4 14.5C21.4 13.67 20.74 13 19.9 13C19.07 13 18.4 13.67 18.4 14.5L18.4 16.74L18.4 17L17.4 17L17.4 14.67L17.4 13.49C17.4 12.66 16.74 12 15.9 12C15.07 12 14.4 12.66 14.4 13.49L14.4 14.5L14.4 16L13.4 16L13.4 14.5L13.4 12.49Z" fill="#1E2739" fill-opacity="1.000000" fill-rule="evenodd"/>
</svg>
