<svg width="22.000000" height="22.000000" viewBox="0 0 22 22" fill="none" xmlns="http://www.w3.org/2000/svg" xmlns:xlink="http://www.w3.org/1999/xlink">
	<desc>
			Created with Pixso.
	</desc>
	<defs/>
	<path id="Vector" d="M4.43 9.52C6.19 12.98 9.02 15.81 12.48 17.57L15.17 14.88C15.5 14.54 15.99 14.44 16.41 14.58C17.78 15.03 19.25 15.27 20.77 15.27C21.45 15.27 22 15.82 22 16.5L22 20.77C22 21.45 21.45 22 20.77 22C9.3 22 0 12.69 0 1.22C0 0.54 0.54 0 1.22 0L5.5 0C6.17 0 6.72 0.54 6.72 1.22C6.72 2.74 6.96 4.21 7.41 5.58C7.55 6 7.45 6.49 7.11 6.82L4.43 9.52Z" fill="#1E2739" fill-opacity="1.000000" fill-rule="nonzero"/>
</svg>
