<svg width="34.000000" height="28.000000" viewBox="0 0 34 28" fill="none" xmlns="http://www.w3.org/2000/svg" xmlns:xlink="http://www.w3.org/1999/xlink">
	<desc>
			Created with Pixso.
	</desc>
	<defs/>
	<path id="Vector" d="M30.5 -0.04C26.1 1.78 7.25 9.59 2.04 11.72C-1.46 13.08 0.59 14.36 0.59 14.36C0.59 14.36 3.57 15.38 6.13 16.15C8.69 16.91 10.05 16.06 10.05 16.06L22.06 7.97C26.33 5.07 25.3 7.45 24.28 8.48C22.06 10.69 18.4 14.19 15.33 17C13.97 18.19 14.65 19.21 15.25 19.73C17.46 21.6 23.51 25.44 23.85 25.69C25.65 26.97 29.2 28.8 29.73 24.92L31.86 11.55C32.55 7.03 33.23 2.85 33.31 1.66C33.57 -1.24 30.5 -0.04 30.5 -0.04Z" fill="#1B92D1" fill-opacity="1.000000" fill-rule="nonzero"/>
</svg>
