<svg width="28.000000" height="29.000000" viewBox="0 0 28 29" fill="none" xmlns="http://www.w3.org/2000/svg" xmlns:xlink="http://www.w3.org/1999/xlink">
	<desc>
			Created with Pixso.
	</desc>
	<defs/>
	<path id="Vector" d="M24.84 2.82C24.1 2.16 21.14 0.04 14.53 0.02C14.53 0.02 6.74 -0.44 2.95 2.98C0.84 5.05 0.09 8.09 0.01 11.86C-0.07 15.62 -0.17 22.68 6.76 24.59L6.77 24.59L6.76 27.52C6.76 27.52 6.71 28.7 7.51 28.94C8.47 29.23 9.03 28.33 9.95 27.36C10.45 26.83 11.14 26.05 11.67 25.46C16.41 25.85 20.05 24.95 20.46 24.82C21.42 24.52 26.83 23.84 27.71 16.78C28.62 9.5 27.27 4.9 24.84 2.82ZM25.64 16.25C24.89 22.14 20.51 22.51 19.7 22.77C19.35 22.87 16.15 23.65 12.13 23.4C12.13 23.4 9.14 26.95 8.2 27.87C7.9 28.17 7.56 28.15 7.57 27.55C7.57 27.16 7.59 22.7 7.59 22.7C1.72 21.1 2.07 15.09 2.13 11.95C2.19 8.8 2.8 6.23 4.59 4.5C7.8 1.64 14.41 2.06 14.41 2.06C20 2.08 22.68 3.74 23.3 4.29C25.36 6.02 26.41 10.17 25.64 16.25ZM17.62 11.67C17.65 12.16 16.9 12.19 16.88 11.71C16.82 10.46 16.22 9.85 15 9.79C14.5 9.76 14.55 9.03 15.04 9.05C16.65 9.14 17.54 10.05 17.62 11.67ZM18.79 12.31C18.85 9.91 17.32 8.03 14.42 7.82C13.93 7.79 13.98 7.06 14.48 7.09C17.82 7.33 19.6 9.59 19.54 12.33C19.53 12.81 18.78 12.79 18.79 12.31ZM21.5 13.07C21.51 13.56 20.76 13.56 20.76 13.08C20.73 8.46 17.59 5.95 13.79 5.92C13.3 5.91 13.3 5.19 13.79 5.19C18.04 5.21 21.46 8.1 21.5 13.07ZM20.85 18.62L20.85 18.64C20.23 19.71 19.07 20.9 17.87 20.52L17.85 20.51C16.64 20.17 13.77 18.72 11.96 17.31C11.03 16.58 10.17 15.73 9.52 14.9C8.92 14.17 8.32 13.31 7.74 12.27C6.51 10.08 6.24 9.11 6.24 9.11C5.85 7.93 7.06 6.79 8.16 6.18L8.17 6.18C8.7 5.91 9.21 6 9.55 6.4C9.55 6.4 10.27 7.24 10.57 7.65C10.86 8.04 11.25 8.65 11.45 9C11.8 9.62 11.58 10.24 11.23 10.5L10.54 11.05C10.19 11.33 10.24 11.84 10.24 11.84C10.24 11.84 11.26 15.65 15.1 16.62C15.1 16.62 15.62 16.66 15.91 16.31L16.46 15.63C16.72 15.29 17.36 15.08 17.99 15.43C18.84 15.9 19.92 16.63 20.63 17.29C21.04 17.61 21.13 18.1 20.85 18.62Z" fill="#1E2739" fill-opacity="1.000000" fill-rule="nonzero"/>
</svg>
