<svg width="30.000000" height="30.000000" viewBox="0 0 30 30" fill="none" xmlns="http://www.w3.org/2000/svg" xmlns:xlink="http://www.w3.org/1999/xlink">
	<desc>
			Created with Pixso.
	</desc>
	<defs>
		<linearGradient x1="9.381713" y1="10.678468" x2="24.947556" y2="26.244308" id="paint_linear_1270_380_0" gradientUnits="userSpaceOnUse">
			<stop stop-color="#010101" stop-opacity="0.101961"/>
			<stop offset="1.000000" stop-color="#010101" stop-opacity="0.000000"/>
		</linearGradient>
		<linearGradient x1="0.360309" y1="10.893394" x2="27.556034" y2="23.574974" id="paint_linear_1270_381_0" gradientUnits="userSpaceOnUse">
			<stop stop-color="#FFFFFF" stop-opacity="0.200000"/>
			<stop offset="1.000000" stop-color="#FFFFFF" stop-opacity="0.000000"/>
		</linearGradient>
	</defs>
	<path id="Vector" d="M15 0C6.71 0 0 6.71 0 15C0 18.07 0.92 20.92 2.51 23.3L0 30L6.69 27.48C9.07 29.07 11.92 30 15 30C23.28 30 30 23.28 30 15C30 6.71 23.28 0 15 0Z" fill="#31B34A" fill-opacity="1.000000" fill-rule="nonzero"/>
	<path id="Vector" d="M22.15 17.56C22.15 17.56 20.62 16.81 19.66 16.31C18.57 15.76 17.3 16.8 16.7 17.4C16.15 17.18 15.07 16.69 14.19 15.8C13.3 14.92 12.81 13.84 12.59 13.29C13.19 12.69 14.23 11.42 13.68 10.33C13.18 9.37 12.43 7.84 12.43 7.84C12.33 7.63 12.11 7.5 11.87 7.5L10.62 7.5C9.21 7.5 7.5 9.23 7.5 11.25C7.5 13.21 9.84 16.98 11.43 18.56C13.01 20.15 16.78 22.5 18.75 22.5C20.76 22.5 22.5 20.78 22.5 19.37L22.5 18.12C22.5 17.88 22.36 17.66 22.15 17.56Z" fill="#FFFFFF" fill-opacity="1.000000" fill-rule="nonzero"/>
	<g opacity="0.200000">
		<path id="Vector" d="M15 0.31C23.23 0.31 29.9 6.94 29.99 15.15C29.99 15.1 30 15.05 30 15C30 6.71 23.28 0 15 0C6.71 0 0 6.71 0 15C0 15.06 0 15.11 0 15.17C0.07 6.95 6.76 0.31 15 0.31Z" fill="#FFFFFF" fill-opacity="1.000000" fill-rule="nonzero"/>
	</g>
	<g opacity="0.100000">
		<path id="Vector" d="M15 29.68C11.92 29.68 9.07 28.76 6.69 27.17L0.13 29.63L0 30L6.69 27.48C9.07 29.07 11.92 30 15 30C23.28 30 30 23.28 30 15C30 14.94 29.99 14.89 29.99 14.84C29.9 23.05 23.23 29.68 15 29.68Z" fill="#010101" fill-opacity="1.000000" fill-rule="nonzero"/>
	</g>
	<g opacity="0.200000">
		<path id="Vector" d="M14.19 16.12C15.07 17 16.15 17.5 16.7 17.71C17.3 17.11 18.57 16.07 19.66 16.63C20.62 17.12 22.15 17.87 22.15 17.87C22.36 17.98 22.5 18.19 22.5 18.43L22.5 18.12C22.5 17.88 22.36 17.66 22.15 17.56C22.15 17.56 20.62 16.81 19.66 16.31C18.57 15.76 17.3 16.8 16.7 17.4C16.15 17.18 15.07 16.69 14.19 15.8C13.4 15.02 12.93 14.09 12.69 13.51C12.66 13.54 12.62 13.58 12.59 13.61C12.81 14.15 13.3 15.23 14.19 16.12Z" fill="#FFFFFF" fill-opacity="1.000000" fill-rule="nonzero"/>
	</g>
	<g opacity="0.200000">
		<path id="Vector" d="M13.68 10.33C13.18 9.37 12.43 7.84 12.43 7.84C12.33 7.63 12.11 7.5 11.87 7.5L10.62 7.5C9.21 7.5 7.5 9.23 7.5 11.25C7.5 11.29 7.51 11.34 7.51 11.38C7.61 9.44 9.25 7.81 10.62 7.81L11.87 7.81C12.11 7.81 12.33 7.94 12.43 8.16C12.43 8.16 13.18 9.69 13.68 10.65C13.77 10.83 13.8 11.02 13.82 11.21C13.85 10.91 13.82 10.62 13.68 10.33Z" fill="#FFFFFF" fill-opacity="1.000000" fill-rule="nonzero"/>
	</g>
	<g opacity="0.100000">
		<path id="Vector" d="M11.43 18.56C13.01 20.15 16.78 22.5 18.75 22.5C20.76 22.5 22.5 20.78 22.5 19.37L22.5 19.06C22.5 20.46 20.76 22.18 18.75 22.18C16.78 22.18 13.01 19.83 11.43 18.25C9.88 16.7 7.61 13.07 7.51 11.07C7.51 11.13 7.5 11.19 7.5 11.25C7.5 13.21 9.84 16.98 11.43 18.56Z" fill="#010101" fill-opacity="1.000000" fill-rule="nonzero"/>
	</g>
	<path id="Vector" d="M12.34 7.71L12.34 7.74C12.37 7.78 12.41 7.8 12.43 7.84C12.43 7.84 13.18 9.37 13.68 10.33C14.23 11.42 13.19 12.69 12.59 13.29C12.81 13.84 13.3 14.92 14.19 15.8C15.07 16.69 16.15 17.18 16.7 17.4C17.3 16.8 18.57 15.76 19.66 16.31C20.62 16.81 22.15 17.56 22.15 17.56C22.36 17.66 22.49 17.88 22.49 18.12L22.49 19.37C22.49 20.78 20.76 22.5 18.74 22.5C16.87 22.5 13.36 20.35 11.67 18.78C13.62 20.78 18.99 26.27 21.36 28.56C23.95 27.35 26.13 25.42 27.65 23.02L12.34 7.71Z" fill="url(#paint_linear_1270_380_0)" fill-opacity="1.000000" fill-rule="nonzero"/>
	<path id="Vector" d="M15 0C6.71 0 0 6.71 0 15C0 18.07 0.92 20.92 2.51 23.3L0 30L6.69 27.48C9.07 29.07 11.92 30 15 30C23.28 30 30 23.28 30 15C30 6.71 23.28 0 15 0Z" fill="url(#paint_linear_1270_381_0)" fill-opacity="1.000000" fill-rule="nonzero"/>
</svg>
