<svg width="33.000000" height="33.000000" viewBox="0 0 33 33" fill="none" xmlns="http://www.w3.org/2000/svg" xmlns:xlink="http://www.w3.org/1999/xlink">
	<desc>
			Created with Pixso.
	</desc>
	<defs>
		<radialGradient gradientTransform="translate(25.1136 21.3471) rotate(57.4147) scale(16.8268 7.96247)" cx="0.000000" cy="0.000000" r="1.000000" id="paint_radial_1380_587_0" gradientUnits="userSpaceOnUse">
			<stop offset="0.345000" stop-color="#FF6571"/>
			<stop offset="1.000000" stop-color="#F14250"/>
		</radialGradient>
		<radialGradient gradientTransform="translate(8.03065 10.6739) rotate(53.4779) scale(17.6404 8.79787)" cx="0.000000" cy="0.000000" r="1.000000" id="paint_radial_1380_588_0" gradientUnits="userSpaceOnUse">
			<stop offset="0.345000" stop-color="#FF6571"/>
			<stop offset="1.000000" stop-color="#F14250"/>
		</radialGradient>
		<radialGradient gradientTransform="translate(10.7073 25.1203) rotate(33.2225) scale(16.7321 7.99721)" cx="0.000000" cy="0.000000" r="1.000000" id="paint_radial_1380_589_0" gradientUnits="userSpaceOnUse">
			<stop offset="0.345000" stop-color="#FF6571"/>
			<stop offset="1.000000" stop-color="#F14250"/>
		</radialGradient>
	</defs>
	<path id="Vector" d="M25.32 16L25.96 15.13L25.94 15.13C26.38 14.65 26.66 14.03 26.66 13.34C26.66 11.86 25.46 10.67 23.99 10.67C22.51 10.67 21.32 11.86 21.32 13.34C21.32 14.03 21.6 14.65 22.04 15.13L22.02 15.13L22.7 16L18.18 16L18.18 19.5C18.32 19.49 18.46 19.46 18.61 19.46C21.12 19.46 23.16 21.5 23.16 24.01C23.16 26.53 21.12 28.56 18.61 28.56C18.46 28.56 18.32 28.54 18.18 28.52L18.18 32.02L32 32.02L32 16.01L25.32 16.01L25.32 16Z" fill="url(#paint_radial_1380_587_0)" fill-opacity="1.000000" fill-rule="nonzero"/>
	<path id="Vector" d="M10.67 18.67C10.67 17.98 10.39 17.36 9.95 16.88L9.97 16.88L9.29 16.01L16 16.01L16 9.38L15 10.04L15 10.02C14.55 10.41 13.98 10.67 13.34 10.67C11.86 10.67 10.67 9.48 10.67 8C10.67 6.53 11.86 5.33 13.34 5.33C14.13 5.33 14.82 5.7 15.29 6.26L15.29 6.25L16 6.71L16 0L-0.01 0L-0.01 16.01L6.67 16.01L6.03 16.88L6.05 16.88C5.61 17.36 5.33 17.98 5.33 18.68C5.33 20.15 6.52 21.34 8 21.34C9.47 21.34 10.67 20.15 10.67 18.67Z" fill="url(#paint_radial_1380_588_0)" fill-opacity="1.000000" fill-rule="nonzero"/>
	<path id="Vector" d="M18.67 21.34C17.98 21.34 17.36 21.62 16.88 22.06L16.88 22.04L16.01 22.72L16.01 18.21L12.52 18.21C12.53 18.33 12.55 18.45 12.55 18.57C12.55 21.08 10.51 23.12 8 23.12C5.48 23.12 3.44 21.08 3.44 18.57C3.44 18.45 3.47 18.33 3.48 18.21L-0.01 18.21L-0.01 32.02L16.01 32.02L16.01 25.35L16.88 25.98L16.88 25.96C17.36 26.4 17.98 26.68 18.67 26.68C20.15 26.68 21.34 25.49 21.34 24.01C21.34 22.54 20.15 21.34 18.67 21.34Z" fill="url(#paint_radial_1380_589_0)" fill-opacity="1.000000" fill-rule="nonzero"/>
</svg>
