<svg width="35.000000" height="35.000000" viewBox="0 0 35 35" fill="none" xmlns="http://www.w3.org/2000/svg" xmlns:xlink="http://www.w3.org/1999/xlink">
	<desc>
			Created with Pixso.
	</desc>
	<defs>
		<radialGradient gradientTransform="translate(17.5574 17.5) rotate(45.3614) scale(32.664 17.0297)" cx="0.000000" cy="0.000000" r="1.000000" id="paint_radial_1381_592_0" gradientUnits="userSpaceOnUse">
			<stop offset="0.345000" stop-color="#FF6571"/>
			<stop offset="1.000000" stop-color="#F14250"/>
		</radialGradient>
	</defs>
	<path id="Vector" d="M20.58 0C20.21 0 19.84 0.01 19.48 0.04C18.91 0.08 18.48 0.57 18.53 1.14C18.57 1.71 19.07 2.13 19.63 2.09C19.95 2.07 20.26 2.05 20.58 2.05C27.41 2.05 32.94 7.58 32.94 14.41C32.94 14.73 32.92 15.04 32.9 15.36C32.86 15.92 33.28 16.42 33.85 16.46C34.42 16.5 34.91 16.08 34.95 15.51C34.98 15.15 35 14.78 35 14.41C35 6.45 28.54 0 20.58 0ZM20.58 4.11C20.2 4.11 19.82 4.13 19.44 4.17C18.88 4.24 18.47 4.75 18.53 5.31C18.59 5.88 19.1 6.28 19.67 6.22C19.97 6.19 20.27 6.17 20.58 6.17C25.13 6.17 28.82 9.86 28.82 14.41C28.82 14.72 28.8 15.02 28.77 15.32C28.71 15.89 29.11 16.4 29.68 16.46C30.24 16.52 30.75 16.11 30.81 15.55C30.86 15.17 30.88 14.79 30.88 14.41C30.88 8.72 26.27 4.11 20.58 4.11ZM20.58 8.23C20.16 8.23 19.75 8.27 19.35 8.35C18.79 8.47 18.43 9.01 18.54 9.57C18.66 10.12 19.2 10.48 19.76 10.37C20.02 10.32 20.3 10.29 20.58 10.29C22.86 10.29 24.7 12.13 24.7 14.41C24.7 14.69 24.67 14.96 24.62 15.23C24.51 15.79 24.87 16.33 25.42 16.44C25.98 16.56 26.52 16.2 26.64 15.64C26.72 15.24 26.76 14.83 26.76 14.41C26.76 11 23.99 8.23 20.58 8.23ZM16.63 2.06L3.08 2.06C1.38 2.06 0 3.44 0 5.14L0 25.73C0 27.44 1.38 28.82 3.08 28.82L10.29 28.82L10.29 32.94L7.2 32.94C6.63 32.94 6.17 33.4 6.17 33.97C6.17 34.53 6.63 35 7.2 35L25.73 35C26.3 35 26.76 34.53 26.76 33.97C26.76 33.4 26.3 32.94 25.73 32.94L22.64 32.94L22.64 28.82L29.85 28.82C31.55 28.82 32.94 27.44 32.94 25.73L32.94 18.36C32.53 18.22 32.17 18.01 31.86 17.73C31.23 18.3 30.36 18.61 29.45 18.5C28.78 18.43 28.18 18.14 27.71 17.72C27.01 18.36 26.02 18.66 25.01 18.46C24.33 18.32 23.75 17.97 23.32 17.49C22.59 18.13 21.63 18.52 20.58 18.52C18.31 18.52 16.47 16.68 16.47 14.41C16.47 13.36 16.86 12.4 17.5 11.67C17.02 11.24 16.67 10.66 16.53 9.98C16.32 8.97 16.63 7.98 17.27 7.28C16.85 6.81 16.56 6.21 16.48 5.54C16.38 4.63 16.69 3.76 17.26 3.13C16.98 2.82 16.77 2.46 16.63 2.06ZM20.58 28.82L20.58 32.94L12.35 32.94L12.35 28.82L20.58 28.82ZM22.64 14.41C22.64 15.54 21.72 16.46 20.58 16.46C19.45 16.46 18.52 15.54 18.52 14.41C18.52 13.27 19.45 12.35 20.58 12.35C21.72 12.35 22.64 13.27 22.64 14.41Z" fill="url(#paint_radial_1381_592_0)" fill-opacity="1.000000" fill-rule="nonzero"/>
</svg>
