<svg width="32.000000" height="36.000000" viewBox="0 0 32 36" fill="none" xmlns="http://www.w3.org/2000/svg" xmlns:xlink="http://www.w3.org/1999/xlink">
	<desc>
			Created with Pixso.
	</desc>
	<defs>
		<radialGradient gradientTransform="translate(16.0272 21.3334) rotate(45.3614) scale(15.4852 8.07332)" cx="0.000000" cy="0.000000" r="1.000000" id="paint_radial_1380_562_0" gradientUnits="userSpaceOnUse">
			<stop offset="0.345000" stop-color="#FF6571"/>
			<stop offset="1.000000" stop-color="#F14250"/>
		</radialGradient>
		<radialGradient gradientTransform="translate(15.7179 21.1552) rotate(63.2281) scale(3.45595 1.44932)" cx="0.000000" cy="0.000000" r="1.000000" id="paint_radial_1380_563_0" gradientUnits="userSpaceOnUse">
			<stop offset="0.345000" stop-color="#FF6571"/>
			<stop offset="1.000000" stop-color="#F14250"/>
		</radialGradient>
		<radialGradient gradientTransform="translate(16.0525 17.7778) rotate(48.3719) scale(31.5879 16.356)" cx="0.000000" cy="0.000000" r="1.000000" id="paint_radial_1380_564_0" gradientUnits="userSpaceOnUse">
			<stop offset="0.345000" stop-color="#FF6571"/>
			<stop offset="1.000000" stop-color="#F14250"/>
		</radialGradient>
	</defs>
	<path id="Vector" d="M16 13.03C14.35 13.03 12.75 13.52 11.39 14.43C10.02 15.34 8.96 16.64 8.33 18.15C7.7 19.67 7.54 21.34 7.86 22.95C8.18 24.56 8.97 26.03 10.13 27.2C11.29 28.36 12.77 29.15 14.38 29.47C15.99 29.79 17.65 29.62 19.17 28.99C20.69 28.37 21.98 27.3 22.89 25.94C23.8 24.57 24.29 22.97 24.29 21.33C24.29 19.13 23.42 17.02 21.86 15.46C20.31 13.91 18.2 13.03 16 13.03ZM16 26.07C15.06 26.07 14.14 25.79 13.36 25.27C12.58 24.75 11.97 24.01 11.62 23.14C11.26 22.28 11.16 21.32 11.35 20.4C11.53 19.48 11.98 18.64 12.64 17.98C13.31 17.31 14.15 16.86 15.07 16.68C15.99 16.5 16.94 16.59 17.81 16.95C18.68 17.31 19.42 17.91 19.94 18.69C20.46 19.47 20.74 20.39 20.74 21.33C20.74 22.59 20.24 23.79 19.35 24.68C18.46 25.57 17.25 26.07 16 26.07Z" fill="url(#paint_radial_1380_562_0)" fill-opacity="1.000000" fill-rule="nonzero"/>
	<path id="Vector" d="M16.9 21.64L16.9 19.42C16.9 19.26 16.83 19.11 16.72 19C16.61 18.89 16.46 18.83 16.3 18.83C16.15 18.83 16 18.89 15.88 19C15.77 19.11 15.71 19.26 15.71 19.42L15.71 21.45L14.7 22.46C14.64 22.51 14.6 22.58 14.57 22.65C14.54 22.72 14.52 22.8 14.52 22.88C14.52 22.96 14.54 23.04 14.57 23.11C14.6 23.18 14.64 23.25 14.7 23.3C14.81 23.41 14.96 23.47 15.12 23.47C15.27 23.47 15.42 23.41 15.53 23.3L16.72 22.12C16.84 21.99 16.9 21.82 16.9 21.64Z" fill="url(#paint_radial_1380_563_0)" fill-opacity="1.000000" fill-rule="nonzero"/>
	<path id="Vector" d="M29.03 2.37L27.25 2.37L27.25 2.07C27.25 1.52 27.04 0.99 26.65 0.6C26.26 0.21 25.73 0 25.18 0C24.63 0 24.1 0.21 23.71 0.6C23.32 0.99 23.11 1.52 23.11 2.07L23.11 2.37L18.07 2.37L18.07 2.07C18.07 1.52 17.85 0.99 17.46 0.6C17.07 0.21 16.54 0 16 0C15.45 0 14.92 0.21 14.53 0.6C14.14 0.99 13.92 1.52 13.92 2.07L13.92 2.37L8.88 2.37L8.88 2.07C8.88 1.52 8.67 0.99 8.28 0.6C7.89 0.21 7.36 0 6.81 0C6.26 0 5.73 0.21 5.34 0.6C4.95 0.99 4.74 1.52 4.74 2.07L4.74 2.37L2.96 2.37C2.17 2.37 1.42 2.68 0.86 3.23C0.31 3.79 0 4.54 0 5.33L0 32.59C0 33.37 0.31 34.13 0.86 34.68C1.42 35.24 2.17 35.55 2.96 35.55L29.03 35.55C29.82 35.55 30.57 35.24 31.13 34.68C31.68 34.13 32 33.37 32 32.59L32 5.33C32 4.54 31.68 3.79 31.13 3.23C30.57 2.68 29.82 2.37 29.03 2.37ZM24.29 2.07C24.29 1.83 24.38 1.61 24.55 1.44C24.72 1.27 24.94 1.18 25.18 1.18C25.42 1.18 25.64 1.27 25.81 1.44C25.98 1.61 26.07 1.83 26.07 2.07L26.07 4.44C26.07 4.68 25.98 4.9 25.81 5.07C25.64 5.23 25.42 5.33 25.18 5.33C24.94 5.33 24.72 5.23 24.55 5.07C24.38 4.9 24.29 4.68 24.29 4.44L24.29 2.07ZM15.11 2.07C15.11 1.83 15.2 1.61 15.37 1.44C15.53 1.27 15.76 1.18 16 1.18C16.23 1.18 16.46 1.27 16.62 1.44C16.79 1.61 16.88 1.83 16.88 2.07L16.88 4.44C16.88 4.68 16.79 4.9 16.62 5.07C16.46 5.23 16.23 5.33 16 5.33C15.76 5.33 15.53 5.23 15.37 5.07C15.2 4.9 15.11 4.68 15.11 4.44L15.11 2.07ZM5.92 2.07C5.92 1.83 6.01 1.61 6.18 1.44C6.35 1.27 6.57 1.18 6.81 1.18C7.05 1.18 7.27 1.27 7.44 1.44C7.61 1.61 7.7 1.83 7.7 2.07L7.7 4.44C7.7 4.68 7.61 4.9 7.44 5.07C7.27 5.23 7.05 5.33 6.81 5.33C6.57 5.33 6.35 5.23 6.18 5.07C6.01 4.9 5.92 4.68 5.92 4.44L5.92 2.07ZM25.48 31.16L25.48 28.44C25.48 27.97 25.66 27.52 26 27.18C26.33 26.85 26.78 26.66 27.25 26.66L29.97 26.66L25.48 31.16ZM30.81 24.88C30.81 25.04 30.75 25.19 30.64 25.3C30.53 25.41 30.37 25.48 30.22 25.48L27.25 25.48C26.47 25.48 25.71 25.79 25.16 26.34C24.6 26.9 24.29 27.65 24.29 28.44L24.29 31.4C24.29 31.56 24.23 31.71 24.12 31.82C24.01 31.93 23.86 32 23.7 32L2.96 31.96C2.49 31.96 2.03 31.77 1.7 31.44C1.37 31.11 1.18 30.65 1.18 30.18L1.18 10.66L30.81 10.66L30.81 24.88Z" fill="url(#paint_radial_1380_564_0)" fill-opacity="1.000000" fill-rule="nonzero"/>
</svg>
