<svg width="29.000000" height="36.000000" viewBox="0 0 29 36" fill="none" xmlns="http://www.w3.org/2000/svg" xmlns:xlink="http://www.w3.org/1999/xlink">
	<desc>
			Created with Pixso.
	</desc>
	<defs>
		<radialGradient gradientTransform="translate(16.8999 32.7078) rotate(53.5119) scale(5.4379 2.71109)" cx="0.000000" cy="0.000000" r="1.000000" id="paint_radial_1380_570_0" gradientUnits="userSpaceOnUse">
			<stop offset="0.345000" stop-color="#FF6571"/>
			<stop offset="1.000000" stop-color="#F14250"/>
		</radialGradient>
		<radialGradient gradientTransform="translate(14.9919 31.9804) rotate(55.8998) scale(5.88769 2.85031)" cx="0.000000" cy="0.000000" r="1.000000" id="paint_radial_1380_571_0" gradientUnits="userSpaceOnUse">
			<stop offset="0.345000" stop-color="#FF6571"/>
			<stop offset="1.000000" stop-color="#F14250"/>
		</radialGradient>
		<radialGradient gradientTransform="translate(13.1021 30.8779) rotate(55.8999) scale(5.88769 2.85031)" cx="0.000000" cy="0.000000" r="1.000000" id="paint_radial_1380_572_0" gradientUnits="userSpaceOnUse">
			<stop offset="0.345000" stop-color="#FF6571"/>
			<stop offset="1.000000" stop-color="#F14250"/>
		</radialGradient>
		<radialGradient gradientTransform="translate(11.209 29.7626) rotate(-49.9889) scale(5.14451 0.893903)" cx="0.000000" cy="0.000000" r="1.000000" id="paint_radial_1380_573_0" gradientUnits="userSpaceOnUse">
			<stop offset="0.345000" stop-color="#FF6571"/>
			<stop offset="1.000000" stop-color="#F14250"/>
		</radialGradient>
		<radialGradient gradientTransform="translate(9.31851 28.6689) rotate(55.8999) scale(5.88769 2.85031)" cx="0.000000" cy="0.000000" r="1.000000" id="paint_radial_1380_574_0" gradientUnits="userSpaceOnUse">
			<stop offset="0.345000" stop-color="#FF6571"/>
			<stop offset="1.000000" stop-color="#F14250"/>
		</radialGradient>
		<radialGradient gradientTransform="translate(7.42886 27.5654) rotate(55.8999) scale(5.88769 2.85031)" cx="0.000000" cy="0.000000" r="1.000000" id="paint_radial_1380_575_0" gradientUnits="userSpaceOnUse">
			<stop offset="0.345000" stop-color="#FF6571"/>
			<stop offset="1.000000" stop-color="#F14250"/>
		</radialGradient>
		<radialGradient gradientTransform="translate(5.53909 26.4608) rotate(55.885) scale(5.88544 2.84981)" cx="0.000000" cy="0.000000" r="1.000000" id="paint_radial_1380_576_0" gradientUnits="userSpaceOnUse">
			<stop offset="0.345000" stop-color="#FF6571"/>
			<stop offset="1.000000" stop-color="#F14250"/>
		</radialGradient>
		<radialGradient gradientTransform="translate(3.64932 25.3564) rotate(55.8998) scale(5.88769 2.85031)" cx="0.000000" cy="0.000000" r="1.000000" id="paint_radial_1380_577_0" gradientUnits="userSpaceOnUse">
			<stop offset="0.345000" stop-color="#FF6571"/>
			<stop offset="1.000000" stop-color="#F14250"/>
		</radialGradient>
		<radialGradient gradientTransform="translate(2.14113 24.2017) rotate(59.6499) scale(5.53921 2.51866)" cx="0.000000" cy="0.000000" r="1.000000" id="paint_radial_1380_578_0" gradientUnits="userSpaceOnUse">
			<stop offset="0.345000" stop-color="#FF6571"/>
			<stop offset="1.000000" stop-color="#F14250"/>
		</radialGradient>
		<radialGradient gradientTransform="translate(19.9459 8.09656) rotate(34.1884) scale(2.10247 1.01908)" cx="0.000000" cy="0.000000" r="1.000000" id="paint_radial_1380_579_0" gradientUnits="userSpaceOnUse">
			<stop offset="0.345000" stop-color="#FF6571"/>
			<stop offset="1.000000" stop-color="#F14250"/>
		</radialGradient>
		<radialGradient gradientTransform="translate(23.0604 25.833) rotate(61.0528) scale(12.8341 5.66832)" cx="0.000000" cy="0.000000" r="1.000000" id="paint_radial_1380_580_0" gradientUnits="userSpaceOnUse">
			<stop offset="0.345000" stop-color="#FF6571"/>
			<stop offset="1.000000" stop-color="#F14250"/>
		</radialGradient>
		<radialGradient gradientTransform="translate(6.39402 8.18486) rotate(20.0194) scale(5.33554 1.78964)" cx="0.000000" cy="0.000000" r="1.000000" id="paint_radial_1380_581_0" gradientUnits="userSpaceOnUse">
			<stop offset="0.345000" stop-color="#FF6571"/>
			<stop offset="1.000000" stop-color="#F14250"/>
		</radialGradient>
		<radialGradient gradientTransform="translate(21.6822 7.86839) rotate(47.6096) scale(5.11944 2.6582)" cx="0.000000" cy="0.000000" r="1.000000" id="paint_radial_1380_582_0" gradientUnits="userSpaceOnUse">
			<stop offset="0.345000" stop-color="#FF6571"/>
			<stop offset="1.000000" stop-color="#F14250"/>
		</radialGradient>
		<radialGradient gradientTransform="translate(16.2897 14.6488) rotate(49.5673) scale(25.5599 13.1579)" cx="0.000000" cy="0.000000" r="1.000000" id="paint_radial_1380_583_0" gradientUnits="userSpaceOnUse">
			<stop offset="0.345000" stop-color="#FF6571"/>
			<stop offset="1.000000" stop-color="#F14250"/>
		</radialGradient>
	</defs>
	<path id="Vector" d="M19.35 30.05L16.46 35.01C16.04 35.73 15.22 36.1 14.42 35.97L18.25 29.41L19.35 30.05Z" fill="url(#paint_radial_1380_570_0)" fill-opacity="1.000000" fill-rule="nonzero"/>
	<path id="Vector" d="M17.5 28.97L13.59 35.65L12.46 34.99L16.36 28.3L17.5 28.97Z" fill="url(#paint_radial_1380_571_0)" fill-opacity="1.000000" fill-rule="nonzero"/>
	<path id="Vector" d="M15.61 27.86L11.7 34.54L10.57 33.88L14.47 27.2L15.61 27.86Z" fill="url(#paint_radial_1380_572_0)" fill-opacity="1.000000" fill-rule="nonzero"/>
	<path id="Vector" d="M8.68 32.78L12.58 26.1L13.71 26.76L9.81 33.44L8.68 32.78Z" fill="url(#paint_radial_1380_573_0)" fill-opacity="1.000000" fill-rule="evenodd"/>
	<path id="Vector" d="M11.82 25.66L7.92 32.33L6.79 31.67L10.69 24.99L11.82 25.66Z" fill="url(#paint_radial_1380_574_0)" fill-opacity="1.000000" fill-rule="nonzero"/>
	<path id="Vector" d="M9.93 24.55L6.03 31.23L4.9 30.57L8.8 23.89L9.93 24.55Z" fill="url(#paint_radial_1380_575_0)" fill-opacity="1.000000" fill-rule="nonzero"/>
	<path id="Vector" d="M8.04 23.45L4.14 30.12L3.01 29.46L6.91 22.79L8.04 23.45Z" fill="url(#paint_radial_1380_576_0)" fill-opacity="1.000000" fill-rule="nonzero"/>
	<path id="Vector" d="M6.15 22.34L2.25 29.02L1.12 28.36L5.02 21.68L6.15 22.34Z" fill="url(#paint_radial_1380_577_0)" fill-opacity="1.000000" fill-rule="nonzero"/>
	<path id="Vector" d="M4.26 21.24L0.43 27.8C-0.07 27.17 -0.16 26.28 0.27 25.55L3.16 20.6L4.26 21.24Z" fill="url(#paint_radial_1380_578_0)" fill-opacity="1.000000" fill-rule="nonzero"/>
	<path id="Vector" d="M21.26 8.07C21.18 8.22 20.61 8.61 18.84 8.98C18.69 8.64 18.61 8.26 18.61 7.86C18.61 7.64 18.64 7.41 18.69 7.2C20.57 7.53 21.17 7.92 21.26 8.07Z" fill="url(#paint_radial_1380_579_0)" fill-opacity="1.000000" fill-rule="nonzero"/>
	<path id="Vector" d="M27.78 17.37L25.84 32.54C25.77 33.07 25.5 33.54 25.08 33.86C24.65 34.19 24.13 34.33 23.6 34.27L18.3 33.59L27.78 17.37Z" fill="url(#paint_radial_1380_580_0)" fill-opacity="1.000000" fill-rule="nonzero"/>
	<path id="Vector" d="M10.2 6.8L8.6 9.56C4.45 9.32 2.74 8.62 2.55 8.31C2.61 8.23 3 7.81 4.99 7.39C6.4 7.1 8.23 6.89 10.2 6.8Z" fill="url(#paint_radial_1380_581_0)" fill-opacity="1.000000" fill-rule="nonzero"/>
	<path id="Vector" d="M24.3 7.86C24.3 9.43 23.03 10.71 21.46 10.71C20.62 10.71 19.87 10.35 19.35 9.77C21.85 9.2 22.15 8.53 22.15 8.06C22.14 7.57 21.8 6.88 19.04 6.37C19.54 5.56 20.43 5.02 21.46 5.02C23.03 5.02 24.3 6.3 24.3 7.86Z" fill="url(#paint_radial_1380_582_0)" fill-opacity="1.000000" fill-rule="nonzero"/>
	<path id="Vector" d="M28.88 13.57C28.84 13.76 28.76 13.94 28.67 14.11L19.8 29.29L3.6 19.84L11.24 6.77C11.45 6.76 11.67 6.76 11.89 6.75C14.04 6.73 16.13 6.84 17.82 7.07C17.76 7.33 17.73 7.59 17.73 7.86C17.73 9.18 18.42 10.33 19.45 11L19.45 11C20.03 11.37 20.72 11.59 21.46 11.59C23.51 11.59 25.18 9.92 25.18 7.86C25.18 5.81 23.51 4.14 21.46 4.14C19.99 4.14 18.73 4.99 18.12 6.22C16.35 5.97 14.15 5.85 11.88 5.88L11.76 5.88L12.48 4.65C12.59 4.46 12.72 4.3 12.88 4.16C13.14 3.93 13.46 3.77 13.82 3.7L13.87 3.69L16.29 2.5C17.47 1.91 18.57 1.37 19.55 0.88C21.81 -0.23 23.98 -0.3 25.65 0.68C27.33 1.66 28.33 3.58 28.47 6.09C28.53 7.12 28.59 8.28 28.66 9.51L28.88 13.57Z" fill="url(#paint_radial_1380_583_0)" fill-opacity="1.000000" fill-rule="nonzero"/>
</svg>
